{"glyphs":{"0":{"ha":868,"x_min":0,"x_max":868,"o":"m 0 694 q 127 1001 5 879 l 127 1001 q 434 1128 250 1123 q 741 1001 618 1123 q 868 694 863 879 l 868 347 q 741 41 863 163 q 434 -87 618 -81 q 127 41 250 -81 q 0 347 5 163 l 0 694 l 0 694 m 434 955 q 250 879 323 952 l 250 879 q 174 694 176 806 l 174 347 q 250 163 176 236 q 434 87 323 90 q 618 163 545 90 q 694 347 692 236 l 694 694 q 618 879 692 806 q 434 955 545 952 l 434 955 z "},"1":{"ha":694,"x_min":0,"x_max":694,"o":"m 434 1042 q 388 1118 431 1093 q 298 1115 342 1142 l 38 941 q 3 884 8 920 q 14 819 -5 852 q 71 784 35 789 q 136 795 103 776 l 260 879 l 260 87 l 87 87 q 24 62 49 87 q 0 0 0 38 q 24 -62 0 -38 q 87 -87 49 -87 l 347 -87 l 608 -87 q 670 -62 646 -87 q 694 0 694 -38 q 670 62 694 38 q 608 87 646 87 l 434 87 l 434 1042 l 434 1042 z "},"2":{"ha":868,"x_min":0,"x_max":868,"o":"m 388 955 q 231 890 296 955 l 149 806 q 87 781 122 781 q 24 806 52 781 q 0 868 0 833 q 24 930 0 903 l 109 1012 q 388 1128 225 1126 q 665 1012 556 1123 q 781 735 776 903 q 667 456 779 572 l 296 87 l 781 87 q 844 62 819 87 q 868 0 868 38 q 844 -62 868 -38 q 781 -87 819 -87 l 87 -87 q 5 -33 30 -84 q 24 62 -14 19 l 543 578 q 608 735 605 643 q 543 890 605 827 q 388 955 480 952 l 388 955 z "},"3":{"ha":1215,"x_min":174,"x_max":1042,"o":"m 174 1042 q 198 1104 174 1080 l 198 1104 q 260 1128 222 1128 l 911 1128 q 993 1074 968 1126 q 971 977 1012 1017 l 613 651 l 673 651 q 933 543 830 648 q 1042 282 1039 439 q 933 22 1039 125 q 673 -87 830 -84 l 458 -87 q 301 -41 372 -87 q 187 81 228 3 l 182 92 q 179 157 168 125 q 222 209 190 190 q 288 212 255 222 q 339 168 320 201 l 342 157 q 458 87 380 90 l 673 87 q 811 144 757 90 q 868 282 865 198 q 811 420 865 366 q 673 477 757 475 l 391 477 q 309 532 334 480 q 331 629 290 589 l 689 955 l 260 955 q 198 979 222 955 q 174 1042 174 1004 l 174 1042 z "},"4":{"ha":1042,"x_min":0,"x_max":1042,"o":"m 513 1004 q 515 1072 526 1039 l 515 1072 q 472 1120 505 1104 q 404 1123 437 1134 q 355 1080 372 1112 l 8 342 q 14 258 -11 298 q 87 217 41 217 l 694 217 l 694 0 q 719 -62 694 -38 q 781 -87 743 -87 q 844 -62 819 -87 q 868 0 868 -38 l 868 217 l 955 217 q 1017 241 993 217 q 1042 304 1042 266 q 1017 366 1042 342 q 955 391 993 391 l 868 391 l 868 781 q 844 844 868 819 q 781 868 819 868 q 719 844 743 868 q 694 781 694 819 l 694 391 l 222 391 l 513 1004 l 513 1004 z "},"5":{"ha":868,"x_min":0,"x_max":868,"o":"m 90 1058 q 174 1128 106 1123 l 694 1128 q 757 1104 732 1128 q 781 1042 781 1080 q 757 979 781 1004 q 694 955 732 955 l 247 955 l 190 651 l 499 651 q 760 543 656 648 q 868 282 865 439 q 760 22 865 125 q 499 -87 656 -84 l 274 -87 q 125 -43 190 -87 q 22 68 57 -3 l 8 92 q 5 157 -5 125 q 49 209 16 190 q 114 212 81 222 q 165 168 146 201 l 176 146 q 274 87 206 90 l 499 87 q 637 144 583 90 q 694 282 692 198 q 637 420 692 366 q 499 477 583 475 l 87 477 q 19 507 46 477 q 0 581 -5 540 l 90 1058 l 90 1058 z "},"6":{"ha":868,"x_min":0,"x_max":868,"o":"m 629 985 q 651 1050 654 1015 l 651 1050 q 621 1107 648 1082 q 556 1128 591 1131 q 499 1099 524 1126 l 106 632 q 0 361 5 515 q 0 355 0 358 q 0 347 0 353 q 0 347 0 347 q 0 347 0 347 q 127 41 5 163 q 434 -87 250 -81 q 741 41 618 -81 q 868 347 863 163 q 749 646 863 526 q 458 781 632 768 l 629 985 l 629 985 m 174 347 q 250 532 176 458 l 250 532 q 434 608 323 605 q 618 532 545 605 q 694 347 692 458 q 618 163 692 236 q 434 87 545 90 q 250 163 323 90 q 174 347 176 236 l 174 347 z "},"7":{"ha":868,"x_min":0,"x_max":868,"o":"m 0 1042 q 24 1104 0 1080 l 24 1104 q 87 1128 49 1128 l 781 1128 q 857 1085 830 1126 q 857 998 879 1042 l 250 -43 q 195 -84 228 -76 q 130 -76 163 -92 q 90 -22 98 -57 q 98 43 81 11 l 629 955 l 87 955 q 24 979 49 955 q 0 1042 0 1004 l 0 1042 z "},"8":{"ha":868,"x_min":0,"x_max":868,"o":"m 825 781 q 724 1028 822 928 l 724 1028 q 477 1128 624 1126 l 391 1128 q 144 1028 244 1126 q 43 781 46 928 q 141 540 46 637 q 38 420 76 491 q 0 260 0 347 q 100 14 3 114 q 347 -87 201 -84 l 521 -87 q 768 14 667 -84 q 868 260 865 114 q 830 420 868 347 q 727 540 792 491 q 825 781 822 637 l 825 781 m 477 434 l 521 434 q 643 382 594 431 q 694 260 692 334 q 643 138 692 187 q 521 87 594 90 l 347 87 q 225 138 274 90 q 174 260 176 187 q 225 382 176 334 q 347 434 274 431 l 391 434 q 391 434 391 434 q 391 434 391 434 l 477 434 q 477 434 477 434 q 477 434 477 434 l 477 434 m 477 608 q 477 608 477 608 l 477 608 q 477 608 477 608 l 391 608 q 391 608 391 608 q 391 608 391 608 q 269 659 317 610 q 217 781 220 708 q 269 903 220 854 q 391 955 317 952 l 477 955 q 600 903 551 952 q 651 781 648 854 q 600 659 648 708 q 477 608 551 610 l 477 608 z "},"9":{"ha":868,"x_min":0,"x_max":868,"o":"m 174 694 q 250 510 176 583 l 250 510 q 434 434 323 437 q 618 510 545 437 q 694 694 692 583 q 618 879 692 806 q 434 955 545 952 q 250 879 323 952 q 174 694 176 806 l 174 694 m 412 260 q 119 396 236 274 l 119 396 q 0 694 5 515 q 127 1001 5 879 q 434 1128 250 1123 q 741 1001 618 1123 q 868 694 863 879 q 868 673 868 684 q 762 410 860 524 l 369 -57 q 312 -87 345 -84 q 247 -65 277 -90 q 217 -8 220 -41 q 236 57 214 27 l 410 260 l 412 260 z "},"!":{"ha":347,"x_min":65,"x_max":282,"o":"m 260 1042 q 236 1104 260 1080 l 236 1104 q 174 1128 212 1128 q 111 1104 136 1128 q 87 1042 87 1080 l 87 347 q 111 285 87 309 q 174 260 136 260 q 236 285 212 260 q 260 347 260 309 l 260 1042 l 260 1042 m 174 -87 q 250 -54 220 -87 l 250 -54 q 282 22 282 -24 q 250 98 282 68 q 174 130 220 130 q 98 98 127 130 q 65 22 65 68 q 98 -54 65 -24 q 174 -87 127 -87 l 174 -87 z "},"#":{"ha":1215,"x_min":0,"x_max":1215,"o":"m 491 1128 q 548 1093 529 1120 l 548 1093 q 564 1028 567 1063 l 537 868 l 795 868 l 825 1055 q 860 1112 833 1093 q 925 1128 890 1131 q 982 1093 963 1120 q 996 1028 1001 1063 l 971 868 l 1128 868 q 1191 844 1166 868 q 1215 781 1215 819 q 1191 719 1215 743 q 1128 694 1166 694 l 941 694 l 884 347 l 1042 347 q 1104 323 1080 347 q 1128 260 1128 298 q 1104 198 1128 222 q 1042 174 1080 174 l 854 174 l 825 -14 q 789 -71 817 -52 q 724 -87 760 -90 q 667 -52 686 -79 q 654 14 648 -22 l 678 174 l 420 174 l 391 -14 q 355 -71 382 -52 q 290 -87 326 -92 q 233 -52 252 -79 q 220 14 214 -22 l 244 174 l 87 174 q 24 198 49 174 q 0 260 0 222 q 24 323 0 298 q 87 347 49 347 l 274 347 l 331 694 l 174 694 q 111 719 136 694 q 87 781 87 743 q 111 844 87 819 q 174 868 136 868 l 361 868 l 391 1055 q 426 1112 399 1093 q 491 1128 456 1131 l 491 1128 m 507 694 l 450 347 l 708 347 l 765 694 l 507 694 l 507 694 z "},"$":{"ha":868,"x_min":41,"x_max":825,"o":"m 434 1215 q 496 1191 472 1215 l 496 1191 q 521 1128 521 1166 l 521 1031 q 534 1031 526 1031 q 605 1017 559 1025 q 684 1004 654 1009 q 735 963 719 993 q 746 898 754 933 q 705 844 735 863 q 640 833 675 827 q 575 846 618 838 q 507 857 534 854 q 296 844 374 876 q 220 768 225 814 q 222 713 214 727 q 258 675 231 697 q 456 605 326 635 l 464 602 q 589 564 524 586 q 705 507 651 543 q 803 401 765 472 q 819 241 836 328 q 757 111 803 163 q 640 33 708 60 q 521 3 586 11 l 521 -87 q 496 -149 521 -125 q 434 -174 472 -174 q 372 -149 396 -174 q 347 -87 347 -125 l 347 8 q 345 8 347 8 q 345 8 345 8 l 342 8 l 342 8 q 222 35 290 16 q 95 79 152 54 q 49 127 62 95 q 52 195 35 160 q 98 239 68 228 q 165 239 130 252 q 269 203 209 220 q 369 179 326 187 q 575 193 502 163 q 648 271 643 222 q 646 328 654 315 q 610 363 637 345 q 410 437 543 404 l 404 439 q 279 477 345 453 q 163 532 214 499 q 65 640 100 570 q 49 800 33 713 q 114 930 65 879 q 233 1006 165 982 q 347 1034 288 1028 l 347 1128 q 372 1191 347 1166 q 434 1215 396 1215 l 434 1215 z "},"%":{"ha":1042,"x_min":0,"x_max":1042,"o":"m 1017 892 q 1042 955 1042 920 l 1042 955 q 1017 1017 1042 990 q 955 1042 990 1042 q 892 1017 920 1042 l 24 149 q 0 87 0 122 q 24 24 0 52 q 87 0 52 0 q 149 24 122 0 l 1017 892 l 1017 892 m 347 868 q 296 990 345 941 l 296 990 q 174 1042 247 1039 q 52 990 100 1039 q 0 868 3 941 q 52 746 3 795 q 174 694 100 697 q 296 746 247 697 q 347 868 345 795 l 347 868 m 1042 174 q 990 296 1039 247 l 990 296 q 868 347 941 345 q 746 296 795 345 q 694 174 697 247 q 746 52 697 100 q 868 0 795 3 q 990 52 941 3 q 1042 174 1039 100 l 1042 174 z "},"*":{"ha":1042,"x_min":0,"x_max":1042,"o":"m 521 1128 q 583 1104 559 1128 l 583 1104 q 608 1042 608 1080 l 608 673 l 911 854 q 977 865 941 873 q 1028 825 1009 857 q 1039 760 1047 795 q 998 705 1031 727 l 689 521 l 1001 334 q 1039 282 1031 315 q 1031 214 1047 247 q 977 176 1009 184 q 911 184 941 168 l 608 366 l 608 0 q 583 -62 608 -38 q 521 -87 559 -87 q 458 -62 483 -87 q 434 0 434 -38 l 434 366 l 133 187 q 65 176 100 168 q 14 217 33 184 q 3 282 -5 247 q 43 334 11 315 l 353 521 l 43 708 q 3 760 11 727 q 14 825 -5 795 q 65 865 33 857 q 130 854 100 873 l 434 673 l 434 1042 q 458 1104 434 1080 q 521 1128 483 1128 l 521 1128 z "},"+":{"ha":1215,"x_min":43,"x_max":1172,"o":"m 694 998 q 670 1061 694 1036 l 670 1061 q 608 1085 646 1085 q 545 1061 570 1085 q 521 998 521 1036 l 521 608 l 130 608 q 68 583 92 608 q 43 521 43 559 q 68 458 43 483 q 130 434 92 434 l 521 434 l 521 43 q 545 -19 521 5 q 608 -43 570 -43 q 670 -19 646 -43 q 694 43 694 5 l 694 434 l 1085 434 q 1147 458 1123 434 q 1172 521 1172 483 q 1147 583 1172 559 q 1085 608 1123 608 l 694 608 l 694 998 l 694 998 z "},"<":{"ha":1042,"x_min":0,"x_max":1039,"o":"m 1034 993 q 1036 928 1047 960 l 1036 928 q 993 876 1025 895 l 282 521 l 993 165 q 1036 114 1025 146 q 1034 49 1047 81 q 982 5 1015 16 q 917 8 949 -5 l 49 442 q 0 521 3 469 q 49 600 3 572 l 917 1034 q 982 1036 949 1047 q 1034 993 1015 1025 l 1034 993 z "},"=":{"ha":1215,"x_min":43,"x_max":1172,"o":"m 130 868 q 68 844 92 868 l 68 844 q 43 781 43 819 q 68 719 43 743 q 130 694 92 694 l 1085 694 q 1147 719 1123 694 q 1172 781 1172 743 q 1147 844 1172 819 q 1085 868 1123 868 l 130 868 l 130 868 m 130 347 q 68 323 92 347 l 68 323 q 43 260 43 298 q 68 198 43 222 q 130 174 92 174 l 1085 174 q 1147 198 1123 174 q 1172 260 1172 222 q 1147 323 1172 298 q 1085 347 1123 347 l 130 347 l 130 347 z "},">":{"ha":1042,"x_min":0,"x_max":1042,"o":"m 8 993 q 5 928 -5 960 l 5 928 q 49 876 16 895 l 762 521 l 49 165 q 5 114 16 146 q 8 49 -5 81 q 60 5 27 16 q 125 8 92 -5 l 993 442 q 1042 521 1039 469 q 993 600 1039 572 l 125 1034 q 60 1036 92 1047 q 8 993 27 1025 l 8 993 z "},"?":{"ha":868,"x_min":0,"x_max":868,"o":"m 260 955 q 198 930 222 955 l 198 930 q 174 868 174 906 q 149 806 174 830 q 87 781 125 781 q 24 806 49 781 q 0 868 0 830 q 76 1053 3 979 q 260 1128 149 1126 l 524 1128 q 768 1028 670 1126 q 868 784 865 930 q 808 589 868 675 q 648 464 749 505 l 477 396 l 477 347 q 453 285 477 309 q 391 260 429 260 q 328 285 353 260 q 304 347 304 309 l 304 396 q 334 494 304 450 q 415 559 363 537 l 586 624 q 665 686 635 646 q 694 784 694 730 q 646 906 692 857 q 524 955 597 952 l 260 955 l 260 955 m 391 -87 q 315 -54 345 -87 l 315 -54 q 282 22 282 -24 q 315 98 282 68 q 391 130 345 130 q 467 98 437 130 q 499 22 499 68 q 467 -54 499 -24 q 391 -87 437 -87 l 391 -87 z "},"@":{"ha":1389,"x_min":0,"x_max":1389,"o":"m 694 1042 q 326 890 472 1036 l 326 890 q 174 521 179 743 q 326 152 179 298 q 694 0 472 5 q 757 -24 732 0 q 781 -87 781 -49 q 757 -149 781 -125 q 694 -174 732 -174 q 345 -79 499 -171 q 95 171 187 14 q 0 521 3 326 q 95 871 3 716 q 345 1120 187 1028 q 694 1215 499 1213 q 1044 1120 890 1213 q 1294 871 1202 1028 q 1389 521 1386 716 l 1389 434 q 1313 250 1386 323 q 1128 174 1240 176 q 930 266 1006 176 q 694 174 833 176 q 448 274 548 176 q 347 521 350 374 q 448 768 350 667 q 694 868 548 865 q 898 803 811 865 q 955 825 920 825 q 1017 800 993 825 q 1042 738 1042 776 l 1042 521 l 1042 434 q 1066 372 1042 396 q 1128 347 1090 347 q 1191 372 1166 347 q 1215 434 1215 396 l 1215 521 q 1063 890 1210 743 q 694 1042 917 1036 l 694 1042 m 868 521 q 817 643 865 594 l 817 643 q 694 694 768 692 q 572 643 621 692 q 521 521 524 594 q 572 399 524 448 q 694 347 621 350 q 817 399 768 350 q 868 521 865 448 l 868 521 z "},"A":{"ha":1215,"x_min":87,"x_max":1128,"o":"m 689 1074 q 608 1128 665 1126 q 529 1074 551 1126 l 203 293 l 95 33 q 92 -33 81 0 q 141 -81 106 -65 q 206 -81 174 -92 q 255 -33 239 -68 l 339 174 l 876 174 l 963 -33 q 1009 -81 977 -68 q 1074 -81 1042 -92 q 1123 -33 1109 -65 q 1123 33 1134 0 l 1015 293 l 689 1074 l 689 1074 m 803 347 l 412 347 l 608 817 l 803 347 l 803 347 z "},"B":{"ha":868,"x_min":0,"x_max":868,"o":"m 87 1128 q 24 1104 49 1128 l 24 1104 q 0 1042 0 1080 l 0 521 l 0 0 q 24 -62 0 -38 q 87 -87 49 -87 l 521 -87 q 768 14 667 -84 q 868 260 865 114 q 822 434 868 355 q 700 559 776 513 q 781 781 779 651 q 681 1028 779 928 q 434 1128 581 1126 l 87 1128 l 87 1128 m 434 608 l 174 608 l 174 955 l 434 955 q 556 903 507 952 q 608 781 605 854 q 556 659 605 708 q 434 608 507 610 l 434 608 m 174 434 l 434 434 l 521 434 q 643 382 594 431 q 694 260 692 334 q 643 138 692 187 q 521 87 594 90 l 174 87 l 174 434 l 174 434 z "},"C":{"ha":1042,"x_min":0,"x_max":1042,"o":"m 892 827 q 597 955 760 955 l 597 955 q 301 827 434 955 q 174 521 174 694 q 301 214 174 347 q 597 87 434 87 q 892 214 760 87 q 955 239 920 239 q 1015 214 990 239 q 1042 152 1042 187 q 1015 90 1042 117 q 597 -87 830 -87 q 179 90 363 -87 q 19 366 60 212 q 19 675 -19 521 q 179 949 60 830 q 597 1128 363 1128 q 1015 949 830 1128 q 1042 890 1042 922 q 1015 827 1042 854 q 955 803 990 803 q 892 827 920 803 l 892 827 z "},"D":{"ha":1042,"x_min":0,"x_max":1042,"o":"m 0 1042 q 24 1104 0 1080 l 24 1104 q 87 1128 49 1128 l 434 1128 q 741 1044 605 1126 q 958 827 879 966 q 1042 521 1039 692 q 958 214 1039 350 q 741 -3 879 76 q 434 -87 605 -84 l 87 -87 q 24 -62 49 -87 q 0 0 0 -38 l 0 1042 l 0 1042 m 174 955 l 174 87 l 434 87 q 741 214 618 92 q 868 521 863 336 q 741 827 863 705 q 434 955 618 949 l 174 955 l 174 955 z "},"E":{"ha":868,"x_min":0,"x_max":868,"o":"m 87 1128 q 24 1104 49 1128 l 24 1104 q 0 1042 0 1080 l 0 521 l 0 0 q 24 -62 0 -38 q 87 -87 49 -87 l 781 -87 q 844 -62 819 -87 q 868 0 868 -38 q 844 62 868 38 q 781 87 819 87 l 174 87 l 174 434 l 608 434 q 670 458 646 434 q 694 521 694 483 q 670 583 694 559 q 608 608 646 608 l 174 608 l 174 955 l 781 955 q 844 979 819 955 q 868 1042 868 1004 q 844 1104 868 1080 q 781 1128 819 1128 l 87 1128 l 87 1128 z "},"F":{"ha":868,"x_min":0,"x_max":868,"o":"m 87 1128 q 24 1104 49 1128 l 24 1104 q 0 1042 0 1080 l 0 521 l 0 0 q 24 -62 0 -38 q 87 -87 49 -87 q 149 -62 125 -87 q 174 0 174 -38 l 174 434 l 608 434 q 670 458 646 434 q 694 521 694 483 q 670 583 694 559 q 608 608 646 608 l 174 608 l 174 955 l 781 955 q 844 979 819 955 q 868 1042 868 1004 q 844 1104 868 1080 q 781 1128 819 1128 l 87 1128 l 87 1128 z "},"G":{"ha":1215,"x_min":0,"x_max":1215,"o":"m 608 955 q 301 827 423 949 l 301 827 q 174 521 179 705 q 301 214 179 336 q 608 87 423 92 q 884 187 768 90 q 1034 434 1001 282 l 694 434 q 632 458 656 434 q 608 521 608 483 q 632 583 608 559 q 694 608 656 608 l 1128 608 q 1191 583 1166 608 q 1215 521 1215 559 q 1131 214 1213 350 q 914 -3 1053 76 q 608 -87 779 -84 q 301 -3 437 -84 q 84 214 163 76 q 0 521 3 350 q 84 827 3 692 q 301 1044 163 966 q 608 1128 437 1126 q 1012 974 846 1123 q 1042 914 1039 949 q 1020 852 1044 879 q 960 822 993 825 q 898 844 925 819 q 608 955 779 952 l 608 955 z "},"H":{"ha":1042,"x_min":0,"x_max":1042,"o":"m 868 521 l 868 0 q 892 -62 868 -38 q 955 -87 917 -87 q 1017 -62 993 -87 q 1042 0 1042 -38 l 1042 608 l 1042 1042 q 1017 1104 1042 1080 q 955 1128 993 1128 q 892 1104 917 1128 q 868 1042 868 1080 l 868 694 l 174 694 l 174 1042 q 149 1104 174 1080 q 87 1128 125 1128 q 24 1104 49 1128 q 0 1042 0 1080 l 0 0 q 24 -62 0 -38 q 87 -87 49 -87 q 149 -62 125 -87 q 174 0 174 -38 l 174 521 l 868 521 l 868 521 z "},"I":{"ha":868,"x_min":0,"x_max":868,"o":"m 87 1128 q 24 1104 49 1128 l 24 1104 q 0 1042 0 1080 q 24 979 0 1004 q 87 955 49 955 l 347 955 l 347 87 l 87 87 q 24 62 49 87 q 0 0 0 38 q 24 -62 0 -38 q 87 -87 49 -87 l 781 -87 q 844 -62 819 -87 q 868 0 868 -38 q 844 62 868 38 q 781 87 819 87 l 521 87 l 521 955 l 781 955 q 844 979 819 955 q 868 1042 868 1004 q 844 1104 868 1080 q 781 1128 819 1128 l 434 1128 l 87 1128 l 87 1128 z "},"J":{"ha":868,"x_min":0,"x_max":868,"o":"m 781 1128 q 844 1104 819 1128 l 844 1104 q 868 1042 868 1080 l 868 347 q 741 41 863 163 q 434 -87 618 -81 q 127 41 250 -81 q 0 347 5 163 l 0 434 q 24 496 0 472 q 87 521 49 521 q 149 496 125 521 q 174 434 174 472 l 174 347 q 250 163 176 236 q 434 87 323 90 q 618 163 545 90 q 694 347 692 236 l 694 1042 q 719 1104 694 1080 q 781 1128 743 1128 l 781 1128 z "},"K":{"ha":868,"x_min":0,"x_max":868,"o":"m 844 982 q 868 1042 868 1009 l 868 1042 q 841 1104 868 1077 q 781 1128 814 1128 q 719 1101 746 1128 l 298 667 l 174 540 l 174 1042 q 149 1104 174 1080 q 87 1128 125 1128 q 24 1104 49 1128 q 0 1042 0 1080 l 0 326 l 0 0 q 24 -62 0 -38 q 87 -87 49 -87 q 149 -62 125 -87 q 174 0 174 -38 l 174 290 l 350 472 l 711 -49 q 765 -87 732 -79 q 830 -71 800 -92 q 865 -16 860 -49 q 852 49 873 19 l 472 600 l 844 982 l 844 982 z "},"L":{"ha":868,"x_min":87,"x_max":868,"o":"m 174 1128 q 236 1104 212 1128 l 236 1104 q 260 1042 260 1080 l 260 87 l 781 87 q 844 62 819 87 q 868 0 868 38 q 844 -62 868 -38 q 781 -87 819 -87 l 174 -87 q 111 -62 136 -87 q 87 0 87 -38 l 87 1042 q 111 1104 87 1080 q 174 1128 136 1128 l 174 1128 z "},"M":{"ha":1215,"x_min":0,"x_max":1215,"o":"m 62 1126 q 160 1090 122 1139 l 608 418 l 1055 1090 q 1153 1126 1093 1139 q 1215 1042 1213 1104 l 1215 0 q 1191 -62 1215 -38 q 1128 -87 1166 -87 q 1066 -62 1090 -87 q 1042 0 1042 -38 l 1042 754 l 681 212 q 608 174 654 174 q 534 212 562 174 l 174 754 l 174 0 q 149 -62 174 -38 q 87 -87 125 -87 q 24 -62 49 -87 q 0 0 0 -38 l 0 1042 q 62 1126 3 1104 l 62 1126 z "},"N":{"ha":1042,"x_min":0,"x_max":1042,"o":"m 57 1123 q 155 1096 114 1139 l 868 239 l 868 1042 q 892 1104 868 1080 q 955 1128 917 1128 q 1017 1104 993 1128 q 1042 1042 1042 1080 l 1042 0 q 985 -81 1039 -60 q 887 -57 928 -98 l 174 803 l 174 0 q 149 -62 174 -38 q 87 -87 125 -87 q 24 -62 49 -87 q 0 0 0 -38 l 0 1042 q 57 1123 3 1101 l 57 1123 z "},"O":{"ha":1215,"x_min":0,"x_max":1215,"o":"m 608 955 q 301 827 423 949 l 301 827 q 174 521 179 705 q 301 214 179 336 q 608 87 423 92 q 914 214 792 92 q 1042 521 1036 336 q 914 827 1036 705 q 608 955 792 949 l 608 955 m 0 521 q 84 827 3 692 l 84 827 q 301 1044 163 966 l 301 1044 q 608 1128 437 1126 q 914 1044 779 1126 q 1131 827 1053 966 q 1215 521 1213 692 q 1131 214 1213 350 q 914 -3 1053 76 q 608 -87 779 -84 q 301 -3 437 -84 q 84 214 163 76 q 0 521 3 350 l 0 521 z "},"P":{"ha":868,"x_min":0,"x_max":868,"o":"m 87 1128 l 174 1128 l 434 1128 q 741 1001 618 1123 q 868 694 863 879 q 741 388 863 510 q 434 260 618 266 l 174 260 l 174 0 q 149 -62 174 -38 q 87 -87 125 -87 q 24 -62 49 -87 q 0 0 0 -38 l 0 260 l 0 347 l 0 434 l 0 1042 q 24 1104 0 1080 q 87 1128 49 1128 l 87 1128 m 174 434 l 434 434 q 618 510 545 437 q 694 694 692 583 q 618 879 692 806 q 434 955 545 952 l 174 955 l 174 434 l 174 434 z "},"Q":{"ha":1389,"x_min":87,"x_max":1302,"o":"m 260 521 q 388 214 266 336 l 388 214 q 694 87 510 92 q 909 144 814 90 l 713 377 q 694 442 692 407 q 727 502 697 477 q 789 521 754 524 q 849 488 825 518 l 1042 258 q 1128 521 1126 372 q 1001 827 1123 705 q 694 955 879 949 q 388 827 510 949 q 260 521 266 705 l 260 521 m 1023 8 q 694 -87 879 -84 q 388 -3 524 -84 q 171 214 250 76 q 87 521 90 350 q 171 827 90 692 q 388 1044 250 966 q 694 1128 524 1126 q 1001 1044 865 1126 q 1218 827 1139 966 q 1302 521 1299 692 q 1153 122 1297 288 l 1283 -33 q 1302 -95 1305 -60 q 1270 -155 1299 -130 q 1207 -174 1242 -176 q 1147 -144 1172 -171 l 1023 8 l 1023 8 z "},"R":{"ha":868,"x_min":0,"x_max":868,"o":"m 87 1128 q 24 1104 49 1128 l 24 1104 q 0 1042 0 1080 l 0 434 l 0 0 q 24 -62 0 -38 q 87 -87 49 -87 q 149 -62 125 -87 q 174 0 174 -38 l 174 347 l 431 347 l 711 -49 q 765 -87 732 -79 q 830 -71 800 -92 q 868 -16 860 -49 q 852 49 873 19 l 624 374 q 800 518 732 420 q 868 738 865 613 q 754 1015 863 903 q 477 1128 643 1123 l 87 1128 l 87 1128 m 477 521 l 174 521 l 174 955 l 477 955 q 632 892 570 952 q 694 738 692 830 q 632 583 692 646 q 477 521 570 524 l 477 521 z "},"S":{"ha":1042,"x_min":84,"x_max":952,"o":"m 355 930 q 263 822 274 895 q 269 743 255 768 q 315 692 279 716 q 545 605 393 643 q 545 605 545 605 q 553 602 551 602 q 694 559 621 583 q 827 491 765 532 q 930 369 892 448 q 949 190 966 288 q 754 -49 911 16 q 418 -76 605 -109 l 418 -76 l 418 -76 q 301 -46 366 -68 q 182 -8 233 -27 q 155 0 165 -3 q 146 3 149 3 q 95 49 111 16 q 90 114 79 79 q 133 165 103 149 q 201 168 165 179 q 244 155 220 163 q 250 152 247 155 q 355 117 301 133 q 445 95 410 100 q 686 111 597 73 q 779 220 765 146 q 773 298 784 274 q 727 350 762 323 q 496 437 648 399 q 494 437 496 437 q 488 439 491 439 q 347 483 420 458 q 214 551 274 510 q 111 673 149 594 q 92 852 76 754 l 179 838 l 92 852 q 288 1088 130 1025 q 624 1118 437 1147 q 711 1101 654 1115 q 803 1082 770 1090 q 857 1042 838 1072 q 865 977 873 1012 q 825 922 854 941 q 760 914 795 906 q 678 930 732 922 q 597 947 624 941 l 610 1031 l 597 947 q 355 928 442 968 l 355 930 z "},"T":{"ha":1042,"x_min":0,"x_max":1042,"o":"m 87 1128 q 24 1104 49 1128 l 24 1104 q 0 1042 0 1080 q 24 979 0 1004 q 87 955 49 955 l 434 955 l 434 0 q 458 -62 434 -38 q 521 -87 483 -87 q 583 -62 559 -87 q 608 0 608 -38 l 608 955 l 955 955 q 1017 979 993 955 q 1042 1042 1042 1004 q 1017 1104 1042 1080 q 955 1128 993 1128 l 521 1128 l 87 1128 l 87 1128 z "},"U":{"ha":1042,"x_min":0,"x_max":1042,"o":"m 87 1128 q 149 1104 125 1128 l 149 1104 q 174 1042 174 1080 l 174 434 q 274 187 176 288 q 521 87 374 90 q 768 187 667 90 q 868 434 865 288 l 868 1042 q 892 1104 868 1080 q 955 1128 917 1128 q 1017 1104 993 1128 q 1042 1042 1042 1080 l 1042 434 q 890 65 1036 212 q 521 -87 743 -81 q 152 65 298 -81 q 0 434 5 212 l 0 1042 q 24 1104 0 1080 q 87 1128 49 1128 l 87 1128 z "},"V":{"ha":1215,"x_min":87,"x_max":1128,"o":"m 141 1120 q 206 1123 174 1134 l 206 1123 q 255 1074 239 1109 l 608 225 l 963 1074 q 1009 1123 977 1109 q 1074 1120 1042 1134 q 1123 1074 1109 1107 q 1123 1009 1134 1042 l 689 -33 q 608 -87 665 -84 q 529 -33 551 -84 l 95 1009 q 92 1074 81 1042 q 141 1123 106 1107 l 141 1120 z "},"W":{"ha":1563,"x_min":0,"x_max":1560,"o":"m 57 1123 q 122 1120 92 1134 l 122 1120 q 168 1072 155 1107 l 467 274 l 697 1066 q 781 1128 719 1126 q 865 1066 844 1126 l 1096 274 l 1394 1072 q 1440 1120 1408 1107 q 1506 1123 1470 1134 q 1554 1077 1541 1109 q 1557 1012 1568 1047 l 1166 -30 q 1082 -87 1142 -87 q 1001 -24 1020 -81 l 781 732 l 562 -24 q 480 -87 540 -81 q 396 -30 420 -87 l 5 1012 q 8 1077 -5 1047 q 57 1123 22 1109 l 57 1123 z "},"X":{"ha":1042,"x_min":0,"x_max":1042,"o":"m 1023 985 q 1042 1050 1044 1015 l 1042 1050 q 1012 1109 1039 1085 q 947 1128 982 1131 q 887 1096 911 1126 l 521 656 l 155 1096 q 95 1128 130 1126 q 33 1109 60 1131 q 0 1050 3 1085 q 19 985 -3 1015 l 407 521 l 19 54 q 0 -8 -3 27 q 33 -68 3 -43 q 95 -87 60 -90 q 155 -57 130 -84 l 521 385 l 887 -57 q 947 -87 911 -84 q 1012 -68 982 -90 q 1042 -8 1039 -43 q 1023 54 1044 27 l 635 521 l 1023 985 l 1023 985 z "},"Y":{"ha":1042,"x_min":0,"x_max":1042,"o":"m 157 1093 q 100 1128 136 1120 l 100 1128 q 35 1112 68 1134 q 0 1055 8 1090 q 16 990 -5 1023 l 434 407 l 434 0 q 458 -62 434 -38 q 521 -87 483 -87 q 583 -62 559 -87 q 608 0 608 -38 l 608 407 l 1025 990 q 1042 1055 1047 1023 q 1006 1112 1034 1090 q 941 1128 974 1134 q 884 1093 906 1120 l 521 583 l 157 1093 l 157 1093 z "},"Z":{"ha":1042,"x_min":0,"x_max":1042,"o":"m 0 1042 q 24 1104 0 1080 l 24 1104 q 87 1128 49 1128 l 955 1128 q 1034 1080 1009 1126 q 1023 985 1055 1028 l 271 87 l 955 87 q 1017 62 993 87 q 1042 0 1042 38 q 1017 -62 1042 -38 q 955 -87 993 -87 l 87 -87 q 8 -38 33 -84 q 19 54 -14 14 l 770 955 l 87 955 q 24 979 49 955 q 0 1042 0 1004 l 0 1042 z "},"":{"ha":1389,"x_min":33,"x_max":1354,"o":"m 353 868 q 353 868 353 868 l 353 868 l 353 868 m 1308 746 q 1248 846 1283 800 l 1248 846 q 1175 914 1210 895 q 1240 713 1229 800 q 1240 711 1240 713 q 1161 854 1207 795 q 1066 968 1118 914 q 936 1137 998 1042 q 903 1202 901 1196 q 901 1204 903 1204 l 901 1204 q 749 1055 806 1147 q 675 871 692 963 q 545 838 608 868 q 537 830 540 836 q 537 819 534 825 q 540 811 537 814 q 545 808 540 808 q 551 806 548 806 q 556 806 553 806 l 559 806 q 694 838 624 836 q 892 773 822 833 q 985 667 963 711 q 914 703 958 689 q 825 708 873 713 q 963 518 944 640 q 909 293 985 396 q 670 195 836 193 q 477 279 548 203 q 396 439 404 355 q 437 496 393 448 q 616 553 477 548 q 662 586 635 556 q 694 627 692 613 q 665 646 694 629 q 597 678 635 659 q 534 722 559 700 q 529 730 532 727 q 491 768 502 757 q 472 779 480 773 q 472 941 450 860 q 312 819 369 890 l 312 819 q 290 906 293 849 q 288 985 285 960 q 277 979 288 985 q 266 971 269 974 q 201 917 231 947 q 122 814 165 882 q 52 643 76 746 q 38 559 41 600 q 33 499 33 518 q 122 165 35 315 q 361 -71 212 16 q 694 -163 510 -160 q 1126 -3 944 -157 q 1345 388 1305 149 q 1343 627 1364 532 q 1308 743 1318 722 q 1308 746 1308 746 l 1308 746 z "},"":{"ha":1563,"x_min":87,"x_max":1495,"o":"m 342 768 q 225 700 260 762 l 225 700 q 225 567 190 637 q 342 499 269 499 q 456 567 412 499 q 475 632 475 597 q 434 727 472 689 q 342 768 396 765 l 342 768 m 233 60 l 448 60 l 448 442 l 233 442 l 233 60 m 646 635 q 629 686 643 673 l 629 686 q 594 694 613 697 l 556 694 l 556 570 l 594 570 q 629 581 613 570 q 646 635 643 594 l 646 635 m 1191 510 l 1191 757 l 1253 757 l 1253 570 l 1345 570 q 1251 827 1329 738 q 1053 949 1169 917 q 814 982 936 982 l 556 982 l 556 757 l 594 757 q 705 635 703 751 q 594 510 703 513 l 556 510 l 556 60 l 814 60 q 1226 184 1104 62 q 1345 510 1345 307 l 1191 510 m 895 510 l 741 510 l 741 757 l 890 757 l 890 694 l 803 694 l 803 667 l 884 667 l 884 605 l 803 605 l 803 570 l 895 570 l 895 510 m 1096 510 l 1082 556 l 1001 556 l 987 510 l 922 510 l 998 757 l 1085 757 l 1161 510 l 1096 510 m 814 1128 l 87 1128 l 87 -87 l 814 -87 q 1318 71 1145 -87 q 1495 524 1492 225 q 1449 781 1497 640 q 1253 1023 1400 920 q 814 1128 1104 1123 l 814 1128 m 814 -30 l 144 -30 l 144 1072 l 814 1072 q 1270 936 1104 1072 q 1438 524 1435 803 q 1275 111 1435 250 q 814 -30 1118 -30 l 814 -30 m 1042 689 l 1020 618 l 1063 618 l 1044 689 l 1042 689 z "},"":{"ha":1215,"x_min":5,"x_max":1210,"o":"m 1082 233 q 1210 575 1207 377 q 1034 966 1204 808 q 608 1128 865 1123 q 182 966 350 1123 q 5 575 11 808 q 182 182 11 339 q 608 19 350 24 q 822 57 719 19 q 846 49 836 60 q 1061 -87 925 -54 q 1077 -76 1072 -87 q 1074 -68 1077 -71 q 1025 84 1023 3 q 1085 233 1028 168 l 1082 233 m 895 640 l 738 521 l 795 334 q 773 312 798 312 q 768 315 770 312 l 608 426 l 448 315 q 420 328 426 307 q 420 334 420 331 l 477 521 l 320 640 q 326 670 307 656 q 331 670 328 670 l 526 675 l 591 860 q 621 865 602 879 q 624 860 624 863 l 689 675 l 884 670 q 898 643 906 667 q 895 640 898 640 l 895 640 z "},"":{"ha":1215,"x_min":0,"x_max":1215,"o":"m 87 79 l 0 -84 l 3 806 q 98 1034 5 941 q 326 1128 187 1126 l 1213 1128 q 838 947 1020 1066 q 524 670 656 825 q 285 374 385 510 q 87 79 187 239 l 87 79 m 1215 1128 q 1109 1072 1210 1128 l 1109 1072 q 892 914 1012 1015 l 892 914 q 711 675 776 811 q 659 529 681 605 q 605 374 635 448 q 518 244 572 301 q 323 133 431 174 q 231 92 277 114 q 111 16 182 65 q 0 -87 43 -33 l 892 -87 q 1120 8 1031 -84 q 1215 236 1213 100 q 1215 377 1215 244 q 1215 684 1215 507 q 1215 990 1215 857 q 1215 1128 1215 1120 l 1215 1128 z "},"":{"ha":1215,"x_min":0,"x_max":1215,"o":"m 662 966 l 879 841 q 879 819 890 830 l 621 667 q 597 667 608 662 l 336 819 q 336 841 326 830 l 553 966 l 553 1215 l 0 892 l 0 244 l 212 369 l 212 621 q 231 632 217 637 l 488 480 q 502 461 502 475 l 502 157 q 483 146 499 144 l 266 274 l 54 149 l 608 -174 l 1161 149 l 949 274 l 732 146 q 713 157 716 144 l 713 461 q 727 480 713 475 l 985 632 q 1004 621 998 637 l 1004 369 l 1215 244 l 1215 892 l 662 1215 l 662 966 l 662 966 z "},"":{"ha":1215,"x_min":0,"x_max":1215,"o":"m 811 491 q 746 507 781 507 q 654 472 692 507 q 618 382 618 437 q 654 288 618 323 q 743 250 689 250 q 836 288 800 250 q 873 382 873 326 q 857 445 873 415 q 811 491 841 475 l 811 491 m 0 1128 l 0 -87 l 1215 -87 l 1215 1128 l 0 1128 m 1017 117 l 873 117 l 873 182 l 871 182 q 719 109 827 109 q 586 146 646 109 q 496 241 529 182 q 467 380 467 304 q 496 515 467 456 q 586 613 529 578 q 716 648 646 648 q 798 635 760 648 q 865 589 833 621 l 865 800 l 1017 833 l 1017 117 z "},"":{"ha":1215,"x_min":0,"x_max":1215,"o":"m 608 665 q 483 594 521 662 l 483 594 q 483 448 442 526 q 608 377 529 377 q 732 448 686 377 q 751 521 751 483 q 711 624 751 583 q 608 665 670 665 l 608 665 m 947 776 q 863 860 922 836 q 760 876 825 873 q 637 876 692 879 q 608 876 621 876 q 578 876 594 876 q 456 876 521 879 q 353 860 391 873 q 269 776 293 836 q 252 673 255 738 q 252 551 250 605 q 252 521 252 534 q 252 491 252 507 q 252 372 250 437 q 269 266 255 304 q 353 182 293 206 q 456 165 391 168 q 578 165 524 163 q 608 165 594 165 q 637 165 621 165 q 760 165 694 163 q 863 182 825 168 q 947 266 922 206 q 963 369 960 304 q 963 491 966 434 q 963 521 963 507 q 963 551 963 534 q 963 673 966 608 q 947 776 960 738 l 947 776 m 608 298 q 415 410 475 307 l 415 410 q 415 632 355 513 q 608 743 488 743 q 800 632 727 743 q 830 521 830 581 q 765 363 827 426 q 608 298 703 301 l 608 298 m 838 700 q 795 727 808 703 l 795 727 q 795 779 781 751 q 838 806 811 806 q 884 779 868 806 q 892 751 890 768 q 838 700 887 705 l 838 700 m 1085 1128 l 130 1128 q 38 1090 76 1126 q 0 998 3 1053 l 0 43 q 38 -49 3 -11 q 130 -87 76 -84 l 1085 -87 q 1177 -49 1139 -84 q 1215 43 1213 -11 l 1215 998 q 1177 1090 1213 1053 q 1085 1128 1139 1126 l 1085 1128 m 1039 342 q 968 160 1039 236 q 787 90 892 90 q 678 87 749 87 q 537 87 608 87 q 429 90 467 87 q 247 160 323 90 q 176 342 176 236 q 174 450 174 380 q 174 591 174 521 q 176 700 174 662 q 247 882 176 806 q 429 952 323 952 q 537 955 467 955 q 678 955 608 955 q 787 952 749 955 q 968 882 892 952 q 1039 700 1039 806 q 1042 591 1042 662 q 1042 450 1042 521 q 1039 342 1042 380 l 1039 342 z "},"":{"ha":1389,"x_min":84,"x_max":1302,"o":"m 312 1009 q 222 1058 277 1053 l 222 1058 q 127 1025 171 1063 q 90 944 92 993 q 114 857 87 898 l 363 524 l 114 184 q 87 98 84 144 q 127 16 90 49 q 222 -16 168 -22 q 309 33 274 -11 l 659 502 q 659 543 670 521 l 312 1009 m 1275 184 l 1025 524 l 1275 857 q 1299 944 1302 898 q 1261 1025 1297 993 q 1166 1058 1218 1063 q 1077 1009 1112 1053 l 730 543 q 730 505 719 524 l 1080 33 q 1166 -16 1115 -11 q 1264 16 1221 -22 q 1302 98 1299 49 q 1275 184 1305 144 l 1275 184 z "},"":{"ha":1215,"x_min":14,"x_max":1202,"o":"m 1053 933 q 1042 944 1053 941 q 990 944 1031 944 q 941 947 947 947 q 909 977 939 949 q 860 1025 879 1004 l 860 -149 l 1202 -65 q 1177 90 1199 -57 q 1128 431 1156 236 q 1077 773 1099 627 q 1053 933 1055 922 l 1053 933 m 784 1025 q 762 1072 776 1050 q 643 1156 719 1156 q 632 1156 637 1156 q 629 1158 632 1156 q 627 1161 629 1158 q 545 1194 594 1196 q 361 1061 442 1188 q 290 871 304 966 q 160 830 168 836 q 127 817 133 825 q 117 781 119 808 q 100 646 117 765 q 65 377 84 529 q 30 111 46 225 q 14 -11 16 -3 l 836 -152 l 836 1036 q 822 1036 830 1036 q 784 1025 822 1036 l 784 1025 m 632 977 q 562 955 600 966 l 562 955 q 496 936 529 944 q 564 1072 518 1017 q 610 1107 583 1090 q 632 977 637 1039 l 632 977 m 545 1150 q 583 1139 564 1150 q 532 1101 556 1126 q 448 920 469 1025 q 334 884 388 901 q 410 1055 353 971 q 545 1150 467 1142 l 545 1150 m 418 551 q 486 483 426 513 l 486 483 q 570 418 529 458 l 570 418 q 616 304 610 377 q 572 146 621 206 q 439 79 524 87 q 288 111 339 79 q 233 149 233 144 q 233 149 233 149 l 263 269 q 307 241 266 266 q 393 217 347 217 q 434 239 420 220 q 445 271 445 255 q 377 358 434 328 q 315 412 345 380 q 279 507 285 448 q 336 684 271 608 q 534 773 399 760 q 616 768 589 776 q 643 760 643 762 l 600 605 q 570 613 600 605 q 499 621 543 624 q 429 589 439 616 q 418 551 415 564 l 418 551 m 675 990 q 656 1109 678 1044 q 713 1069 694 1099 q 741 1009 735 1036 q 675 990 713 1001 l 675 990 z "},"":{"ha":1563,"x_min":0,"x_max":1563,"o":"m 1223 551 l 1563 551 l 1563 749 l 1223 749 l 1223 551 m 1223 1023 l 1223 827 l 1563 827 l 1563 1023 l 1223 1023 m 1223 277 l 1563 277 l 1563 475 l 1223 475 l 1223 277 m 0 3 l 339 3 l 339 201 l 0 201 l 0 3 m 407 3 l 746 3 l 746 201 l 407 201 l 407 3 m 817 3 l 1156 3 l 1156 201 l 817 201 l 817 3 m 1223 3 l 1563 3 l 1563 201 l 1223 201 l 1223 3 m 817 277 l 1156 277 l 1156 475 l 817 475 l 817 277 m 407 277 l 746 277 l 746 475 l 407 475 l 407 277 m 407 551 l 746 551 l 746 749 l 407 749 l 407 551 z "},"":{"ha":1389,"x_min":71,"x_max":1318,"o":"m 71 597 l 71 597 q 71 597 71 597 l 71 597 m 1318 553 q 1240 887 1324 732 q 1017 1115 1156 1036 q 703 1194 876 1194 q 258 1012 418 1185 q 71 597 100 838 q 307 825 157 727 q 667 936 458 925 q 743 925 675 939 q 882 852 814 914 q 939 651 947 792 l 461 651 q 499 776 475 727 q 553 865 521 827 q 312 670 399 795 q 228 355 225 543 q 320 76 231 206 q 553 -111 410 -52 q 917 -144 732 -171 q 1204 -54 1101 -117 l 1204 231 q 917 133 1088 152 q 610 176 746 111 q 467 412 477 241 l 1318 412 l 1318 553 l 1318 553 z "},"":{"ha":1736,"x_min":0,"x_max":1736,"o":"m 288 632 l 288 521 l 442 521 q 385 431 431 464 q 288 404 345 404 q 187 437 231 404 q 125 524 144 472 q 125 635 109 581 l 125 635 q 187 722 144 689 q 288 754 231 754 q 396 711 350 757 l 477 795 q 288 871 399 871 q 136 827 203 868 q 30 711 68 784 q 30 450 -30 581 l 30 448 q 136 331 68 374 q 288 288 203 290 q 477 358 404 290 q 562 572 559 437 q 556 632 562 602 l 288 632 m 1343 643 q 1232 681 1302 681 q 1093 613 1139 681 l 1150 578 q 1234 624 1183 624 q 1297 600 1270 624 q 1324 543 1324 578 l 1324 526 q 1229 548 1286 548 q 1123 515 1161 548 q 1082 431 1082 486 q 1120 347 1082 380 q 1215 312 1158 312 q 1321 372 1280 312 l 1324 372 l 1324 323 l 1383 323 l 1383 537 q 1343 643 1383 605 l 1343 643 m 1291 401 q 1218 372 1261 372 q 1169 388 1191 369 q 1147 429 1147 404 q 1175 477 1147 458 q 1240 496 1199 496 q 1324 472 1294 496 q 1291 401 1324 431 l 1291 401 m 1036 787 q 928 830 990 830 l 757 830 l 757 323 l 822 323 l 822 529 l 928 529 q 1036 572 993 529 q 1039 575 1039 572 q 1044 581 1042 578 q 1082 684 1085 627 q 1036 787 1080 743 l 1036 787 m 993 616 q 928 591 966 591 l 822 591 l 822 768 l 928 768 q 990 743 963 768 q 1017 681 1015 716 q 993 618 1017 646 l 993 616 m 1666 670 l 1568 420 l 1565 420 l 1465 670 l 1394 670 l 1535 345 l 1457 171 l 1522 171 l 1736 670 l 1666 670 z "},"":{"ha":1389,"x_min":0,"x_max":1386,"o":"m 1381 537 l 1321 575 q 1318 591 1318 583 l 1370 637 q 1362 670 1383 659 l 1297 694 q 1297 697 1297 697 q 1294 711 1297 703 l 1335 768 q 1321 798 1345 789 l 1253 811 q 1251 811 1251 811 q 1245 825 1248 817 l 1272 887 q 1256 917 1280 911 l 1185 914 q 1175 925 1180 920 l 1191 993 q 1166 1017 1191 1017 l 1099 1001 q 1088 1012 1093 1006 l 1090 1080 q 1061 1099 1085 1107 l 998 1072 q 985 1077 990 1074 l 971 1147 q 941 1161 963 1172 l 884 1120 q 868 1123 876 1123 l 844 1188 q 811 1196 833 1210 l 765 1145 q 749 1147 757 1145 l 711 1207 q 678 1207 694 1223 l 640 1147 q 624 1145 632 1145 l 578 1196 q 545 1188 556 1210 l 521 1123 q 515 1123 518 1123 q 505 1120 510 1120 l 448 1161 q 418 1147 426 1172 l 404 1080 q 404 1077 404 1077 q 391 1072 399 1074 l 328 1099 q 298 1080 304 1107 l 301 1012 q 301 1009 301 1012 q 290 1001 296 1006 l 222 1017 q 198 993 198 1017 l 214 925 q 203 914 209 920 l 136 914 q 117 906 122 917 q 117 887 111 898 l 144 825 q 138 811 141 817 q 136 811 138 811 l 68 798 q 54 768 43 789 l 95 711 q 92 697 95 705 q 92 694 92 697 l 27 670 q 19 637 5 659 l 71 591 q 68 575 71 583 l 8 537 q 8 505 -8 521 l 68 467 q 71 450 71 458 l 19 404 q 27 372 5 382 l 92 347 q 92 342 92 345 q 95 331 95 336 l 54 274 q 68 244 43 252 l 136 231 q 138 231 138 231 q 144 217 141 222 l 117 155 q 117 136 111 144 q 136 125 122 125 l 203 127 q 214 117 209 122 l 198 49 q 222 24 198 24 l 290 41 q 301 30 296 35 l 298 -41 q 328 -57 304 -65 l 391 -30 q 404 -35 396 -33 q 404 -38 404 -35 l 418 -106 q 448 -119 426 -130 l 505 -79 q 515 -81 510 -79 q 521 -81 518 -81 l 545 -146 q 578 -155 556 -168 l 624 -103 q 640 -106 632 -103 q 640 -106 640 -106 l 678 -163 q 711 -163 694 -182 l 749 -106 q 765 -103 757 -103 l 811 -155 q 844 -146 833 -168 l 868 -81 q 873 -81 871 -81 q 884 -79 879 -79 l 941 -119 q 971 -106 963 -130 l 985 -38 q 987 -35 985 -35 q 998 -30 993 -33 l 1061 -57 q 1090 -41 1085 -65 l 1088 30 q 1099 41 1093 35 l 1166 24 q 1191 49 1191 24 l 1175 117 q 1185 127 1180 122 l 1256 125 q 1272 136 1267 125 q 1272 155 1278 144 l 1245 217 q 1251 228 1248 222 q 1253 231 1251 231 l 1321 244 q 1335 274 1345 252 l 1294 331 q 1297 347 1297 339 l 1362 372 q 1370 404 1383 382 l 1318 450 q 1321 467 1318 458 l 1378 505 q 1378 537 1397 521 l 1381 537 m 971 187 q 925 157 936 193 l 903 62 q 692 16 803 16 q 480 65 583 16 l 458 160 q 415 190 450 193 l 328 171 q 285 222 307 195 l 700 222 q 708 228 708 222 l 708 374 q 700 380 708 382 l 578 380 l 581 475 l 711 475 q 749 464 722 475 q 792 404 776 453 q 800 369 795 391 q 817 296 808 323 q 844 250 822 274 q 890 222 863 225 l 1104 222 q 1058 168 1082 195 l 971 187 m 1039 95 q 1020 57 1039 71 l 1020 57 q 977 57 1001 46 q 958 95 958 71 q 977 130 958 117 q 998 136 987 136 l 998 136 q 1039 95 1036 130 l 1039 95 m 429 95 q 407 60 426 71 l 407 60 q 366 60 388 49 q 345 95 345 73 q 366 133 345 119 q 385 138 374 138 l 388 138 q 429 95 423 133 l 429 95 m 190 581 l 277 618 q 296 670 309 637 l 279 711 l 350 711 l 350 385 l 206 385 q 190 581 179 480 l 190 581 m 157 678 q 201 719 163 716 l 201 719 q 236 697 225 716 q 236 656 247 678 q 198 637 220 635 q 163 659 176 637 q 157 678 157 667 l 157 678 m 578 610 l 581 708 l 751 708 q 787 697 760 708 q 814 656 811 686 q 789 621 811 632 q 738 610 765 610 l 578 610 m 1082 382 q 1023 410 1036 382 q 993 499 1012 472 q 941 548 971 526 q 939 551 941 548 q 1012 610 979 575 q 1044 694 1042 646 q 1017 779 1042 746 q 963 830 990 814 q 898 857 928 852 q 854 865 865 865 l 315 865 q 600 1025 431 993 l 665 958 q 716 958 689 936 l 789 1025 q 990 939 901 1004 q 1137 776 1080 876 l 1088 667 q 1107 618 1077 635 l 1202 575 q 1202 488 1204 532 l 1150 488 q 1142 480 1142 488 l 1142 456 q 1123 399 1142 415 q 1082 382 1104 385 l 1082 382 m 651 1053 q 692 1093 654 1090 l 694 1093 q 730 1072 719 1090 q 727 1031 741 1053 q 692 1012 713 1009 q 656 1034 670 1012 q 651 1053 651 1042 l 651 1053 m 1185 635 q 1150 656 1161 635 l 1150 656 q 1150 697 1139 675 q 1185 716 1161 716 l 1185 716 q 1221 697 1210 716 q 1221 654 1232 675 q 1185 635 1207 635 l 1185 635 z "},"":{"ha":1215,"x_min":0,"x_max":1215,"o":"m 1215 646 q 882 751 1031 646 l 882 269 q 776 -19 879 95 q 524 -165 673 -136 q 220 -114 372 -195 q 24 122 73 -24 q 24 415 -24 269 q 220 648 73 559 q 502 705 353 724 l 502 461 q 304 418 385 491 q 244 222 222 342 q 380 73 277 109 q 578 119 486 41 q 643 269 643 179 l 643 1215 l 882 1215 q 887 1156 882 1185 l 887 1156 q 1034 939 917 1017 q 1215 882 1118 884 l 1215 646 z "},"":{"ha":1215,"x_min":0,"x_max":1215,"o":"m 1215 591 l 1215 -87 l 0 -87 l 0 591 l 382 591 l 382 252 l 833 252 l 833 591 l 1215 591 m 833 1128 l 382 1128 l 382 789 l 833 789 l 833 1128 z "},"":{"ha":1736,"x_min":0,"x_max":1736,"o":"m 1107 347 l 480 355 q 469 361 475 355 q 469 372 467 366 q 483 382 472 382 l 1115 391 q 1226 434 1175 396 q 1299 529 1278 472 l 1337 621 q 1337 629 1337 627 q 1337 635 1337 632 q 1180 873 1297 789 q 920 955 1063 958 q 654 844 776 952 q 545 678 581 773 q 363 700 456 738 q 252 553 271 662 q 255 483 247 518 q 73 404 146 477 q 0 222 3 331 q 3 184 0 203 q 14 174 5 174 l 1172 174 q 1172 174 1172 174 q 1172 174 1172 174 q 1185 184 1183 174 l 1194 214 q 1183 309 1210 271 q 1107 347 1158 345 l 1107 347 m 1394 616 q 1375 616 1386 616 q 1367 608 1370 613 l 1343 524 q 1354 429 1326 467 q 1430 391 1381 393 l 1565 382 q 1573 377 1571 382 q 1576 366 1576 372 q 1560 355 1571 355 l 1421 347 q 1313 304 1364 345 q 1237 209 1261 266 l 1226 184 q 1234 174 1226 176 q 1234 174 1234 174 q 1234 174 1234 174 l 1712 174 q 1723 182 1720 174 q 1736 274 1736 228 q 1636 515 1733 420 q 1394 616 1538 613 l 1394 616 z "},"":{"ha":1215,"x_min":14,"x_max":1202,"o":"m 1202 1042 l 14 1042 q 49 678 14 830 q 130 439 84 526 q 331 171 220 266 q 524 38 442 76 q 610 0 605 -3 q 993 279 841 87 q 1096 453 1047 350 q 1172 675 1145 556 l 467 675 q 589 439 488 524 l 830 439 q 735 334 792 382 q 610 252 678 282 q 475 347 545 279 q 350 518 407 412 q 285 716 296 632 q 274 806 274 800 q 274 806 274 806 l 1188 806 q 1202 1042 1204 922 l 1202 1042 z "},"":{"ha":1389,"x_min":0,"x_max":1389,"o":"m 705 524 l 358 1126 q 347 1126 353 1131 q 347 1126 347 1126 l 0 524 q 0 518 0 521 l 350 -84 q 361 -84 355 -90 q 361 -84 361 -84 q 361 -84 361 -84 l 705 518 q 705 524 708 521 l 705 524 m 811 594 q 817 591 814 591 l 998 591 q 1004 600 1006 591 l 703 1126 q 697 1128 700 1128 l 518 1128 q 513 1120 510 1126 l 811 594 m 1389 524 l 1044 1126 q 1039 1128 1042 1128 l 857 1128 q 852 1120 852 1126 l 1196 521 l 852 -79 q 857 -87 852 -84 l 1039 -87 q 1044 -84 1042 -87 l 1389 518 q 1389 524 1389 521 l 1389 524 m 993 442 l 814 442 q 808 439 808 442 l 513 -79 q 518 -87 510 -84 l 697 -87 q 703 -84 700 -87 l 998 434 q 993 442 1001 442 l 993 442 z "},"":{"ha":1736,"x_min":0,"x_max":1736,"o":"m 868 955 l 868 87 q 1034 119 955 87 q 1175 214 1115 152 q 1270 355 1237 274 q 1302 521 1302 434 q 1270 686 1302 608 q 1175 827 1237 768 q 1034 922 1115 890 q 868 955 955 955 l 868 955 m 0 521 l 434 87 l 868 521 l 434 955 l 0 521 l 0 521 m 1302 521 q 1335 355 1302 434 q 1430 214 1367 274 q 1571 119 1489 152 q 1736 87 1649 87 l 1736 955 q 1430 827 1557 952 q 1302 521 1305 700 l 1302 521 z "},"":{"ha":1389,"x_min":19,"x_max":1370,"o":"m 415 -87 l 1050 -87 l 1364 467 l 553 312 l 415 -87 m 1370 564 l 1050 1128 l 423 1128 l 977 488 l 1370 564 m 336 1082 l 19 521 l 334 -35 l 613 765 l 336 1082 z "},"":{"ha":1389,"x_min":35,"x_max":1351,"o":"m 1237 269 q 1147 431 1147 347 l 1147 431 q 1194 616 1147 515 q 1210 854 1240 735 q 1099 1063 1180 974 q 895 1194 1015 1156 q 524 1169 700 1248 q 271 898 347 1088 q 241 697 236 800 q 285 540 250 613 q 307 480 296 510 q 271 296 336 377 q 125 160 209 212 q 38 76 33 100 q 103 49 43 52 q 279 90 195 43 q 290 95 285 92 q 355 127 320 109 q 401 165 391 149 q 391 144 396 155 q 339 16 363 87 q 345 -111 317 -54 q 415 -130 372 -157 q 496 -57 458 -106 q 551 14 537 -11 q 564 35 556 22 q 640 141 594 87 q 724 141 686 193 q 762 14 754 84 q 822 -144 768 -76 q 898 -168 865 -187 q 944 -106 928 -152 q 960 -24 960 -62 q 960 -3 960 -16 q 960 84 958 35 q 982 157 963 133 q 1042 138 998 179 q 1085 92 1061 119 q 1175 -3 1126 41 q 1283 -43 1226 -46 q 1305 30 1337 -30 q 1229 141 1270 92 q 1204 171 1210 163 q 1251 144 1215 163 q 1316 119 1283 125 q 1351 146 1348 114 q 1324 201 1351 174 q 1267 247 1297 225 q 1237 269 1248 258 l 1237 269 z "},"":{"ha":1215,"x_min":0,"x_max":1215,"o":"m 827 442 l 670 442 l 670 176 l 827 176 q 933 212 895 176 q 968 312 968 250 q 930 407 968 369 q 827 442 892 442 l 827 442 m 404 865 l 247 865 l 247 600 l 404 600 q 510 635 472 600 q 545 732 545 673 q 507 830 545 792 q 404 865 469 865 l 404 865 m 996 1128 l 220 1128 q 65 1063 127 1126 q 0 909 3 1001 l 0 133 q 65 -22 3 41 q 220 -87 127 -84 l 996 -87 q 1150 -22 1088 -84 q 1215 133 1213 41 l 1215 909 q 1150 1063 1213 1001 q 996 1128 1088 1126 l 996 1128 m 1166 133 q 1118 11 1166 60 l 1118 11 q 996 -38 1069 -38 l 220 -38 q 98 11 146 -38 q 49 133 49 60 l 49 909 q 98 1031 49 982 q 220 1080 146 1080 l 996 1080 q 1118 1031 1069 1080 q 1166 909 1166 982 l 1166 133 m 827 865 l 670 865 l 670 600 l 827 600 q 933 635 895 600 q 968 732 968 673 q 930 830 968 792 q 827 865 892 865 l 827 865 z "},"":{"ha":1215,"x_min":33,"x_max":1183,"o":"m 467 583 q 480 591 475 583 q 521 662 488 632 q 524 673 524 665 q 518 681 524 678 l 201 868 l 404 985 q 418 1006 418 993 q 404 1031 418 1023 l 345 1063 q 317 1063 331 1072 l 46 906 q 33 884 33 901 l 33 572 q 46 551 33 556 l 106 515 q 119 513 114 513 q 138 518 130 513 q 146 537 146 526 l 146 768 l 461 586 q 467 583 464 583 l 467 583 m 876 190 q 863 187 871 190 l 662 71 l 662 434 q 646 448 659 450 q 567 445 605 434 q 548 434 551 448 l 548 71 l 347 187 q 334 193 342 193 q 307 165 309 190 l 307 95 q 320 73 307 81 l 594 -84 q 605 -87 600 -87 q 618 -84 613 -87 l 892 73 q 906 95 903 81 l 906 165 q 876 190 901 187 l 876 190 m 776 1004 q 830 1034 814 1006 l 830 1034 q 830 1096 846 1063 q 776 1128 808 1128 q 722 1096 743 1128 q 713 1066 713 1082 q 776 1004 719 1009 l 776 1004 m 949 1031 q 895 1001 911 1028 l 895 1001 q 895 939 876 971 q 949 906 914 906 q 1004 939 982 906 q 1012 968 1012 952 q 949 1031 1006 1025 l 949 1031 m 1120 803 q 1175 836 1158 806 l 1175 836 q 1175 898 1191 865 q 1120 928 1153 928 q 1066 898 1085 928 q 1058 865 1058 884 q 1120 803 1063 808 l 1120 803 m 949 830 q 895 798 911 827 l 895 798 q 895 735 876 768 q 949 705 914 705 q 1004 735 982 705 q 1012 768 1012 749 q 949 830 1006 825 l 949 830 m 776 602 q 830 635 814 605 l 830 635 q 830 697 846 665 q 776 727 808 727 q 722 697 743 727 q 713 665 713 684 q 776 602 719 608 l 776 602 m 608 505 q 662 534 646 507 l 662 534 q 662 597 678 564 q 608 629 640 629 q 553 597 572 629 q 545 567 545 583 q 608 505 551 510 l 608 505 m 1120 727 q 1066 697 1082 727 l 1066 697 q 1066 635 1050 667 q 1120 602 1085 602 q 1175 635 1153 602 q 1183 665 1183 648 q 1120 727 1177 722 l 1120 727 m 1120 532 q 1066 502 1082 529 l 1066 502 q 1066 439 1050 472 q 1120 407 1085 407 q 1175 439 1153 407 q 1183 469 1183 453 q 1120 532 1177 526 l 1120 532 z "},"":{"ha":1389,"x_min":43,"x_max":1345,"o":"m 694 1172 q 366 1082 513 1169 l 366 1082 q 133 849 220 996 l 133 849 q 43 521 46 703 q 133 193 46 339 q 366 -41 220 46 q 694 -130 513 -127 q 1023 -41 876 -127 q 1256 193 1169 46 q 1345 521 1343 339 q 1256 849 1343 703 q 1023 1082 1169 996 q 694 1172 876 1169 l 694 1172 m 331 52 q 163 255 222 133 l 163 255 q 100 521 100 377 q 125 694 100 610 l 404 743 l 404 713 l 366 708 q 366 689 366 705 q 366 654 366 670 q 380 627 366 637 l 404 608 l 331 52 m 616 819 l 640 841 q 646 849 643 841 q 640 865 651 857 q 578 917 621 879 q 532 960 537 955 q 532 960 532 960 q 491 960 515 985 q 445 917 486 955 q 382 865 401 879 q 374 849 372 857 q 382 841 380 841 l 407 819 l 404 808 l 206 860 q 415 1044 288 977 q 694 1115 543 1115 q 941 1063 825 1115 q 1142 911 1055 1009 l 616 811 l 616 819 m 708 -73 l 618 608 l 643 627 q 656 654 656 637 q 656 689 656 670 q 656 708 656 705 l 618 713 l 618 743 l 1272 656 q 1289 521 1289 589 q 1120 106 1283 271 q 708 -73 955 -62 l 708 -73 z "},"":{"ha":1736,"x_min":0,"x_max":1736,"o":"m 483 293 l 382 293 l 304 610 l 304 610 l 225 293 l 122 293 l 0 757 l 103 757 l 176 442 l 176 442 l 258 757 l 353 757 l 431 437 l 434 437 l 510 757 l 608 757 l 483 293 m 735 637 q 863 589 817 637 l 863 589 q 911 461 909 543 q 863 334 909 380 q 735 285 817 285 q 610 334 656 285 q 564 461 564 380 q 610 589 564 543 q 735 637 656 637 l 735 637 m 735 355 q 800 388 784 355 l 800 388 q 819 461 819 420 q 800 534 819 505 q 735 570 784 567 q 667 534 681 567 q 656 461 654 505 q 673 388 654 420 q 735 355 689 355 l 735 355 m 1180 336 l 1180 336 q 1077 285 1145 282 q 963 339 1001 288 q 928 464 928 393 q 963 586 928 534 q 1074 637 1001 635 q 1175 589 1139 637 l 1175 589 l 1175 757 l 1267 757 l 1267 293 l 1180 293 l 1180 336 m 1099 570 q 1036 537 1055 567 l 1036 537 q 1020 461 1017 505 q 1039 388 1017 420 q 1099 355 1058 355 q 1161 388 1145 355 q 1180 461 1180 420 q 1161 537 1180 505 q 1099 570 1145 567 l 1099 570 m 1609 293 l 1522 293 l 1522 342 l 1519 342 q 1416 285 1478 285 q 1318 323 1345 285 q 1294 423 1291 361 l 1294 629 l 1386 629 l 1386 439 q 1446 358 1383 358 q 1516 453 1519 355 l 1516 629 l 1609 629 l 1609 293 m 1633 393 l 1736 393 l 1736 293 l 1633 293 l 1633 393 z "},"":{"ha":1042,"x_min":0,"x_max":1042,"o":"m 174 157 l 418 521 l 174 884 l 174 157 l 174 157 m 279 0 l 765 0 l 521 363 l 279 0 l 279 0 m 627 521 l 868 157 l 868 884 l 627 521 l 627 521 m 765 1042 l 279 1042 l 521 678 l 765 1042 l 765 1042 m 0 1085 q 38 1177 3 1139 l 38 1177 q 130 1215 76 1213 l 911 1215 q 1004 1177 966 1213 q 1042 1085 1039 1139 l 1042 -43 q 1004 -136 1039 -98 q 911 -174 966 -171 l 130 -174 q 38 -136 76 -171 q 0 -43 3 -98 l 0 1085 l 0 1085 z "},"":{"ha":1389,"x_min":138,"x_max":1253,"o":"m 138 -87 l 363 -87 l 363 217 l 138 90 l 138 -87 m 1031 -87 l 1253 -87 l 1253 90 l 1031 217 l 1031 -87 m 1031 1128 l 1031 532 l 694 730 l 366 532 l 366 1128 l 138 1128 l 138 149 l 694 483 l 1253 149 l 1253 1128 l 1031 1128 z "},"":{"ha":1736,"x_min":0,"x_max":1736,"o":"m 233 678 q 122 624 165 678 l 122 792 q 100 814 119 811 l 22 814 q 0 792 3 811 l 0 309 q 22 288 3 290 l 100 288 q 122 309 119 290 l 122 334 q 233 279 171 279 q 353 331 307 279 q 401 480 401 382 q 353 627 401 572 q 233 678 307 678 l 233 678 m 195 385 q 122 420 149 388 l 122 537 q 195 572 149 570 q 279 480 271 567 q 195 385 271 391 l 195 385 m 618 545 q 578 524 591 545 l 578 524 q 578 475 564 499 q 618 453 591 453 q 659 475 643 453 q 665 499 665 486 q 618 545 662 543 l 618 545 m 743 789 l 743 911 q 765 941 762 920 q 751 974 768 960 q 716 979 732 985 q 694 949 697 971 q 716 911 692 922 l 716 789 q 529 711 602 781 q 439 540 456 640 q 483 342 426 439 q 646 220 548 247 q 838 228 743 193 q 987 366 933 266 q 1015 556 1036 461 q 922 716 996 651 q 743 789 852 784 l 743 789 m 977 499 q 903 393 974 434 l 903 393 q 730 350 836 350 q 553 393 624 350 q 483 499 486 434 q 553 605 486 562 q 730 648 624 648 q 903 605 836 648 q 977 499 974 562 l 977 499 m 841 453 q 882 475 868 453 l 882 475 q 882 524 895 496 q 841 545 865 545 q 800 524 814 545 q 792 499 792 513 l 792 499 q 841 453 798 456 l 841 453 m 1576 537 q 1573 537 1573 537 l 1573 537 q 1514 562 1514 543 q 1563 589 1516 589 q 1657 562 1614 589 q 1687 570 1674 553 q 1687 570 1687 570 l 1712 610 q 1704 640 1720 629 q 1563 678 1638 678 q 1440 640 1481 678 q 1400 553 1400 605 q 1451 458 1402 483 q 1554 429 1503 434 q 1619 399 1614 423 q 1568 369 1622 372 q 1454 407 1508 374 q 1421 401 1435 418 q 1421 399 1421 399 l 1394 355 q 1402 323 1386 336 q 1563 279 1468 279 q 1690 315 1647 279 q 1736 404 1736 350 q 1682 505 1733 477 q 1579 534 1630 529 q 1576 537 1576 534 l 1576 537 m 1316 372 q 1289 388 1308 388 q 1278 385 1283 385 q 1245 426 1245 388 l 1245 564 l 1299 564 q 1321 586 1318 564 l 1321 648 q 1299 670 1318 667 l 1245 670 l 1245 751 q 1221 773 1242 770 l 1145 773 q 1123 751 1126 770 l 1123 751 l 1123 670 l 1082 670 q 1061 648 1063 667 l 1061 648 l 1061 586 q 1082 564 1063 564 l 1123 564 l 1123 391 q 1242 279 1126 279 q 1318 293 1291 279 q 1329 317 1332 301 l 1316 372 z "},"":{"ha":1736,"x_min":0,"x_max":1736,"o":"m 613 163 q 608 171 613 168 q 602 174 605 174 l 198 174 q 155 195 168 174 q 149 244 138 217 l 222 521 q 309 591 241 586 l 713 591 q 730 608 724 594 l 760 719 q 751 732 762 727 q 749 732 751 732 q 749 732 749 732 l 345 732 q 182 670 252 727 q 81 524 109 613 l 8 241 q 27 100 -16 163 q 155 33 73 35 q 163 33 160 33 l 567 33 q 583 46 581 35 l 613 157 q 613 163 613 160 l 613 163 m 833 996 q 833 998 833 996 q 822 1009 833 1009 q 822 1009 822 1009 q 822 1009 822 1009 l 711 1009 q 694 996 697 1006 l 635 776 l 773 776 l 833 996 m 488 217 l 629 217 l 713 548 l 575 548 l 488 217 m 1389 998 q 1378 1009 1386 1009 q 1378 1009 1378 1009 l 1267 1009 q 1248 996 1253 1009 l 1001 46 q 1001 43 1001 46 q 1012 33 1001 35 q 1012 33 1012 33 l 1123 33 q 1139 46 1137 35 l 1389 996 q 1389 998 1389 998 l 1389 998 m 882 174 l 770 174 q 751 157 757 171 l 724 46 q 722 43 722 46 q 732 33 724 33 q 732 33 732 33 l 844 33 q 863 46 857 35 l 890 157 q 882 174 892 171 q 882 174 882 174 l 882 174 m 1725 1009 l 1614 1009 q 1598 996 1600 1006 l 1348 46 q 1348 43 1348 46 q 1359 33 1348 35 q 1359 33 1359 33 q 1359 33 1359 33 l 1470 33 q 1487 46 1484 35 l 1736 996 q 1736 998 1736 998 q 1725 1009 1733 1009 q 1725 1009 1725 1009 l 1725 1009 m 1009 605 l 1036 716 q 1039 719 1039 719 q 1028 730 1036 730 q 1028 730 1028 730 l 914 730 q 898 716 903 727 l 868 605 q 868 600 868 602 q 868 600 868 600 q 868 600 868 600 q 879 591 868 591 q 879 591 879 591 l 990 591 q 1009 605 1004 591 l 1009 605 z "},"":{"ha":1389,"x_min":0,"x_max":1389,"o":"m 1326 933 q 1389 754 1394 860 l 1389 206 q 1316 30 1386 98 q 1139 -43 1248 -41 l 250 -43 q 73 30 141 -41 q 0 217 3 100 l 0 754 q 73 933 3 860 q 250 1004 141 1001 l 328 1004 l 260 1074 q 236 1134 236 1096 q 260 1191 236 1169 q 320 1215 285 1215 q 380 1191 355 1215 l 578 1004 l 817 1004 l 1020 1191 q 1080 1215 1044 1215 q 1139 1191 1115 1215 q 1164 1134 1161 1169 q 1139 1074 1161 1096 l 1072 1004 l 1150 1004 q 1326 933 1259 1001 l 1326 933 l 1326 933 m 1221 743 q 1191 808 1218 784 q 1128 833 1166 833 l 260 833 q 195 808 222 833 q 171 743 171 784 l 171 217 q 195 152 171 179 q 260 125 222 127 l 1128 125 q 1194 152 1166 127 q 1221 217 1218 179 l 1221 743 l 1221 743 m 505 627 q 532 564 529 602 l 532 475 q 505 412 529 437 q 439 385 480 385 q 377 412 401 385 q 350 475 350 437 l 350 564 q 377 627 350 602 q 439 654 401 654 q 505 627 477 654 l 505 627 l 505 627 m 1023 627 q 1050 564 1047 602 l 1050 475 q 1023 412 1047 437 q 960 385 998 385 q 895 412 920 385 q 868 475 868 437 l 868 564 q 895 627 871 602 q 960 654 922 654 q 1023 627 998 654 l 1023 627 l 1023 627 z "},"":{"ha":1736,"x_min":0,"x_max":1736,"o":"m 1085 686 q 1058 681 1072 684 l 1058 681 q 1006 667 1031 675 q 979 659 993 662 q 944 648 963 654 l 941 648 q 920 659 930 643 q 879 689 903 678 q 727 678 798 727 q 640 518 640 621 q 673 429 640 464 q 751 385 703 393 q 898 439 841 374 q 914 461 906 450 l 914 461 l 914 461 q 920 469 917 467 q 920 472 920 469 l 757 472 q 741 496 732 472 q 762 545 751 518 q 784 589 776 572 q 803 605 787 600 l 1077 605 q 1137 713 1096 659 q 1373 854 1223 830 q 1614 811 1503 882 q 1733 621 1714 743 q 1633 336 1755 453 q 1432 228 1552 250 q 1389 222 1411 222 q 1389 222 1389 222 q 1364 220 1375 220 q 1364 220 1364 220 q 1158 293 1248 220 q 1074 426 1096 347 q 1036 369 1061 396 q 798 225 949 247 q 570 279 673 206 q 464 467 477 350 q 534 716 450 608 q 773 863 627 836 q 996 819 892 890 q 1093 700 1063 776 q 1085 686 1101 689 l 1085 686 m 130 673 q 127 675 125 673 l 146 700 q 155 703 149 703 l 458 703 q 461 697 461 703 l 445 675 q 437 670 442 670 l 130 673 l 130 673 m 3 594 q 0 597 -3 594 l 19 621 q 27 624 22 624 l 412 624 q 418 621 418 624 l 410 600 q 404 594 410 594 l 3 594 l 3 594 m 206 521 q 209 515 203 518 l 393 515 q 399 521 396 515 l 399 543 q 396 548 399 548 l 225 548 q 217 543 220 548 l 206 521 l 206 521 m 1565 570 q 1565 575 1565 572 l 1565 575 q 1565 589 1565 581 q 1503 684 1552 654 q 1392 700 1454 713 q 1242 553 1272 675 q 1253 458 1232 505 q 1321 393 1275 415 q 1459 399 1392 363 q 1565 562 1560 453 q 1565 564 1565 564 q 1565 570 1565 567 l 1565 570 z "},"":{"ha":1389,"x_min":0,"x_max":1386,"o":"m 656 420 q 713 420 684 445 l 922 212 q 1066 152 982 155 l 1107 152 l 844 -111 q 694 -171 779 -171 q 545 -111 610 -171 l 279 155 l 307 155 q 450 214 388 155 l 656 420 l 656 420 m 713 621 q 656 621 684 600 l 450 830 q 307 890 391 890 l 279 890 l 545 1153 q 694 1215 610 1215 q 844 1153 779 1215 l 1107 890 l 1066 890 q 922 830 982 890 l 713 621 l 713 621 m 307 827 q 407 787 363 827 l 613 578 q 686 548 646 551 q 757 578 724 551 l 966 787 q 1066 827 1006 827 l 1166 827 l 1326 670 q 1386 521 1386 605 q 1326 372 1386 437 l 1166 214 l 1066 214 q 966 255 1006 214 l 757 464 q 684 494 724 494 q 613 464 643 494 l 407 258 q 307 214 363 217 l 220 214 l 62 372 q 0 521 0 437 q 62 670 0 605 l 220 827 l 307 827 l 307 827 z "},"":{"ha":1215,"x_min":0,"x_max":1215,"o":"m 575 1215 l 575 1215 l 1215 1215 l 1215 868 l 174 868 q 304 1112 182 1015 q 575 1215 426 1210 l 575 1215 m 643 694 l 643 694 q 914 591 792 689 q 1042 347 1034 494 l 572 347 l 572 347 q 301 450 423 353 q 174 694 182 548 l 643 694 l 643 694 m 640 -174 q 911 -71 789 -168 l 911 -71 q 1042 174 1034 27 l 0 174 l 0 -174 l 640 -174 l 640 -174 l 640 -174 z "},"":{"ha":1389,"x_min":0,"x_max":1389,"o":"m 95 751 q 0 521 0 651 l 0 521 q 95 290 0 391 l 464 -79 q 694 -174 564 -174 q 925 -79 825 -174 l 1294 290 q 1389 521 1389 391 q 1294 751 1389 651 l 925 1120 q 694 1215 825 1215 q 464 1120 564 1215 l 95 751 l 95 751 m 857 358 q 694 293 787 293 l 694 293 q 534 358 602 293 q 467 521 467 429 q 534 681 467 613 q 694 749 602 749 q 857 681 787 749 q 922 521 922 613 q 857 358 922 429 l 857 358 z "},"":{"ha":1736,"x_min":0,"x_max":1736,"o":"m 1736 353 q 1657 60 1736 165 l 1657 60 q 1438 -49 1581 -49 q 1223 33 1316 -52 q 1012 320 1131 117 l 925 464 q 890 524 906 494 q 868 559 879 543 q 784 412 825 486 q 741 334 743 339 q 741 334 741 334 q 513 22 608 100 q 315 -49 418 -57 q 84 57 165 -49 q 0 345 0 163 q 68 713 3 543 q 244 990 133 884 q 499 1101 355 1096 q 694 1044 600 1101 q 892 857 789 987 q 1053 1031 966 963 q 1245 1101 1139 1099 q 1492 996 1381 1099 q 1668 727 1603 895 q 1736 353 1733 559 l 1736 353 l 1736 353 m 779 694 q 629 865 694 819 l 629 865 q 496 911 562 914 q 342 827 412 909 q 231 616 271 746 q 187 342 190 486 q 323 138 193 141 q 437 193 380 133 q 602 418 496 250 q 648 494 602 420 q 779 694 697 567 l 779 694 l 779 694 m 1440 138 q 1568 339 1571 144 q 1470 773 1565 600 q 1234 952 1378 944 q 977 741 1107 952 q 1055 616 1015 684 l 1158 448 q 1326 198 1272 260 q 1440 138 1383 133 l 1440 138 l 1440 138 z "},"":{"ha":1736,"x_min":0,"x_max":1736,"o":"m 808 1215 l 808 1215 q 857 1183 841 1213 l 1215 347 l 1215 347 l 1215 345 l 1207 317 l 1090 -111 q 1055 -160 1082 -144 q 996 -171 1028 -179 l 808 -130 l 624 -171 q 562 -160 589 -179 q 526 -111 534 -144 l 410 317 l 401 345 l 401 347 l 760 1183 q 808 1215 776 1213 l 808 1215 l 808 1215 m 434 342 l 789 236 l 808 -98 l 830 233 l 1185 339 l 1185 339 l 830 271 l 806 1139 l 792 271 l 434 342 l 434 342 m 1156 610 l 1411 722 l 1611 722 l 1185 52 l 1272 347 l 1156 610 l 1156 610 m 1622 724 l 1733 515 q 1728 488 1742 499 q 1701 483 1717 477 l 1573 545 l 1622 724 l 1622 724 m 345 350 l 431 49 l 5 795 q 8 836 -5 819 q 49 841 24 849 l 458 610 l 345 350 l 345 350 z "},"":{"ha":1389,"x_min":0,"x_max":1386,"o":"m 575 -111 q 578 -133 581 -122 q 564 -152 575 -146 q 543 -157 553 -160 q 130 117 285 -95 q 5 597 -22 334 q 231 1039 35 860 q 694 1215 431 1213 q 703 1213 697 1215 q 705 1213 705 1213 q 711 1210 708 1213 q 716 1207 713 1207 q 724 1196 722 1202 q 724 1185 724 1191 l 724 911 l 792 982 q 800 987 795 985 q 814 990 806 990 q 825 987 819 990 q 836 982 830 987 q 841 971 838 979 q 844 960 844 966 q 844 949 844 955 q 836 939 841 944 l 716 811 q 708 806 713 808 q 692 803 700 803 q 684 806 689 803 q 673 811 675 808 l 553 939 q 545 960 545 949 q 553 982 545 974 q 575 990 564 990 q 597 982 589 990 l 665 911 l 665 1153 q 255 977 429 1139 q 65 575 87 811 q 184 146 46 339 q 347 -8 250 54 q 556 -98 442 -71 q 575 -111 567 -100 l 575 -111 l 575 -111 m 464 873 q 456 865 461 868 q 326 716 372 806 q 277 524 277 627 q 326 334 277 420 q 456 182 372 241 q 469 163 467 176 q 467 144 469 155 q 464 141 467 141 q 445 130 456 130 q 423 133 431 125 q 269 301 326 198 q 214 524 214 407 q 269 746 214 640 q 423 914 326 849 q 434 920 426 920 q 439 920 437 920 q 445 920 442 920 q 456 917 450 920 q 464 906 461 911 q 469 895 469 903 q 469 884 472 890 q 464 873 469 879 l 464 873 l 464 873 m 925 174 q 928 179 925 176 l 928 179 q 930 184 930 182 l 930 184 q 1066 331 1017 241 q 1112 524 1112 423 q 1066 716 1112 627 q 930 865 1017 808 q 928 868 930 865 q 925 873 925 871 q 920 884 922 879 q 920 892 917 890 q 920 895 920 895 q 925 906 922 903 q 928 909 925 909 q 933 914 928 914 q 944 920 939 920 q 958 920 952 922 q 968 914 963 920 q 1120 746 1063 849 q 1172 524 1172 640 q 1120 304 1172 407 q 968 133 1063 198 q 958 127 963 130 q 944 127 949 127 q 939 130 941 127 q 933 133 936 133 q 928 138 928 136 q 925 141 925 138 q 920 152 922 146 q 920 155 920 152 q 920 163 917 160 q 925 174 922 171 l 925 174 l 925 174 m 846 1199 q 1234 958 1082 1142 q 1383 602 1359 800 q 1321 222 1408 404 q 1066 -68 1234 41 q 694 -174 895 -174 q 684 -171 689 -174 q 673 -165 678 -168 q 667 -157 667 -160 q 667 -155 667 -155 q 665 -144 665 -149 l 665 125 l 597 54 q 581 46 591 49 q 575 46 578 46 q 553 57 564 46 q 545 76 545 62 q 553 98 545 90 l 673 225 q 692 233 681 233 q 716 225 708 233 l 836 98 q 844 76 844 90 q 836 57 844 62 q 814 46 825 46 q 808 46 811 46 q 792 54 798 49 l 724 125 l 724 -111 q 1134 65 960 -98 q 1326 467 1302 233 q 1204 895 1343 703 q 833 1139 1063 1085 q 822 1142 827 1139 q 814 1153 819 1147 q 814 1153 814 1153 q 811 1164 808 1158 q 811 1175 808 1169 q 817 1185 811 1180 q 825 1194 819 1191 q 836 1199 830 1196 q 846 1199 841 1199 l 846 1199 l 846 1199 m 958 521 q 825 293 955 388 q 803 288 814 288 q 784 298 792 290 l 594 486 q 586 507 583 496 q 594 529 586 521 q 616 540 605 540 q 637 529 629 540 l 808 361 q 898 521 895 431 q 789 697 895 621 q 776 716 779 705 q 781 741 773 730 q 800 751 789 749 q 825 746 814 754 q 958 521 955 651 l 958 521 l 958 521 m 589 288 q 564 293 575 288 q 429 521 431 388 q 564 746 431 651 q 586 751 575 754 q 605 743 597 751 l 795 553 q 803 532 803 545 q 795 513 803 521 q 795 510 795 513 q 773 502 784 502 q 751 510 760 502 l 581 681 q 494 521 494 610 q 600 345 494 423 q 613 323 610 336 q 608 301 616 312 q 589 288 600 290 l 589 288 l 589 288 z "},"":{"ha":1563,"x_min":98,"x_max":1476,"o":"m 1066 1128 q 1123 1115 1099 1131 q 1386 841 1294 993 q 1476 524 1476 689 q 1386 201 1476 353 q 1123 -73 1294 49 q 1074 -87 1101 -90 q 1023 -62 1044 -84 l 526 431 q 499 488 502 456 q 526 545 502 521 q 583 570 548 570 q 637 545 616 570 l 1088 100 q 1316 524 1313 288 q 1242 768 1316 648 q 1034 982 1169 884 q 1001 1034 1006 1001 q 1015 1093 996 1066 q 1066 1128 1034 1120 l 1066 1128 l 1066 1128 m 507 -87 q 448 -73 475 -90 q 187 201 277 49 q 98 524 98 353 q 187 841 98 689 q 448 1115 277 993 q 499 1128 472 1131 q 551 1104 529 1126 l 1047 610 q 1072 553 1072 586 q 1047 496 1072 521 q 990 472 1025 472 q 933 496 958 472 l 486 941 q 258 524 260 754 q 331 274 258 393 q 537 60 401 155 q 572 8 567 41 q 559 -54 578 -24 q 507 -87 540 -79 l 507 -87 l 507 -87 z "},"":{"ha":1389,"x_min":41,"x_max":1348,"o":"m 635 1156 q 694 1215 637 1210 q 757 1156 751 1210 q 694 1093 751 1099 q 635 1156 637 1099 l 635 1156 m 849 513 q 806 401 849 448 l 806 401 q 694 358 760 358 q 583 401 629 358 q 540 513 540 448 q 583 624 540 578 q 694 667 629 667 q 806 624 760 667 q 849 513 849 578 l 849 513 m 914 266 q 1023 475 1006 350 l 1348 475 q 1286 236 1340 350 q 1142 38 1234 125 q 936 -95 1050 -49 q 694 -141 822 -141 q 453 -95 567 -141 q 247 38 336 -49 q 103 236 155 125 q 41 475 49 350 l 366 475 q 475 266 382 350 q 694 182 570 184 q 914 266 819 184 l 914 266 m 198 836 q 138 770 195 779 q 76 830 84 776 q 136 892 79 887 q 198 836 193 890 l 198 836 m 1191 833 q 1251 892 1196 890 q 1313 833 1308 890 q 1251 770 1308 776 q 1191 833 1196 776 l 1191 833 m 863 958 q 694 895 789 898 q 526 958 600 898 q 439 1112 456 1020 q 567 1153 499 1139 q 605 1061 567 1099 q 694 1023 640 1025 q 787 1061 749 1025 q 822 1153 822 1099 q 949 1112 890 1139 q 863 958 933 1020 l 863 958 l 863 958 m 225 589 q 46 591 136 559 q 76 719 54 656 q 122 703 98 708 q 174 708 149 700 q 217 730 198 713 q 250 768 239 746 q 266 814 263 789 q 263 865 271 841 q 241 909 258 890 q 203 944 225 930 q 301 1034 247 993 q 393 879 374 971 q 363 703 410 787 q 225 589 315 621 l 225 589 l 225 589 m 1164 589 q 1028 703 1074 621 q 996 879 979 787 q 1088 1034 1015 971 q 1185 941 1142 993 q 1126 865 1139 914 q 1139 768 1112 814 q 1218 708 1166 722 q 1313 719 1267 694 q 1343 591 1335 656 q 1164 589 1253 556 l 1164 589 l 1164 589 z "},"":{"ha":1389,"x_min":0,"x_max":1389,"o":"m 260 521 l 347 521 l 347 -174 l 0 -174 l 0 260 l 87 260 l 87 347 l 174 347 l 174 434 l 260 434 l 260 521 l 260 521 m 1389 260 l 1389 -174 l 1042 -174 l 1042 521 l 1128 521 l 1128 434 l 1215 434 l 1215 347 l 1302 347 l 1302 260 l 1389 260 l 1389 260 m 868 1042 l 955 1042 l 955 0 l 868 0 l 868 87 l 521 87 l 521 0 l 434 0 l 434 1042 l 521 1042 l 521 1128 l 608 1128 l 608 1215 l 781 1215 l 781 1128 l 868 1128 l 868 1042 l 868 1042 m 781 868 l 608 868 l 608 694 l 781 694 l 781 868 l 781 868 z "},"":{"ha":1215,"x_min":3,"x_max":1218,"o":"m 1044 1126 l 176 1126 q 52 1077 100 1126 q 3 952 3 1028 l 3 84 q 52 -38 3 11 q 176 -90 100 -87 l 1044 -90 q 1166 -38 1118 -87 q 1218 84 1215 11 l 1218 952 q 1166 1077 1215 1028 q 1044 1126 1118 1126 l 1044 1126 m 914 366 q 876 355 892 361 l 876 355 q 808 331 833 339 l 808 331 q 751 323 781 323 q 678 336 708 326 q 618 355 648 347 q 548 366 589 366 q 480 355 507 366 l 480 442 q 548 453 507 453 q 648 434 608 453 q 751 410 689 415 q 827 423 789 410 l 827 684 q 751 670 789 670 q 678 684 708 673 q 618 703 648 694 q 548 713 589 713 q 448 694 488 713 q 393 675 423 684 l 393 258 q 350 214 388 220 q 307 258 309 220 l 307 779 q 350 822 309 819 q 393 779 388 819 l 393 762 q 448 781 423 770 q 548 800 488 800 q 648 781 608 800 q 751 757 689 762 q 808 765 781 757 q 876 789 833 773 q 914 800 892 795 l 914 366 l 914 366 z "},"":{"ha":1215,"x_min":0,"x_max":1215,"o":"m 130 1128 l 1085 1128 q 1177 1090 1139 1126 q 1215 998 1213 1053 l 1215 43 q 1177 -49 1213 -11 q 1085 -87 1139 -84 l 130 -87 q 38 -49 76 -84 q 0 43 3 -11 l 0 998 q 38 1090 3 1053 q 130 1128 76 1126 l 130 1128 m 1036 605 l 917 920 q 903 936 911 930 q 890 941 895 941 q 873 939 882 941 q 863 930 868 936 q 854 917 857 925 l 773 667 l 439 667 l 361 917 q 353 930 358 925 q 347 936 350 933 q 342 939 345 939 q 336 941 339 939 q 326 941 331 944 q 312 936 320 941 q 301 920 304 930 l 179 605 l 176 602 q 171 458 152 532 q 252 342 193 388 l 252 342 l 255 342 l 437 203 l 586 92 q 608 84 594 87 q 627 90 616 84 q 629 92 627 92 l 776 203 l 963 342 l 963 342 q 1044 458 1023 388 q 1039 602 1063 532 l 1036 605 l 1036 605 z "},"":{"ha":1215,"x_min":0,"x_max":1215,"o":"m 1085 1128 l 130 1128 q 38 1090 76 1126 q 0 998 3 1053 l 0 43 q 38 -49 3 -11 q 130 -87 76 -84 l 1085 -87 q 1177 -49 1139 -84 q 1215 43 1213 -11 l 1215 998 q 1177 1090 1213 1053 q 1085 1128 1139 1126 l 1085 1128 m 952 697 q 952 675 952 686 l 952 675 q 952 675 952 675 q 895 439 952 553 q 724 247 836 323 q 448 168 610 171 q 174 247 293 171 q 217 247 195 247 q 437 323 345 247 q 334 358 377 323 q 271 445 288 391 q 353 448 309 439 q 250 510 290 461 q 209 624 209 556 l 209 627 q 290 602 244 605 q 209 751 212 656 q 233 841 212 800 q 396 711 301 760 q 602 654 488 662 q 637 808 586 749 q 776 873 689 871 q 903 817 854 871 q 1017 860 966 830 q 939 762 996 798 q 1042 789 993 768 q 952 697 1004 735 l 952 697 z "},"":{"ha":1215,"x_min":0,"x_max":1215,"o":"m 1085 1128 l 130 1128 q 38 1090 76 1126 q 0 998 3 1053 l 0 43 q 38 -49 3 -11 q 130 -87 76 -84 l 502 -87 l 502 326 l 331 326 l 331 521 l 502 521 l 502 670 q 572 863 505 795 q 757 930 640 930 q 860 925 814 930 q 906 917 903 920 q 906 917 906 917 l 906 751 l 822 751 q 735 719 760 751 q 713 648 711 689 l 713 521 l 901 521 l 871 326 l 713 326 l 713 -87 l 1085 -87 q 1177 -49 1139 -84 q 1215 43 1213 -11 l 1215 998 q 1177 1090 1213 1053 q 1085 1128 1139 1126 l 1085 1128 z "},"":{"ha":1215,"x_min":0,"x_max":1215,"o":"m 1128 1128 l 87 1128 q 24 1104 49 1128 q 0 1042 0 1077 l 0 0 q 24 -62 0 -35 q 87 -87 49 -87 l 1128 -87 q 1191 -62 1166 -87 q 1215 0 1215 -35 l 1215 1042 q 1191 1104 1215 1077 q 1128 1128 1166 1128 l 1128 1128 m 366 87 l 187 87 l 187 667 l 369 667 l 369 87 l 366 87 m 277 746 q 203 776 233 746 l 203 776 q 174 849 174 806 q 203 925 174 895 q 277 955 233 955 q 350 925 323 955 q 382 849 380 895 q 350 776 380 806 q 277 746 323 746 l 277 746 m 1042 87 l 863 87 l 863 369 q 849 472 865 423 q 768 524 836 518 q 678 477 700 521 q 662 374 659 434 l 662 87 l 480 87 l 480 667 l 654 667 l 654 589 l 656 589 q 716 651 673 624 q 827 681 760 681 q 1004 602 960 678 q 1042 404 1047 524 l 1042 87 l 1042 87 z "},"":{"ha":1215,"x_min":0,"x_max":1215,"o":"m 1085 1128 l 130 1128 q 38 1090 76 1126 q 0 998 3 1053 l 0 43 q 38 -49 3 -11 q 130 -87 76 -84 l 1085 -87 q 1177 -49 1139 -84 q 1215 43 1213 -11 l 1215 998 q 1177 1090 1213 1053 q 1085 1128 1139 1126 l 1085 1128 m 751 87 q 722 109 719 87 q 722 141 722 117 q 722 260 722 193 q 692 342 719 323 q 833 380 770 347 q 898 540 892 415 q 852 646 895 608 q 860 689 854 656 q 846 768 863 722 q 770 749 814 773 q 722 722 727 724 q 722 719 722 719 q 610 735 667 735 q 496 719 551 735 q 448 749 491 724 q 372 768 404 773 q 358 689 355 722 q 369 646 363 656 q 326 540 326 608 q 388 382 328 415 q 526 342 448 347 q 499 282 507 326 q 437 271 477 271 q 366 320 399 271 q 323 358 347 350 q 298 366 301 366 q 279 353 269 363 q 296 339 290 339 q 331 301 317 326 q 345 274 345 277 q 431 217 372 217 q 496 220 491 214 q 496 220 496 220 q 496 136 496 179 q 496 109 496 117 q 467 87 499 87 q 247 250 331 136 q 163 518 165 366 q 288 830 165 708 q 602 955 410 952 q 920 830 792 952 q 1053 518 1047 708 q 968 250 1050 366 q 751 87 890 136 l 751 87 m 486 252 q 475 258 477 252 q 483 266 475 266 q 494 260 494 266 q 486 252 494 255 l 486 252 m 461 255 q 450 250 458 250 q 439 255 442 250 q 450 263 442 260 q 461 255 458 263 l 461 255 m 423 258 q 412 255 420 252 q 404 263 404 258 q 415 269 407 269 q 423 258 423 266 l 423 258 m 391 274 q 377 274 385 269 q 374 285 372 282 q 388 285 380 290 q 391 274 393 277 l 391 274 m 366 298 q 355 301 361 296 q 355 312 350 309 q 366 309 361 315 q 366 298 369 301 l 366 298 m 347 326 q 339 326 342 320 q 336 336 334 331 q 347 334 342 339 q 347 326 350 328 l 347 326 m 328 345 q 323 345 328 342 q 317 350 317 347 q 326 353 320 353 q 328 345 331 347 l 328 345 z "},"":{"ha":1389,"x_min":0,"x_max":1389,"o":"m 1245 803 q 1248 768 1248 784 l 1248 768 q 1248 768 1248 768 q 1153 391 1248 575 q 879 84 1061 206 q 437 -43 700 -38 q 0 84 193 -41 q 68 81 33 81 q 423 203 271 84 q 255 260 326 206 q 157 399 184 315 q 209 396 182 396 q 285 404 250 396 q 122 502 184 426 q 57 684 60 578 l 57 689 q 184 651 114 656 q 57 890 65 735 q 98 1034 60 968 q 355 825 203 903 q 684 735 505 746 q 678 800 678 768 q 760 1001 681 920 q 960 1085 841 1082 q 1169 996 1088 1082 q 1351 1063 1267 1015 q 1226 906 1316 963 q 1389 952 1310 917 q 1245 803 1329 865 l 1245 803 z "},"":{"ha":1389,"x_min":22,"x_max":1367,"o":"m 1367 521 q 1275 860 1364 708 l 1275 860 q 1034 1101 1185 1012 l 1034 1101 q 694 1194 882 1191 q 355 1101 507 1191 q 114 860 203 1012 q 22 521 24 708 q 184 81 27 263 q 589 -144 342 -100 l 589 326 l 418 326 l 418 521 l 589 521 l 589 670 q 659 863 591 795 q 844 930 727 930 q 947 925 901 930 q 993 917 990 920 q 993 917 993 917 l 993 751 l 909 751 q 822 719 846 751 q 800 648 798 689 l 800 521 l 987 521 l 958 326 l 800 326 l 800 -144 q 1204 81 1047 -100 q 1367 521 1362 263 l 1367 521 z "},"":{"ha":1345,"x_min":0,"x_max":1345,"o":"m 450 138 q 437 127 448 127 q 420 138 420 127 q 434 146 423 146 q 450 138 448 146 l 450 138 m 366 149 q 377 136 363 141 q 393 141 391 133 q 382 155 396 152 q 366 149 369 157 l 366 149 m 486 155 q 472 141 472 152 q 488 133 475 133 q 502 146 502 138 q 486 155 499 155 l 486 155 m 665 1194 q 190 1004 374 1188 l 190 1004 q 0 532 5 819 q 127 127 3 301 q 461 -117 252 -46 q 507 -84 510 -119 q 507 -43 507 -73 q 507 81 507 19 q 456 76 502 81 q 353 87 407 73 q 277 163 298 103 q 255 206 277 168 q 201 263 233 241 q 179 285 195 266 q 206 304 160 301 q 244 293 209 307 q 309 233 279 282 q 415 160 358 160 q 507 176 475 160 q 551 269 518 241 q 342 328 431 274 q 247 570 252 380 q 263 659 247 624 q 309 727 277 694 q 298 792 304 743 q 317 911 293 841 q 431 882 366 920 q 505 838 499 846 q 505 838 505 838 q 675 863 586 863 q 846 838 762 863 q 882 863 846 841 q 958 901 914 884 q 1034 911 1001 920 q 1053 792 1058 841 q 1039 727 1047 743 q 1090 659 1072 694 q 1109 570 1109 624 q 1063 377 1107 439 q 947 296 1017 317 q 798 269 876 274 q 844 144 841 239 q 844 -35 844 43 q 844 -84 844 -71 q 890 -117 841 -119 q 1221 127 1096 -46 q 1345 532 1343 301 q 1253 871 1343 722 q 1009 1107 1161 1020 q 665 1194 854 1191 l 665 1194 m 263 258 q 266 244 258 252 q 279 241 274 236 q 277 255 285 247 q 263 258 271 263 l 263 258 m 233 279 q 241 269 233 274 q 252 271 250 266 q 247 282 255 277 q 233 279 239 285 l 233 279 m 323 184 q 326 165 317 176 q 345 163 336 157 q 339 182 347 171 q 323 184 328 190 l 323 184 m 290 222 q 290 206 285 217 q 307 201 298 198 q 307 217 312 206 q 290 222 298 228 l 290 222 z "},"":{"ha":1345,"x_min":0,"x_max":1345,"o":"m 1345 521 q 1253 182 1343 334 l 1253 182 q 1012 -60 1164 30 l 1012 -60 q 673 -152 860 -149 q 475 -122 570 -152 q 521 -38 496 -87 q 556 54 545 8 q 581 144 564 84 q 600 214 597 203 q 600 214 600 214 q 659 160 616 182 q 754 138 700 138 q 1004 260 909 141 q 1101 556 1099 377 q 982 833 1099 727 q 686 944 865 941 q 355 819 469 939 q 244 537 244 703 q 279 385 244 458 q 380 277 315 309 q 401 285 399 269 q 412 326 404 296 q 420 361 418 347 q 415 380 423 372 q 380 448 396 407 q 366 534 366 491 q 448 735 366 651 q 670 827 526 822 q 873 749 795 825 q 952 553 949 675 q 890 331 949 415 q 741 244 830 247 q 659 279 689 247 q 640 366 629 315 q 665 453 651 410 q 694 589 692 532 q 610 684 697 675 q 524 637 559 684 q 488 521 491 594 q 499 450 491 475 q 510 420 507 423 q 510 420 510 420 q 491 347 507 418 q 456 198 475 277 q 431 87 437 119 q 420 -11 420 43 q 429 -106 423 -65 q 119 138 236 -30 q 0 521 3 304 q 92 860 3 708 q 334 1101 182 1012 q 673 1194 486 1191 q 1012 1101 860 1191 q 1253 860 1164 1012 q 1345 521 1343 708 l 1345 521 z "},"":{"ha":1215,"x_min":0,"x_max":1215,"o":"m 1215 998 l 1215 43 q 1177 -49 1213 -11 q 1085 -87 1139 -84 l 418 -87 q 461 -8 439 -52 q 494 73 483 33 q 518 165 502 103 q 534 233 532 225 q 594 179 553 201 q 686 155 635 157 q 936 277 841 160 q 1034 570 1031 393 q 914 846 1028 738 q 621 955 800 952 q 296 833 407 949 q 182 551 182 716 q 220 401 182 475 q 317 293 255 326 q 339 304 336 285 q 345 326 342 309 q 358 377 353 355 q 353 396 361 388 q 317 464 334 423 q 304 548 304 505 q 382 749 304 665 q 605 838 461 833 q 806 762 730 836 q 884 567 882 689 q 822 347 882 429 q 673 263 765 263 q 594 298 624 263 q 575 382 564 331 q 600 469 586 426 q 629 605 627 548 q 578 694 627 675 q 477 673 526 711 q 426 537 429 632 q 434 467 426 491 q 445 437 445 439 q 445 437 445 437 q 407 282 423 345 q 369 122 382 179 q 358 22 358 65 q 363 -84 358 -22 l 372 -87 l 130 -87 q 38 -49 76 -84 q 0 43 3 -11 l 0 998 q 38 1090 3 1053 q 130 1128 76 1126 l 1085 1128 q 1177 1090 1139 1126 q 1215 998 1213 1053 l 1215 998 z "},"":{"ha":1215,"x_min":0,"x_max":1215,"o":"m 1085 1128 l 130 1128 q 38 1090 76 1126 q 0 998 3 1053 l 0 43 q 38 -49 3 -11 q 130 -87 76 -84 l 1085 -87 q 1177 -49 1139 -84 q 1215 43 1213 -11 l 1215 998 q 1177 1090 1213 1053 q 1085 1128 1139 1126 l 1085 1128 m 445 250 q 252 328 328 252 l 252 328 q 174 521 176 404 q 252 713 176 637 q 445 792 328 789 q 627 722 556 789 l 553 651 q 445 692 524 686 q 326 643 374 689 q 277 521 279 594 q 326 399 279 448 q 445 350 374 350 q 559 393 524 353 q 600 467 594 434 l 445 467 l 445 559 l 700 559 q 705 515 705 540 q 635 323 703 396 q 445 250 564 252 l 445 250 m 1042 472 l 963 472 l 963 393 l 884 393 l 884 472 l 806 472 l 806 551 l 884 551 l 884 629 l 963 629 l 963 551 l 1042 551 l 1042 472 l 1042 472 z "},"":{"ha":1736,"x_min":35,"x_max":1701,"o":"m 1047 597 q 1055 510 1055 559 q 920 144 1053 282 q 556 0 784 3 q 187 152 334 5 q 35 521 41 298 q 187 890 41 743 q 556 1042 334 1036 q 903 906 768 1036 l 762 770 q 684 825 735 798 q 556 849 632 849 q 328 754 418 846 q 233 521 236 662 q 328 288 236 380 q 556 193 418 195 q 776 277 708 198 q 852 415 844 353 l 556 415 l 556 597 l 1047 597 l 1047 597 m 1549 578 l 1549 730 l 1397 730 l 1397 578 l 1248 578 l 1248 426 l 1397 426 l 1397 274 l 1549 274 l 1549 426 l 1701 426 l 1701 578 l 1549 578 l 1549 578 z "},"":{"ha":1215,"x_min":0,"x_max":1215,"o":"m 271 0 l 19 0 l 19 811 l 271 811 l 271 0 m 146 922 q 43 966 84 925 l 43 966 q 0 1069 3 1006 q 73 1196 5 1156 q 220 1196 141 1234 q 293 1069 290 1153 q 250 966 290 1006 q 146 922 209 925 l 146 922 m 1215 0 l 963 0 l 963 396 q 947 537 968 469 q 833 610 925 605 q 708 545 738 608 q 681 401 678 483 l 681 0 l 429 0 l 429 811 l 673 811 l 673 700 l 675 700 q 760 789 700 751 q 914 833 822 830 q 1161 722 1099 827 q 1215 445 1221 613 l 1215 0 l 1215 0 z "},"":{"ha":1302,"x_min":0,"x_max":1302,"o":"m 505 323 q 480 228 505 277 l 480 228 q 404 174 458 179 q 328 228 353 179 q 307 323 307 277 q 328 420 307 369 q 404 472 353 469 q 480 420 458 469 q 505 323 505 369 l 505 323 m 1302 461 q 1256 203 1308 326 q 1107 60 1202 103 q 895 8 1009 16 q 681 0 784 -3 q 667 0 673 0 q 646 0 656 0 q 426 8 543 -3 q 209 60 309 16 q 54 203 109 103 q 0 461 -3 326 q 111 768 0 635 q 92 901 92 833 q 100 974 92 944 q 130 1042 111 1004 q 290 1020 222 1042 q 426 944 358 998 q 667 971 545 971 q 884 947 779 971 q 1020 1020 952 1001 q 1177 1042 1088 1042 q 1207 974 1196 1004 q 1218 901 1218 944 q 1196 770 1218 833 q 1302 461 1305 635 l 1302 461 m 1128 323 q 1077 480 1126 415 l 1077 480 q 928 548 1025 545 q 808 537 868 545 q 776 532 792 534 q 654 524 716 524 q 532 532 591 524 q 502 534 515 534 q 380 548 442 545 q 233 480 285 545 q 182 323 182 415 q 244 146 182 206 q 399 68 307 87 q 589 49 491 46 l 719 49 q 909 68 817 46 q 1063 146 1004 87 q 1128 323 1126 206 l 1128 323 m 903 472 q 827 420 852 469 l 827 420 q 803 323 803 369 q 827 228 803 277 q 903 174 852 179 q 979 228 955 179 q 1004 323 1004 277 q 979 420 1004 369 q 903 472 955 469 l 903 472 z "},"":{"ha":1389,"x_min":0,"x_max":1389,"o":"m 1251 14 l 987 14 l 1128 673 q 1115 743 1137 716 q 1050 768 1093 768 l 917 768 l 754 14 l 491 14 l 651 768 l 426 768 l 263 14 l 0 14 l 163 768 l 41 1028 l 1050 1028 q 1316 906 1215 1025 q 1381 618 1413 781 l 1251 14 l 1251 14 z "},"":{"ha":1042,"x_min":0,"x_max":1042,"o":"m 0 1128 l 95 54 l 521 -87 l 947 54 l 1042 1128 l 0 1128 l 0 1128 m 836 781 l 336 781 l 350 648 l 825 648 l 789 244 l 524 171 l 524 171 l 521 171 l 252 244 l 236 450 l 366 450 l 374 347 l 521 307 l 665 347 l 681 515 l 228 515 l 195 911 l 849 911 l 836 781 l 836 781 z "},"":{"ha":1389,"x_min":0,"x_max":1302,"o":"m 1302 1128 l 1128 130 l 524 -87 l 0 130 l 54 388 l 277 388 l 255 277 l 570 157 l 933 277 l 985 540 l 81 540 l 125 762 l 1028 762 l 1058 906 l 152 906 l 198 1128 l 1302 1128 l 1302 1128 z "},"":{"ha":1042,"x_min":11,"x_max":1031,"o":"m 841 556 q 952 779 963 610 q 854 941 941 892 q 643 1001 770 990 l 643 1215 l 510 1215 l 510 1006 q 407 1004 458 1006 l 407 1215 l 274 1215 l 274 1001 q 206 998 247 998 q 92 998 165 998 q 11 1001 57 1001 l 11 860 q 33 860 22 860 q 136 854 100 863 q 182 800 174 846 l 182 212 q 149 171 176 179 q 65 168 122 165 q 38 168 52 168 l 11 11 q 233 11 184 11 q 274 11 279 11 l 274 -174 l 407 -174 l 407 8 q 510 8 461 8 q 510 8 510 8 l 510 -174 l 643 -174 l 643 11 q 911 76 808 16 q 1031 285 1012 133 q 987 472 1039 410 q 841 556 936 537 l 841 556 m 410 849 q 434 852 420 849 l 434 852 q 548 849 483 854 l 548 849 q 662 817 613 844 l 662 817 q 716 719 713 787 q 662 624 713 651 q 545 591 610 597 q 431 589 477 586 q 410 589 418 589 l 410 849 l 410 849 m 410 168 l 410 456 q 439 456 423 456 q 572 453 496 458 q 708 418 651 448 q 770 312 768 385 q 705 206 768 239 q 570 171 646 176 q 434 168 491 165 q 410 168 420 168 l 410 168 z "},"":{"ha":1563,"x_min":41,"x_max":1522,"o":"m 1492 879 q 1359 1012 1459 979 q 1158 1034 1294 1025 q 906 1042 1023 1039 q 781 1042 789 1042 q 656 1042 773 1042 q 404 1034 540 1039 q 203 1012 269 1025 q 71 879 103 979 q 49 735 57 817 q 41 586 43 651 q 41 521 41 524 q 41 453 41 515 q 49 307 43 388 q 71 160 57 222 q 203 30 103 60 q 404 8 269 16 q 656 0 540 3 q 781 0 773 0 q 781 0 781 0 q 906 0 789 0 q 1158 8 1023 3 q 1359 30 1294 16 q 1492 160 1459 60 q 1514 307 1506 222 q 1522 453 1519 388 q 1522 521 1522 515 q 1522 586 1522 524 q 1514 735 1519 651 q 1492 879 1506 817 l 1492 879 m 629 298 l 629 741 l 1017 521 l 629 298 l 629 298 z "},"":{"ha":1042,"x_min":0,"x_max":1039,"o":"m 442 646 q 372 521 437 637 l 372 521 q 252 309 326 442 q 203 277 231 277 l 27 277 q 3 315 -8 282 l 190 646 q 190 646 193 646 l 71 852 q 95 890 57 884 l 271 890 q 320 854 301 890 l 442 646 l 442 646 m 1039 1090 l 648 404 l 648 404 l 895 -49 q 873 -87 909 -81 l 697 -87 q 648 -54 665 -87 l 396 404 q 448 491 401 412 q 789 1096 537 651 q 836 1128 808 1128 l 1015 1128 q 1039 1090 1050 1123 l 1039 1090 z "},"":{"ha":1215,"x_min":0,"x_max":1215,"o":"m 1085 1128 l 130 1128 q 38 1090 76 1126 q 0 998 3 1053 l 0 43 q 38 -49 3 -11 q 130 -87 76 -84 l 1085 -87 q 1177 -49 1139 -84 q 1215 43 1213 -11 l 1215 998 q 1177 1090 1213 1053 q 1085 1128 1139 1126 l 1085 1128 m 380 347 l 255 347 q 239 374 231 350 l 372 610 q 372 610 372 610 l 288 757 q 304 784 277 781 l 429 784 q 464 760 450 784 l 551 610 q 415 372 545 602 q 380 347 401 347 l 380 347 m 977 928 l 697 437 l 697 437 l 876 114 q 860 87 884 90 l 732 87 q 697 111 711 87 l 518 437 q 689 738 526 450 q 800 930 738 822 q 833 955 814 955 l 960 955 q 977 928 985 952 l 977 928 z "},"":{"ha":1432,"x_min":0,"x_max":1432,"o":"m 716 901 l 358 670 l 716 442 l 358 214 l 0 445 l 358 673 l 0 901 l 358 1128 l 716 901 l 716 901 m 358 141 l 716 372 l 1074 141 l 716 -87 l 358 141 l 358 141 m 716 445 l 1074 673 l 716 901 l 1074 1128 l 1432 901 l 1074 670 l 1432 442 l 1074 214 l 716 445 l 716 445 z "},"":{"ha":1042,"x_min":8,"x_max":1034,"o":"m 789 372 l 258 483 l 236 377 l 768 266 l 789 372 m 928 608 l 510 955 l 442 871 l 857 524 l 928 608 m 844 499 l 350 730 l 307 629 l 798 401 l 844 499 m 711 1128 l 624 1063 l 947 629 l 1034 694 l 711 1128 m 768 239 l 225 239 l 225 130 l 768 130 l 768 239 m 873 22 l 117 22 l 117 347 l 8 347 l 8 -87 l 982 -87 l 982 347 l 873 347 l 873 22 z "},"":{"ha":1215,"x_min":0,"x_max":1215,"o":"m 608 833 q 388 741 475 830 l 388 741 q 296 521 298 654 q 388 301 298 388 q 608 209 475 212 q 827 301 741 212 q 920 521 917 388 q 827 741 917 654 q 608 833 741 830 l 608 833 m 608 317 q 464 377 521 320 l 464 377 q 404 521 407 434 q 464 665 407 608 q 608 724 521 722 q 751 665 694 722 q 811 521 808 608 q 751 377 808 434 q 608 317 694 320 l 608 317 m 1006 846 q 933 773 998 779 q 860 846 865 779 q 882 898 860 876 q 933 917 901 917 q 985 898 963 917 q 1006 846 1004 876 l 1006 846 m 1213 770 q 1112 1025 1213 920 q 860 1126 1006 1126 q 705 1128 806 1128 q 510 1128 608 1128 q 358 1126 410 1128 q 103 1025 212 1126 q 5 773 3 920 q 0 618 0 719 q 0 423 0 521 q 5 271 0 326 q 103 16 3 122 q 358 -81 209 -84 q 510 -87 410 -84 q 705 -87 608 -87 q 860 -81 806 -84 q 1112 16 1006 -84 q 1213 271 1213 122 q 1215 423 1215 326 q 1215 618 1215 521 q 1213 773 1215 719 l 1213 770 m 1082 163 q 966 46 1047 81 q 819 24 911 27 q 651 22 727 22 q 608 22 627 22 q 564 22 589 22 q 396 24 488 22 q 250 46 307 27 q 133 163 168 81 q 111 309 114 220 q 109 477 109 401 q 109 521 109 502 q 109 564 109 540 q 111 732 109 640 q 133 879 114 825 q 250 996 168 960 q 396 1017 307 1015 q 564 1020 488 1023 q 608 1020 589 1020 q 651 1020 627 1020 q 819 1017 727 1020 q 966 996 911 1015 q 1082 879 1047 960 q 1104 732 1101 825 q 1107 564 1109 640 q 1107 521 1107 540 q 1107 477 1107 502 q 1104 309 1109 401 q 1082 163 1101 217 l 1082 163 z "},"":{"ha":1215,"x_min":0,"x_max":1215,"o":"m 1085 1128 l 130 1128 q 38 1090 76 1126 q 0 998 3 1053 l 0 43 q 38 -49 3 -11 q 130 -87 76 -84 l 1085 -87 q 1177 -49 1139 -84 q 1215 43 1213 -11 l 1215 998 q 1177 1090 1213 1053 q 1085 1128 1139 1126 l 1085 1128 m 393 350 q 271 401 317 353 l 271 401 q 220 521 222 448 q 271 643 222 597 q 393 694 317 692 q 513 643 467 692 q 564 521 562 597 q 513 401 562 448 q 393 350 467 353 l 393 350 m 825 350 q 703 401 749 353 l 703 401 q 651 521 654 448 q 703 643 654 597 q 825 694 749 692 q 944 643 898 692 q 996 521 993 597 q 944 401 993 448 q 825 350 898 353 l 825 350 z "},"":{"ha":1345,"x_min":0,"x_max":1345,"o":"m 673 760 l 849 494 l 496 494 l 673 762 l 673 760 m 1345 521 q 1253 182 1343 334 l 1253 182 q 1012 -60 1164 30 l 1012 -60 q 673 -152 860 -149 q 334 -60 486 -149 q 92 182 182 30 q 0 521 3 334 q 92 860 3 708 q 334 1101 182 1012 q 673 1194 486 1191 q 1012 1101 860 1191 q 1253 860 1164 1012 q 1345 521 1343 708 l 1345 521 m 1074 296 l 673 901 l 271 296 l 353 296 l 445 437 l 901 437 l 993 296 l 1074 296 l 1074 296 z "},"":{"ha":1389,"x_min":16,"x_max":1370,"o":"m 60 1128 q 16 1085 22 1126 q 16 1077 16 1082 l 201 -41 q 258 -90 212 -87 l 1142 -90 q 1185 -54 1177 -87 l 1370 1077 q 1335 1128 1373 1118 q 1326 1128 1329 1128 l 60 1128 l 60 1128 m 836 320 l 553 320 l 477 719 l 903 719 l 836 320 l 836 320 z "},"":{"ha":868,"x_min":22,"x_max":846,"o":"m 841 -87 q 743 -146 811 -119 l 743 -146 q 575 -174 673 -171 q 328 -106 415 -171 q 209 46 241 -41 q 176 209 176 136 l 176 600 l 49 600 q 22 627 24 600 l 22 811 q 52 854 22 841 q 228 993 176 901 q 282 1172 277 1082 q 326 1215 285 1215 l 518 1215 q 545 1188 543 1213 l 545 876 l 770 876 q 798 849 795 873 l 798 627 q 770 600 795 602 l 543 600 l 543 239 q 589 138 543 168 q 727 141 637 109 q 762 146 746 149 q 781 127 776 144 l 841 -49 q 841 -87 852 -71 l 841 -87 z "},"":{"ha":1215,"x_min":0,"x_max":1215,"o":"m 1085 1128 l 130 1128 q 38 1090 76 1126 q 0 998 3 1053 l 0 43 q 38 -49 3 -11 q 130 -87 76 -84 l 1085 -87 q 1177 -49 1139 -84 q 1215 43 1213 -11 l 1215 998 q 1177 1090 1213 1053 q 1085 1128 1139 1126 l 1085 1128 m 863 141 q 800 103 844 122 l 800 103 q 697 87 757 87 q 496 174 548 92 q 448 326 445 252 l 448 570 l 366 570 q 350 586 353 570 l 350 703 q 369 730 350 722 q 477 817 448 760 q 513 928 510 873 q 540 955 515 955 l 659 955 q 675 939 675 952 l 675 743 l 817 743 q 833 727 833 741 l 833 586 q 817 570 833 572 l 675 570 l 675 345 q 705 282 675 301 q 792 285 735 263 q 814 288 803 290 q 825 274 822 285 l 863 165 q 863 141 868 152 l 863 141 z "},"":{"ha":1042,"x_min":11,"x_max":1031,"o":"m 865 486 q 1001 716 863 635 q 770 838 922 825 q 678 827 724 841 q 597 800 632 814 q 532 781 553 784 q 456 803 502 784 q 323 836 391 830 q 111 743 203 833 q 11 472 16 654 q 49 252 11 366 q 111 119 68 201 q 214 -22 155 41 q 342 -87 274 -84 q 429 -65 385 -84 q 545 -38 477 -41 q 656 -62 610 -41 q 754 -87 700 -84 q 876 -24 819 -81 q 974 109 933 35 q 1031 236 1015 184 q 884 388 909 304 q 865 486 860 469 q 865 486 865 486 l 865 486 m 711 930 q 773 1053 762 998 l 773 1053 q 776 1128 781 1104 l 776 1128 q 776 1128 776 1128 q 675 1099 727 1126 q 591 1034 627 1072 q 524 838 518 952 q 711 930 629 836 l 711 930 z "},"":{"ha":1215,"x_min":0,"x_max":1215,"o":"m 0 960 l 499 1031 l 499 548 l 0 548 l 0 960 l 0 960 m 0 81 l 499 11 l 499 488 l 0 488 l 0 81 l 0 81 m 553 5 l 1215 -87 l 1215 488 l 553 488 l 553 5 l 553 5 m 553 1036 l 553 548 l 1215 548 l 1215 1128 l 553 1036 l 553 1036 z "},"":{"ha":1563,"x_min":0,"x_max":1563,"o":"m 1142 396 q 1085 429 1101 399 l 1085 429 q 1085 494 1066 458 q 1142 526 1107 526 q 1196 494 1177 526 q 1207 461 1207 477 q 1142 396 1199 401 l 1142 396 m 420 396 q 366 429 382 399 l 366 429 q 366 494 347 458 q 420 526 385 526 q 477 494 456 526 q 486 461 486 477 q 420 396 480 401 l 420 396 m 1164 789 l 1294 1015 q 1272 1055 1308 1047 q 1248 1042 1256 1055 l 1248 1042 l 1115 811 q 781 884 955 884 q 448 811 608 884 l 315 1042 q 269 1044 293 1069 q 269 1015 260 1028 l 269 1015 l 399 789 q 125 534 228 694 q 0 174 19 377 l 1563 174 q 1438 534 1544 377 q 1164 789 1335 694 l 1164 789 z "},"":{"ha":1215,"x_min":33,"x_max":1180,"o":"m 600 882 q 602 879 600 879 l 602 879 q 608 876 605 876 q 616 879 613 876 q 608 887 613 884 q 608 887 608 887 q 591 887 600 892 q 589 884 589 887 q 594 882 591 882 q 600 882 597 882 l 600 882 m 540 876 q 545 879 543 876 l 545 879 q 548 882 545 879 q 551 882 551 882 q 556 884 556 882 q 556 887 559 887 q 540 887 548 892 q 540 887 540 887 q 532 879 532 884 q 540 876 534 876 l 540 876 m 1139 119 q 1120 171 1126 138 l 1120 171 q 1120 174 1120 174 q 1090 233 1115 209 q 1080 241 1085 239 q 1069 247 1074 244 q 1058 461 1101 361 q 1001 575 1036 524 q 933 665 966 627 q 930 667 933 665 q 868 754 895 708 q 844 860 844 800 q 844 873 844 865 q 838 1020 846 941 q 784 1156 827 1099 q 637 1215 741 1213 q 475 1158 521 1213 q 423 1034 429 1104 q 423 901 418 960 q 426 849 426 868 q 363 673 423 760 q 279 559 326 627 q 206 410 233 488 q 190 266 182 336 q 163 233 176 252 q 146 212 155 220 q 106 193 130 198 q 100 190 103 190 q 49 149 71 182 q 41 117 41 133 q 43 84 41 100 q 46 79 46 81 q 46 27 52 49 q 41 -60 24 -30 q 95 -92 57 -87 q 144 -98 117 -95 q 255 -125 203 -103 q 407 -155 339 -168 q 477 -100 456 -144 q 529 -92 502 -98 q 608 -81 562 -84 q 673 -87 637 -81 q 760 -92 711 -92 q 765 -111 760 -103 l 765 -111 q 873 -174 803 -179 q 1006 -98 944 -168 q 1104 -33 1047 -54 q 1145 -11 1126 -22 q 1180 41 1177 8 q 1139 119 1183 71 l 1139 119 m 608 979 q 667 1023 629 1023 l 667 1023 q 727 979 703 1023 q 713 871 749 914 q 681 884 708 873 q 684 887 681 884 q 692 895 689 890 q 692 944 700 922 q 667 968 684 968 q 640 952 651 971 q 635 906 629 933 q 600 920 616 917 q 608 979 594 949 l 608 979 m 496 1009 q 534 985 518 1009 l 534 985 q 548 920 551 958 q 521 906 534 914 q 515 941 524 925 q 494 960 507 960 q 475 928 477 955 q 491 884 475 901 q 491 882 491 882 q 475 868 496 884 q 450 955 442 903 q 496 1009 458 1004 l 496 1009 m 458 844 q 475 857 467 852 l 475 857 q 499 873 494 871 q 502 876 499 876 q 572 911 521 903 q 643 887 602 914 q 673 873 656 879 q 705 863 686 871 q 732 814 743 849 q 673 765 722 781 q 643 749 656 760 q 570 724 616 724 q 543 730 553 724 q 513 751 526 738 q 488 770 502 762 q 448 811 453 789 q 458 846 442 833 l 458 844 m 469 -62 q 396 -138 458 -130 l 396 -138 q 263 -111 331 -144 q 144 -81 203 -81 q 57 -52 76 -79 q 62 22 46 -33 l 62 22 q 62 79 71 49 q 62 87 62 84 q 65 141 54 119 q 106 171 79 165 q 117 176 111 174 q 157 198 138 182 q 179 225 168 212 q 198 247 187 236 q 244 266 214 271 q 304 222 277 260 l 358 125 q 404 60 374 95 q 450 -3 431 27 q 469 -62 469 -35 l 469 -62 m 464 8 q 426 62 448 38 q 472 87 458 60 q 450 155 480 114 q 385 217 420 193 q 347 241 350 241 q 347 241 347 241 q 279 323 293 277 q 279 418 269 369 q 312 507 290 467 q 353 581 334 551 q 331 524 366 591 q 296 423 309 488 q 323 298 282 361 q 361 467 326 385 q 380 510 369 486 q 434 637 407 567 q 467 773 461 708 q 483 760 475 768 q 505 743 494 754 q 518 732 510 738 q 632 730 572 694 q 648 741 640 735 q 675 754 665 749 q 735 795 716 768 q 784 656 754 730 q 838 534 811 581 q 871 467 852 513 q 901 361 890 420 q 930 355 914 361 q 925 496 955 431 q 868 586 895 562 q 860 605 849 605 q 914 537 887 581 q 955 445 941 496 q 958 347 968 396 q 1020 309 993 334 q 1042 252 1050 288 q 1031 252 1034 252 q 1028 252 1031 252 q 968 323 1042 290 q 898 336 925 342 q 863 290 868 331 q 806 214 817 269 q 792 109 795 171 q 776 33 789 76 q 776 30 776 30 q 627 -30 708 -19 q 464 8 543 -41 l 464 8 m 1164 41 q 1099 -14 1156 8 l 1099 -14 q 993 -87 1042 -35 q 873 -155 933 -149 q 781 -103 814 -160 q 784 -5 768 -57 q 795 30 789 14 q 811 106 808 71 q 822 212 814 168 q 860 269 833 252 q 863 269 863 269 q 914 190 865 209 q 971 201 941 184 q 1017 233 1001 214 q 1023 233 1020 233 q 1080 220 1055 239 q 1104 165 1099 201 q 1126 106 1107 133 q 1164 41 1166 60 l 1164 41 m 469 811 q 472 811 469 811 l 472 811 q 491 792 480 803 q 567 765 518 768 q 651 792 613 768 q 651 792 651 792 q 692 822 675 806 q 700 838 711 836 q 692 833 694 838 q 684 825 689 830 q 675 819 681 822 q 646 798 659 806 q 567 770 613 776 q 499 798 524 773 q 477 817 486 808 q 477 817 477 817 q 475 822 475 819 q 467 830 472 827 q 469 811 458 827 l 469 811 z "},"":{"ha":1389,"x_min":22,"x_max":1367,"o":"m 694 1194 q 355 1101 507 1191 l 355 1101 q 114 860 203 1012 l 114 860 q 22 521 24 708 q 114 182 24 334 q 355 -60 203 30 q 694 -152 507 -149 q 1034 -60 882 -149 q 1275 182 1185 30 q 1367 521 1364 334 q 1275 860 1364 708 q 1034 1101 1185 1012 q 694 1194 882 1191 l 694 1194 m 1139 884 q 1270 526 1264 732 q 1134 545 1251 532 q 868 543 1017 559 q 819 656 846 597 q 1055 798 977 727 q 1139 884 1131 865 l 1139 884 m 1074 949 q 998 868 1069 933 l 998 868 q 773 743 925 803 q 637 968 700 873 q 559 1080 575 1061 q 833 1077 697 1112 q 1074 949 968 1044 l 1074 949 m 450 1039 q 526 930 464 1023 l 526 930 q 662 708 589 838 q 307 646 456 656 q 133 637 157 635 q 244 876 160 773 q 450 1039 328 982 l 450 1039 m 119 521 q 119 537 119 529 q 317 545 146 534 q 711 618 488 559 q 757 521 735 570 q 469 366 600 475 q 269 136 339 258 q 119 521 125 293 l 119 521 m 342 68 q 505 263 388 163 l 505 263 q 798 426 621 363 q 884 149 857 266 q 920 -8 914 33 q 624 -52 779 -68 q 342 68 472 -33 l 342 68 m 1015 43 q 985 184 1012 73 l 985 184 q 903 453 960 296 q 1142 453 1042 472 q 1261 429 1242 437 q 1177 209 1242 309 q 1015 43 1112 111 l 1015 43 z "},"":{"ha":1215,"x_min":0,"x_max":1215,"o":"m 1153 401 q 1164 521 1164 458 q 1001 914 1158 757 q 608 1077 844 1072 q 488 1066 548 1077 q 304 1128 410 1126 q 90 1039 174 1126 q 0 825 3 955 q 62 640 3 719 q 52 521 52 583 q 214 127 57 285 q 608 -35 372 -30 q 727 -24 667 -35 q 911 -87 806 -84 q 1126 3 1039 -84 q 1215 217 1213 90 q 1153 401 1213 323 l 1153 401 m 624 155 q 393 206 488 155 l 393 206 q 298 331 301 255 q 317 388 298 363 q 377 412 336 412 q 461 363 429 407 q 521 315 486 339 q 616 290 556 293 q 732 363 727 296 q 703 412 730 396 q 627 437 675 426 q 618 439 621 437 q 572 450 594 445 q 380 515 456 472 q 298 675 301 559 q 393 846 304 795 q 594 895 486 895 q 800 854 711 895 q 895 746 890 814 q 873 684 892 711 q 811 659 852 659 q 738 697 765 662 q 689 732 716 716 q 608 749 659 749 q 494 689 499 751 q 529 640 494 654 q 637 608 564 624 q 681 600 659 605 q 846 537 770 583 q 928 388 922 491 q 833 212 922 269 q 624 155 741 155 l 624 155 z "},"":{"ha":998,"x_min":0,"x_max":998,"o":"m 876 1207 l 136 1207 q 30 1164 60 1204 q 0 1082 0 1120 l 0 -95 q 19 -155 3 -136 q 49 -176 35 -171 q 90 -182 62 -182 q 138 -157 117 -179 q 385 127 309 41 q 477 236 461 217 q 494 255 496 258 q 494 255 494 255 q 510 263 502 266 q 513 263 513 263 l 738 263 q 830 301 806 266 q 857 369 852 336 q 860 372 860 369 l 990 1031 q 876 1207 1034 1204 l 876 1207 m 833 1006 l 800 844 q 757 808 792 814 l 467 808 q 412 754 415 806 l 412 719 q 467 662 415 667 l 713 662 q 743 648 730 662 q 751 613 754 632 q 735 529 746 589 q 722 453 724 472 q 675 418 716 426 l 477 418 q 437 412 450 418 q 404 382 420 404 q 363 334 410 391 q 163 90 320 279 q 157 90 157 87 l 157 1009 q 201 1055 160 1047 l 795 1055 q 833 1006 836 1050 l 833 1006 z "},"":{"ha":1215,"x_min":0,"x_max":1215,"o":"m 1063 1128 l 152 1128 q 43 1085 87 1126 q 0 977 3 1042 q 0 977 0 977 q 0 944 0 985 q 0 705 0 901 q 0 65 0 513 q 43 -43 3 0 q 152 -87 87 -84 l 1063 -87 q 1172 -41 1128 -84 q 1215 65 1213 0 l 1215 977 q 1172 1082 1213 1042 q 1063 1128 1128 1126 l 1063 1128 m 534 209 q 461 136 529 141 l 236 136 q 184 157 206 136 q 163 209 165 176 l 163 898 q 184 949 165 928 q 236 971 206 971 l 461 971 q 513 949 494 971 q 534 898 534 928 l 534 209 l 534 209 m 1058 513 q 1036 461 1058 480 l 1036 461 q 985 439 1017 439 l 765 439 q 713 461 735 439 q 692 513 694 480 l 692 898 q 713 949 694 928 q 765 971 735 968 l 985 971 q 1036 949 1017 968 q 1058 898 1058 928 l 1058 513 l 1058 513 z "},"":{"ha":1345,"x_min":0,"x_max":1345,"o":"m 673 1194 q 334 1101 486 1191 l 334 1101 q 92 860 182 1012 l 92 860 q 0 521 3 708 q 92 182 3 334 q 334 -60 182 30 q 673 -152 486 -149 q 1012 -60 860 -149 q 1253 182 1164 30 q 1345 521 1343 334 q 1253 860 1343 708 q 1012 1101 1164 1012 q 673 1194 860 1191 l 673 1194 m 985 581 l 678 165 l 372 581 q 347 667 350 608 q 410 776 345 727 q 515 792 467 808 q 594 743 564 779 q 678 708 629 705 q 762 743 727 708 q 841 792 789 779 q 947 776 890 808 q 1006 667 1009 727 q 985 581 1006 608 l 985 581 z "},"":{"ha":1215,"x_min":0,"x_max":1215,"o":"m 84 1044 q 11 865 24 982 l 11 865 q 0 545 -3 749 l 0 496 q 11 176 -3 293 q 84 -3 24 60 q 263 -76 146 -62 q 583 -87 380 -90 l 632 -87 q 952 -76 836 -90 q 1131 -3 1069 -62 q 1204 176 1191 60 q 1215 496 1218 293 l 1215 545 q 1204 865 1218 749 q 1131 1044 1191 982 q 952 1118 1069 1104 q 632 1128 836 1131 l 583 1128 q 263 1118 380 1131 q 84 1044 146 1104 l 84 1044 m 206 760 l 345 760 q 410 505 350 586 q 532 410 467 423 l 532 760 l 662 760 l 662 559 q 779 624 724 567 q 854 760 833 681 l 985 760 q 922 613 968 681 q 808 507 876 548 q 939 401 884 469 q 1015 252 993 336 l 871 252 q 795 374 852 326 q 662 434 738 423 l 662 252 l 646 252 q 326 388 437 255 q 206 760 212 521 l 206 760 z "},"":{"ha":1389,"x_min":0,"x_max":1386,"o":"m 1104 732 q 1085 819 1118 784 l 1085 819 q 1004 846 1053 854 q 949 882 958 844 q 985 936 941 920 q 1153 879 1090 952 q 1191 705 1218 808 q 1134 675 1172 665 q 1104 732 1096 689 l 1104 732 m 583 3 q 304 49 437 3 l 304 49 q 87 176 171 92 l 87 176 q 0 374 3 258 q 206 762 5 559 q 467 944 345 898 q 651 949 589 990 q 678 779 713 909 q 686 757 673 757 q 708 762 700 757 q 711 762 711 762 q 974 795 879 830 q 1020 624 1069 762 q 1042 586 1009 591 q 1210 385 1223 524 q 1031 130 1196 247 q 583 3 863 11 l 583 3 m 974 401 q 833 581 958 515 l 833 581 q 529 632 708 648 q 244 524 353 613 q 141 317 133 434 q 282 136 155 203 q 583 87 407 71 q 871 195 760 106 q 974 401 979 285 l 974 401 m 944 1120 q 903 1058 892 1101 l 903 1058 q 966 1017 914 1012 q 1145 990 1066 1034 q 1261 863 1226 947 q 1270 681 1299 779 q 1305 613 1261 629 q 1370 648 1348 600 q 1359 903 1411 787 q 1196 1082 1310 1020 q 944 1120 1085 1147 l 944 1120 m 730 277 q 608 160 692 195 l 608 160 q 434 152 524 125 q 320 250 350 179 q 326 393 290 317 q 442 502 363 467 q 605 515 521 537 q 730 423 692 491 q 730 277 765 358 l 730 277 m 496 358 q 439 358 469 369 l 439 358 q 393 323 412 350 q 418 231 361 263 q 475 228 445 220 q 524 266 505 239 q 496 358 553 326 l 496 358 m 586 393 q 545 380 562 399 q 556 345 534 355 q 597 358 581 336 q 586 393 608 382 l 586 393 z "},"":{"ha":1389,"x_min":22,"x_max":1367,"o":"m 581 757 q 469 353 578 529 l 469 353 q 179 84 358 174 q 22 518 27 266 q 182 955 27 773 q 581 1180 336 1137 l 581 757 l 581 757 m 692 -152 q 372 -71 515 -149 q 575 111 488 5 q 692 350 659 220 q 811 111 724 220 q 1015 -71 895 5 q 692 -152 871 -149 l 692 -152 m 1210 84 q 920 353 1031 174 l 920 353 q 808 757 811 529 l 808 1180 q 1207 955 1053 1137 q 1367 518 1362 773 q 1210 84 1362 266 l 1210 84 z "},"":{"ha":1042,"x_min":0,"x_max":1042,"o":"m 1042 366 q 901 187 985 231 l 901 187 q 732 155 817 144 l 732 155 q 591 193 648 165 l 591 193 q 534 220 537 217 q 320 -46 450 52 q 33 -144 193 -141 q 0 -111 0 -141 q 33 -79 0 -84 q 274 3 165 -76 q 458 220 385 81 q 323 193 401 195 q 163 244 241 190 q 22 442 81 296 q 266 486 168 502 q 423 420 363 472 q 505 320 480 369 q 564 534 545 418 q 464 532 556 532 q 274 589 372 534 q 157 803 179 643 q 410 806 317 860 q 537 675 499 751 q 572 594 572 602 q 578 684 575 632 q 581 738 581 732 q 513 800 575 741 q 423 960 453 860 q 477 1185 393 1061 q 670 1020 640 1123 q 675 836 703 917 q 646 746 651 751 q 646 708 646 741 q 646 656 646 678 q 686 716 643 662 q 808 808 727 770 q 1015 811 890 849 q 909 575 1001 635 q 727 518 817 515 q 629 524 637 518 q 575 312 610 412 q 643 369 578 320 q 814 439 708 420 q 1042 366 920 458 l 1042 366 z "},"":{"ha":1215,"x_min":49,"x_max":1166,"o":"m 49 315 l 1166 315 l 1166 255 q 1115 125 1166 176 q 990 71 1066 71 l 939 71 l 703 -174 l 703 71 l 225 71 q 100 125 149 71 q 49 255 49 176 l 49 315 l 49 315 m 49 377 l 1166 377 l 1166 608 l 49 608 l 49 377 l 49 377 m 49 675 l 1166 675 l 1166 906 l 49 906 l 49 675 l 49 675 m 990 1215 l 225 1215 q 100 1161 149 1213 q 49 1031 49 1109 l 49 971 l 1166 971 l 1166 1031 q 1115 1161 1166 1109 q 990 1215 1066 1213 l 990 1215 z "},"":{"ha":1215,"x_min":0,"x_max":1215,"o":"m 1085 1128 l 130 1128 q 38 1090 76 1126 q 0 998 3 1053 l 0 43 q 38 -49 3 -11 q 130 -87 76 -84 l 1085 -87 q 1177 -49 1139 -84 q 1215 43 1213 -11 l 1215 998 q 1177 1090 1213 1053 q 1085 1128 1139 1126 l 1085 1128 m 1042 722 q 865 374 1036 597 q 564 146 686 146 q 437 285 488 146 q 407 391 420 342 q 345 608 372 532 q 282 684 317 681 q 214 643 271 684 l 174 694 q 231 743 201 719 q 342 841 290 800 q 429 884 393 882 q 553 746 529 895 q 627 431 591 486 q 735 502 662 380 q 792 632 789 589 q 754 705 798 697 q 670 692 713 711 q 914 895 735 903 q 1042 722 1050 892 l 1042 722 z "},"":{"ha":1215,"x_min":0,"x_max":1215,"o":"m 255 361 q 217 271 255 307 l 217 271 q 127 233 182 233 q 38 271 73 233 q 0 361 3 307 q 38 450 3 415 q 127 488 73 486 l 255 488 l 255 361 l 255 361 m 320 361 q 358 450 320 415 l 358 450 q 448 488 393 486 q 537 450 502 486 q 575 361 572 415 l 575 41 q 537 -49 572 -14 q 448 -87 502 -84 q 358 -49 393 -84 q 320 41 320 -14 l 320 361 l 320 361 m 448 873 q 358 911 393 873 l 358 911 q 320 1001 320 947 q 358 1090 320 1055 q 448 1128 393 1126 q 537 1090 502 1126 q 575 1001 572 1055 l 575 873 l 448 873 l 448 873 m 448 808 q 537 770 502 808 l 537 770 q 575 681 572 735 q 537 591 572 627 q 448 553 502 556 l 127 553 q 38 591 73 556 q 0 681 3 627 q 38 770 3 735 q 127 808 73 808 l 448 808 l 448 808 m 960 681 q 998 770 960 735 l 998 770 q 1088 808 1034 808 q 1177 770 1142 808 q 1215 681 1213 735 q 1177 591 1213 627 q 1088 553 1142 556 l 960 553 l 960 681 l 960 681 m 895 681 q 857 591 895 627 l 857 591 q 768 553 822 556 q 678 591 713 556 q 640 681 643 627 l 640 1001 q 678 1090 643 1055 q 768 1128 713 1126 q 857 1090 822 1126 q 895 1001 895 1055 l 895 681 l 895 681 m 768 168 q 857 130 822 168 l 857 130 q 895 41 895 95 q 857 -49 895 -14 q 768 -87 822 -84 q 678 -49 713 -84 q 640 41 643 -14 l 640 168 l 768 168 l 768 168 m 768 233 q 678 271 713 233 l 678 271 q 640 361 643 307 q 678 450 643 415 q 768 488 713 486 l 1088 488 q 1177 450 1142 486 q 1215 361 1213 415 q 1177 271 1213 307 q 1088 233 1142 233 l 768 233 l 768 233 z "},"":{"ha":1389,"x_min":22,"x_max":1367,"o":"m 168 757 l 442 3 q 209 212 296 73 q 117 521 119 347 q 168 757 119 648 l 168 757 m 1085 551 q 1036 708 1077 654 q 1031 719 1034 713 q 979 844 985 781 q 1006 917 979 887 q 1077 947 1034 947 q 1082 947 1080 947 q 1085 947 1085 947 q 694 1099 925 1093 q 418 1028 543 1096 q 212 838 290 958 q 250 838 233 838 q 347 841 298 838 q 404 844 399 844 q 404 844 404 844 q 429 822 426 844 q 407 798 429 803 q 342 792 399 795 l 551 165 l 678 545 l 589 792 q 526 798 534 795 q 505 822 505 800 q 532 844 507 844 q 586 841 534 844 q 684 838 635 838 q 781 841 732 838 q 836 844 833 844 q 836 844 836 844 q 863 822 860 844 q 841 798 863 803 q 776 792 833 795 l 982 171 l 1042 363 q 1047 382 1044 374 q 1085 551 1082 486 l 1085 551 m 705 469 l 532 -33 q 694 -57 610 -57 q 887 -24 795 -57 q 882 -16 884 -19 l 705 469 l 705 469 m 1202 798 q 1204 738 1204 770 q 1161 532 1207 654 l 985 22 q 1194 228 1115 98 q 1272 521 1270 358 q 1202 798 1270 673 l 1202 798 m 1367 521 q 1275 182 1364 334 l 1275 182 q 1034 -60 1185 30 l 1034 -60 q 694 -152 882 -149 q 355 -60 507 -149 q 114 182 203 30 q 22 521 24 334 q 114 860 24 708 q 355 1101 203 1012 q 694 1194 507 1191 q 1034 1101 882 1191 q 1275 860 1185 1012 q 1367 521 1364 708 l 1367 521 m 1337 521 q 1248 844 1335 700 l 1248 844 q 1017 1074 1164 990 l 1017 1074 q 694 1164 873 1161 q 372 1074 515 1161 q 141 844 225 990 q 52 521 54 700 q 141 198 54 342 q 372 -33 225 52 q 694 -122 515 -119 q 1017 -33 873 -119 q 1248 198 1164 52 q 1337 521 1335 342 l 1337 521 z "},"":{"ha":1215,"x_min":0,"x_max":1215,"o":"m 738 43 l 553 -43 q 160 90 312 -19 q 0 353 5 198 q 149 608 5 499 q 521 743 293 713 l 521 627 q 279 526 372 600 q 184 353 187 453 q 290 171 187 247 q 551 73 391 95 l 551 996 l 735 1085 l 735 43 l 738 43 m 1215 426 l 860 502 l 960 559 q 770 627 879 608 l 770 743 q 1096 637 960 719 l 1191 689 l 1215 426 l 1215 426 z "},"":{"ha":1389,"x_min":41,"x_max":1354,"o":"m 608 833 l 453 445 l 301 833 l 41 833 l 328 157 l 222 -87 l 477 -87 l 860 833 l 608 833 m 892 464 q 757 385 798 458 l 757 385 q 757 228 713 312 q 892 149 808 149 q 1031 228 979 149 q 1050 307 1050 263 q 1004 418 1050 374 q 892 464 960 464 l 892 464 m 1072 1128 l 819 524 l 1101 524 l 1354 1128 l 1072 1128 z "},"":{"ha":1324,"x_min":0,"x_max":1324,"o":"m 1324 505 q 1145 33 1318 212 l 1145 33 q 673 -152 968 -146 q 334 -60 486 -149 q 92 182 182 30 q 0 521 3 334 q 92 860 3 708 q 334 1101 182 1012 q 673 1194 486 1191 q 1123 1017 947 1188 l 941 841 q 656 944 814 955 q 380 825 499 936 q 255 521 263 711 q 377 220 260 339 q 673 95 496 100 q 887 149 806 98 q 1009 266 968 201 q 1055 385 1047 334 l 673 385 l 673 618 l 1313 618 q 1324 505 1324 570 l 1324 505 z "},"":{"ha":1389,"x_min":22,"x_max":1367,"o":"m 548 385 q 480 453 486 393 q 548 521 486 515 q 613 453 608 515 q 548 385 608 393 l 548 385 m 1367 521 q 1275 182 1364 334 l 1275 182 q 1034 -60 1185 30 l 1034 -60 q 694 -152 882 -149 q 355 -60 507 -149 q 114 182 203 30 q 22 521 24 334 q 114 860 24 708 q 355 1101 203 1012 q 694 1194 507 1191 q 1034 1101 882 1191 q 1275 860 1185 1012 q 1367 521 1364 708 l 1367 521 m 1009 632 q 944 605 968 632 q 711 678 849 670 l 757 890 l 909 857 q 974 789 914 795 q 1042 857 1036 795 q 974 925 1036 920 q 914 887 933 922 l 749 925 q 730 911 735 925 l 678 678 q 445 605 540 670 q 380 632 420 632 q 293 564 309 627 q 342 461 279 502 q 336 420 336 442 q 442 239 342 309 q 694 163 543 165 q 949 239 846 165 q 1055 420 1050 309 q 1050 464 1055 442 q 1096 564 1109 502 q 1009 632 1080 627 l 1009 632 m 822 317 q 694 279 779 279 l 694 279 q 567 317 610 282 q 545 317 556 326 q 545 293 534 304 q 694 247 600 247 q 844 293 789 247 q 844 317 854 304 q 822 317 833 326 l 822 317 m 844 521 q 776 453 781 515 q 844 385 781 393 q 909 453 903 393 q 844 521 903 515 l 844 521 z "},"":{"ha":1215,"x_min":0,"x_max":1215,"o":"m 768 277 q 768 252 779 266 q 608 203 711 203 q 448 252 505 203 q 448 277 437 266 q 472 277 458 288 q 608 239 515 239 q 743 277 697 239 q 768 277 757 288 l 768 277 m 521 423 q 448 496 515 491 q 377 423 382 491 q 448 353 382 358 q 499 374 480 353 q 521 423 521 393 l 521 423 m 768 496 q 694 423 700 491 q 716 374 694 393 q 768 353 735 353 q 838 423 833 358 q 768 496 833 491 l 768 496 m 1215 998 l 1215 43 q 1177 -49 1213 -11 q 1085 -87 1139 -84 l 130 -87 q 38 -49 76 -84 q 0 43 3 -11 l 0 998 q 38 1090 3 1053 q 130 1128 76 1126 l 1085 1128 q 1177 1090 1139 1126 q 1215 998 1213 1053 l 1215 998 m 944 616 q 876 589 903 616 q 624 665 773 659 l 675 892 l 836 857 q 857 806 838 827 q 909 787 879 787 q 960 808 939 787 q 982 857 979 827 q 960 909 979 890 q 909 930 939 930 q 844 890 865 928 l 665 930 q 646 917 651 933 l 589 665 q 342 586 442 656 q 271 616 312 616 q 176 543 193 610 q 228 434 160 475 q 222 388 222 412 q 336 193 228 271 q 608 111 445 114 q 882 193 773 114 q 993 388 990 271 q 987 434 996 412 q 1039 543 1055 477 q 944 616 1023 610 l 944 616 z "},"":{"ha":1345,"x_min":22,"x_max":1367,"o":"m 694 1194 q 355 1101 507 1191 l 355 1101 q 114 860 203 1012 l 114 860 q 22 521 24 708 q 114 182 24 334 q 355 -60 203 30 q 694 -152 507 -149 q 1034 -60 882 -149 q 1275 182 1185 30 q 1367 521 1364 334 q 1275 860 1364 708 q 1034 1101 1185 1012 q 694 1194 882 1191 l 694 1194 m 694 711 q 646 665 651 708 l 646 374 q 586 233 643 288 q 442 174 529 176 q 298 233 355 176 q 239 377 241 290 l 239 502 l 396 502 l 396 377 q 442 331 399 334 q 491 377 488 334 l 491 673 q 551 811 494 757 q 694 868 610 865 q 838 811 779 865 q 898 670 895 754 l 898 608 l 806 581 l 743 608 l 743 665 q 694 711 738 708 l 694 711 m 1150 377 q 1090 233 1147 290 l 1090 233 q 947 174 1034 176 q 803 233 860 176 q 743 374 746 290 l 743 502 l 806 472 l 898 499 l 898 372 q 947 326 901 328 q 993 372 990 328 l 993 502 l 1150 502 q 1150 393 1150 412 q 1150 377 1150 372 l 1150 377 z "},"":{"ha":1389,"x_min":0,"x_max":1364,"o":"m 1364 494 l 1364 304 q 1275 90 1362 176 q 1061 0 1188 3 q 844 87 930 3 q 754 301 757 174 l 754 491 l 846 448 l 987 491 l 987 298 q 1058 225 993 233 q 1109 247 1090 228 q 1131 298 1131 269 l 1131 494 l 1364 494 l 1364 494 m 754 651 l 849 608 l 987 648 l 987 746 q 895 955 982 873 q 684 1042 811 1039 q 469 955 556 1039 q 377 749 382 873 l 377 307 q 307 236 372 241 q 233 307 239 241 l 233 494 l 0 494 l 0 304 q 90 90 3 176 q 304 0 176 3 q 521 87 434 3 q 610 301 608 174 l 610 735 q 632 787 610 765 q 684 808 651 808 q 732 787 713 808 q 754 735 754 765 l 754 651 l 754 651 z "},"":{"ha":1215,"x_min":0,"x_max":1215,"o":"m 1213 1031 q 1210 1036 1210 1034 l 1210 1036 q 1207 1042 1207 1039 q 1199 1063 1204 1053 q 1185 1080 1194 1072 q 1166 1099 1177 1090 q 1158 1107 1164 1104 q 1158 1107 1158 1107 q 1147 1112 1153 1109 q 1131 1120 1139 1118 q 1118 1123 1126 1123 q 1085 1128 1101 1128 l 130 1128 q 38 1090 76 1126 q 0 998 3 1053 l 0 43 q 5 11 0 27 q 35 -43 14 -22 q 43 -54 38 -49 q 98 -84 65 -76 q 130 -87 114 -87 l 1085 -87 q 1177 -49 1139 -87 q 1215 43 1215 -11 l 1215 998 q 1213 1031 1215 1015 l 1213 1031 m 1128 43 q 1085 0 1126 3 l 608 0 l 608 521 l 87 521 l 87 998 q 130 1042 90 1039 l 608 1042 l 608 521 l 1128 521 l 1128 43 z "},"":{"ha":1389,"x_min":0,"x_max":1389,"o":"m 222 749 l 0 749 l 0 274 l 361 274 l 361 955 l 222 955 l 222 749 l 222 749 m 222 385 l 138 385 l 138 637 l 222 637 l 222 385 l 222 385 m 1028 749 l 1028 274 l 1251 274 l 1251 198 l 1028 198 l 1028 87 l 1389 87 l 1389 749 l 1028 749 l 1028 749 m 1251 385 l 1166 385 l 1166 637 l 1251 637 l 1251 385 l 1251 385 m 610 274 l 833 274 l 833 198 l 610 198 l 610 87 l 971 87 l 971 749 l 610 749 l 610 274 l 610 274 m 749 637 l 833 637 l 833 385 l 749 385 l 749 637 l 749 637 m 415 955 l 556 955 l 556 817 l 415 817 l 415 955 l 415 955 m 415 749 l 556 749 l 556 274 l 415 274 l 415 749 l 415 749 z "},"":{"ha":1215,"x_min":0,"x_max":1215,"o":"m 556 741 q 532 667 556 697 l 532 667 q 472 637 507 640 q 423 648 442 637 l 423 833 q 472 844 442 844 q 532 814 507 844 q 556 741 556 784 l 556 741 m 700 559 q 654 548 670 559 l 654 363 q 700 353 670 353 q 760 385 735 355 q 787 456 784 412 q 760 529 784 502 q 700 559 735 559 l 700 559 m 1215 998 l 1215 43 q 1177 -49 1213 -11 q 1085 -87 1139 -84 l 130 -87 q 38 -49 76 -84 q 0 43 3 -11 l 0 998 q 38 1090 3 1053 q 130 1128 76 1126 l 1085 1128 q 1177 1090 1139 1126 q 1215 998 1213 1053 l 1215 998 m 502 524 q 643 586 589 526 l 643 586 q 703 738 700 648 q 643 892 700 830 q 502 955 589 952 q 407 930 453 955 l 285 930 l 285 372 l 426 399 l 426 537 q 502 524 458 524 l 502 524 m 930 456 q 873 608 930 545 l 873 608 q 732 670 817 667 q 705 670 719 670 q 654 578 689 618 q 513 510 594 515 l 513 87 l 654 114 l 654 252 q 730 239 689 239 q 873 301 817 241 q 930 456 930 363 l 930 456 z "},"":{"ha":1563,"x_min":19,"x_max":1544,"o":"m 662 548 q 635 556 648 556 q 608 551 621 556 q 583 545 594 548 l 586 532 l 662 548 m 1031 11 q 920 -5 987 11 l 920 -5 q 814 -43 852 -22 l 833 -165 q 1120 -138 977 -193 q 1112 -122 1118 -133 q 1072 -38 1096 -84 q 1031 11 1047 8 l 1031 11 m 925 735 q 977 689 944 727 l 977 689 q 987 675 979 681 q 987 675 987 675 q 1006 697 1001 684 q 993 722 1006 708 q 971 760 977 738 q 1039 779 1001 776 q 1072 784 1055 781 q 1470 1101 1348 846 q 1506 1210 1500 1153 l 1500 1202 q 1478 1166 1489 1183 q 1400 1044 1438 1090 q 1278 930 1364 996 q 990 784 1145 838 l 971 784 l 971 844 q 911 876 925 844 q 887 906 903 892 q 857 873 871 890 q 727 768 808 806 q 656 708 678 751 q 819 741 732 741 q 925 735 903 743 l 925 735 m 1508 1215 l 1506 1213 l 1506 1210 l 1506 1213 l 1508 1215 m 1345 179 q 1185 396 1280 301 l 1185 396 q 939 491 1090 491 l 939 507 q 968 526 939 526 q 1009 540 987 529 q 1034 591 1031 551 l 996 572 q 971 635 979 610 q 930 705 958 686 q 817 719 906 722 q 705 708 760 719 q 675 572 722 629 l 727 556 q 722 529 722 543 q 770 496 724 496 q 814 483 795 494 q 836 439 836 472 q 781 339 833 396 q 686 277 730 282 q 640 312 675 277 q 575 385 605 345 q 543 439 545 423 l 543 450 l 686 483 q 711 515 711 491 q 678 543 708 540 q 629 534 667 543 q 562 518 591 526 q 543 515 548 515 q 507 553 534 545 q 491 548 499 553 q 480 543 486 545 q 464 540 475 540 q 426 526 442 537 q 423 488 407 515 l 43 404 q 19 374 19 399 q 52 345 22 347 q 155 363 68 345 q 331 404 241 382 q 450 431 423 426 q 456 426 453 429 q 472 407 461 415 q 562 298 510 374 q 627 214 597 252 q 678 176 659 176 q 787 212 730 176 q 871 288 841 247 q 906 307 884 309 q 854 233 898 274 q 817 190 822 206 q 814 127 814 165 q 817 76 814 92 q 947 79 882 62 q 1025 84 985 84 q 1034 122 1031 103 q 1053 258 1053 190 l 1053 282 q 1031 372 1050 345 q 977 429 1015 399 q 958 442 968 434 q 958 442 958 442 q 947 453 952 448 q 949 456 949 453 q 960 458 952 456 q 1101 353 1061 453 q 1158 127 1139 255 q 1194 -46 1172 35 q 1264 -165 1218 -125 q 1354 -127 1308 -146 q 1544 -38 1454 -90 q 1533 -30 1538 -33 q 1432 65 1478 19 q 1345 179 1386 114 l 1345 179 m 814 54 l 814 -19 l 846 -11 l 838 54 l 814 54 m 627 461 l 692 296 l 751 334 l 665 472 l 627 461 m 857 41 l 863 8 q 882 11 868 8 q 968 24 920 16 q 1020 46 1017 33 q 1020 54 1020 52 q 1017 60 1017 57 q 911 49 952 57 q 857 41 887 46 l 857 41 z "},"":{"ha":1215,"x_min":81,"x_max":1134,"o":"m 825 922 q 689 1066 749 993 l 689 1066 q 608 1215 629 1137 q 526 1066 586 1139 q 391 922 467 996 q 391 922 391 922 q 391 922 391 922 q 182 681 277 814 q 81 366 87 548 q 228 -11 81 141 q 597 -174 372 -163 q 971 -27 819 -174 q 1134 342 1123 119 q 1134 366 1134 353 q 1034 681 1128 548 q 825 922 939 814 q 825 922 825 922 l 825 922 m 353 317 q 309 252 328 288 q 301 244 307 247 l 296 244 q 279 255 288 244 q 271 266 271 266 q 271 266 271 266 l 271 266 q 263 285 266 274 l 260 290 q 247 399 239 345 q 255 458 252 453 l 255 458 q 317 594 277 532 q 377 667 345 632 l 401 643 l 518 524 q 518 505 526 513 l 396 369 l 396 369 l 353 317 m 613 -27 q 456 62 505 -22 l 456 62 q 458 247 407 149 q 477 274 467 260 q 543 345 507 309 q 616 426 575 380 q 754 269 700 334 q 762 255 760 263 q 795 152 795 209 q 743 24 792 76 q 613 -27 692 -27 l 613 -27 m 955 260 l 955 260 q 939 247 952 250 l 936 247 q 920 260 925 250 l 920 260 q 811 393 871 331 l 762 445 l 602 610 q 507 708 553 656 q 505 713 505 711 q 491 738 496 724 l 491 741 q 515 817 486 787 q 608 911 564 863 q 703 814 654 860 q 711 806 708 811 l 711 806 q 898 591 814 708 q 971 366 971 491 q 955 260 971 312 l 955 260 z "},"":{"ha":1215,"x_min":0,"x_max":1215,"o":"m 3 966 q 49 1080 3 1036 l 49 1080 q 163 1128 95 1126 q 269 1090 225 1128 q 326 993 315 1053 q 586 911 461 1028 l 467 789 q 382 830 423 830 q 315 800 342 827 q 288 730 288 770 q 315 659 288 689 l 586 388 l 467 269 q 328 407 363 372 q 279 453 293 439 q 252 483 271 464 q 195 540 236 499 q 125 665 141 594 q 127 808 109 738 q 38 863 73 819 q 3 966 3 906 l 3 966 m 353 648 l 472 529 q 472 529 472 529 q 548 605 491 545 q 667 724 608 665 q 743 800 727 784 q 814 830 773 830 q 884 800 854 830 q 914 732 911 773 q 876 651 914 692 l 996 529 q 1072 803 1118 662 q 1172 857 1134 814 q 1213 966 1213 903 q 1166 1080 1213 1036 q 1053 1128 1120 1126 q 944 1088 987 1128 q 890 987 901 1050 q 749 993 819 1009 q 624 920 678 974 q 521 819 589 884 q 393 689 456 751 q 353 648 372 667 l 353 648 m 1074 236 q 1074 372 1093 304 l 1074 372 q 1004 491 1055 439 q 996 502 998 496 q 977 521 990 507 q 909 586 963 534 q 735 762 857 640 l 613 643 l 884 372 q 914 301 914 342 q 884 231 914 260 q 817 201 857 203 q 735 239 776 201 l 616 119 q 746 41 673 60 q 892 43 822 22 q 949 -49 906 -14 q 1053 -87 993 -84 q 1166 -38 1123 -84 q 1215 76 1213 8 q 1175 184 1215 138 q 1074 236 1137 228 l 1074 236 m 846 380 l 727 502 q 586 361 621 396 q 540 312 553 328 q 510 285 529 304 q 456 231 494 266 q 385 201 426 201 q 315 231 347 201 q 288 298 288 258 q 326 380 285 339 l 206 502 q 125 233 87 374 q 35 179 71 220 q 0 76 0 136 q 49 -38 3 5 q 163 -87 92 -84 q 266 -52 222 -87 q 320 41 307 -16 q 456 41 388 24 q 578 111 524 60 q 616 152 602 136 q 643 179 632 165 q 703 239 662 195 q 846 380 746 282 l 846 380 z "},"":{"ha":1563,"x_min":0,"x_max":1563,"o":"m 629 572 q 760 773 760 629 q 670 963 757 914 q 453 1012 581 1015 l 0 1012 l 0 49 l 467 49 q 700 117 602 49 q 806 328 800 182 q 629 572 806 515 l 629 572 m 212 846 l 410 846 q 510 825 469 849 q 553 738 553 803 q 518 648 553 675 q 426 621 483 621 l 212 621 l 212 846 l 212 846 m 437 212 l 212 212 l 212 477 l 442 477 q 594 339 589 483 q 548 239 591 269 q 437 212 505 212 l 437 212 m 1411 865 l 1020 865 l 1020 960 l 1411 960 l 1411 865 l 1411 865 m 1563 388 q 1476 654 1563 545 l 1476 654 q 1223 765 1389 760 q 966 659 1063 762 q 868 396 871 556 q 963 133 868 231 q 1223 30 1058 33 q 1549 266 1473 30 l 1381 266 q 1321 198 1364 220 q 1229 174 1275 174 q 1058 353 1061 179 l 1560 353 q 1563 388 1563 369 l 1563 388 m 1058 472 q 1218 621 1074 616 q 1370 472 1359 616 l 1058 472 l 1058 472 z "},"":{"ha":1215,"x_min":0,"x_max":1215,"o":"m 507 420 q 420 353 499 347 l 298 353 l 298 494 l 423 494 q 507 420 502 496 l 507 420 m 486 643 q 461 692 483 678 l 461 692 q 407 703 439 703 l 298 703 l 298 581 l 415 581 q 486 643 480 581 l 486 643 m 844 581 q 757 499 765 578 l 928 499 q 844 581 920 578 l 844 581 m 1215 998 l 1215 43 q 1177 -49 1213 -11 q 1085 -87 1139 -84 l 130 -87 q 38 -49 76 -84 q 0 43 3 -11 l 0 998 q 38 1090 3 1053 q 130 1128 76 1126 l 1085 1128 q 1177 1090 1139 1126 q 1215 998 1213 1053 l 1215 998 m 738 713 l 949 713 l 949 765 l 738 765 l 738 713 l 738 713 m 621 415 q 526 553 621 521 q 597 654 597 581 q 548 757 594 730 q 431 784 499 784 l 184 784 l 184 263 l 437 263 q 564 298 510 263 q 621 415 618 336 l 621 415 m 1031 453 q 985 600 1031 540 l 985 600 q 846 659 936 656 q 708 602 760 656 q 654 458 656 545 q 705 317 656 369 q 846 260 757 263 q 1025 388 982 260 l 933 388 q 901 353 925 363 q 852 339 876 339 q 757 434 760 342 l 1031 434 q 1031 442 1031 437 q 1031 453 1031 448 l 1031 453 z "},"":{"ha":1345,"x_min":0,"x_max":1345,"o":"m 1345 521 q 1253 182 1343 334 l 1253 182 q 1012 -60 1164 30 l 1012 -60 q 673 -152 860 -149 q 260 -14 437 -146 q 24 336 87 122 l 282 231 q 347 122 296 165 q 469 79 399 79 q 605 136 551 79 q 659 277 659 193 l 887 439 q 1072 513 998 439 q 1147 694 1145 583 q 1074 873 1145 803 q 895 947 1001 944 q 713 873 787 944 q 640 694 643 803 l 640 692 l 480 458 q 361 426 415 461 l 0 575 q 214 1015 27 841 q 673 1194 399 1188 q 1012 1101 860 1191 q 1253 860 1164 1012 q 1345 521 1343 708 l 1345 521 m 423 174 l 339 206 q 412 138 363 157 q 524 136 469 114 q 600 214 575 157 q 602 323 624 269 q 524 401 578 377 q 418 401 469 423 l 505 366 q 562 309 545 350 q 562 231 575 271 q 502 174 543 190 q 423 174 464 157 l 423 174 m 895 526 q 773 575 822 526 l 773 575 q 724 694 727 621 q 773 814 727 765 q 895 863 822 863 q 1015 814 966 863 q 1063 694 1061 765 q 1015 575 1061 621 q 895 526 966 526 l 895 526 m 895 567 q 985 605 949 570 l 985 605 q 1023 694 1020 640 q 985 784 1020 749 q 895 822 949 819 q 803 784 841 819 q 768 694 768 749 q 806 605 768 640 q 895 567 841 570 l 895 567 z "},"":{"ha":1215,"x_min":0,"x_max":1215,"o":"m 502 247 q 502 323 518 288 l 502 323 q 450 377 488 361 l 369 410 q 469 410 418 429 q 540 336 518 385 q 540 233 562 285 q 467 163 518 182 q 366 163 418 141 q 296 228 317 182 l 374 195 q 448 195 412 179 q 502 247 486 209 l 502 247 m 1085 1128 l 130 1128 q 38 1090 76 1126 q 0 998 3 1053 l 0 562 l 317 431 q 426 461 366 467 l 578 681 l 578 684 q 646 852 581 784 q 814 920 713 917 q 982 852 914 917 q 1053 684 1050 784 q 979 513 1050 581 q 808 445 911 445 l 594 293 q 545 160 597 212 q 418 106 494 109 q 304 146 350 109 q 241 250 255 187 l 0 350 l 0 43 q 38 -49 3 -11 q 130 -87 76 -84 l 1085 -87 q 1177 -49 1139 -84 q 1215 43 1213 -11 l 1215 998 q 1177 1090 1213 1053 q 1085 1128 1139 1126 l 1085 1128 m 814 524 q 703 572 749 526 l 703 572 q 656 684 659 616 q 703 795 659 751 q 814 841 749 838 q 928 795 882 838 q 974 684 971 751 q 928 572 971 616 q 814 524 882 526 l 814 524 m 814 564 q 898 600 865 567 l 898 600 q 933 684 933 632 q 898 768 933 735 q 814 803 865 800 q 730 768 765 800 q 697 684 697 735 q 730 600 697 632 q 814 564 765 567 l 814 564 z "},"":{"ha":1345,"x_min":0,"x_max":1345,"o":"m 673 1194 q 334 1101 486 1191 l 334 1101 q 92 860 182 1012 l 92 860 q 0 521 3 708 q 92 182 3 334 q 334 -60 182 30 q 673 -152 486 -149 q 1012 -60 860 -149 q 1253 182 1164 30 q 1345 521 1343 334 q 1253 860 1343 708 q 1012 1101 1164 1012 q 673 1194 860 1191 l 673 1194 m 947 203 q 917 214 930 203 q 646 301 789 288 q 355 279 502 312 q 350 277 353 279 q 323 274 334 274 q 282 315 282 277 q 317 361 285 355 q 651 388 486 399 q 960 290 814 374 q 987 244 987 279 q 947 203 982 206 l 947 203 m 1020 382 q 990 391 1001 382 l 990 391 q 985 393 987 393 q 684 494 854 469 q 339 472 510 518 q 328 469 334 472 q 307 467 317 467 q 252 518 258 469 q 296 575 252 562 q 415 602 350 591 q 562 610 477 610 q 1042 488 833 610 q 1072 434 1072 469 q 1020 382 1066 385 l 1020 382 m 1104 589 q 1069 600 1085 589 q 697 705 914 686 q 307 678 483 727 q 301 678 304 678 q 271 673 288 673 q 209 735 212 678 q 255 800 214 792 q 575 844 399 844 q 871 811 724 844 q 1131 713 1015 779 q 1166 651 1164 697 q 1104 589 1158 591 l 1104 589 z "},"":{"ha":868,"x_min":0,"x_max":868,"o":"m 868 963 l 602 477 l 621 450 l 868 450 l 868 103 l 431 103 l 396 79 l 277 -149 q 255 -171 269 -155 q 252 -174 252 -174 l 0 -174 l 0 79 l 252 567 l 233 591 l 0 591 l 0 936 l 423 936 l 461 963 l 578 1191 q 600 1213 586 1196 q 602 1215 602 1215 l 868 1215 l 868 963 l 868 963 z "},"":{"ha":1736,"x_min":0,"x_max":1736,"o":"m 301 521 l 317 345 l 301 157 q 290 146 301 146 q 279 157 279 146 l 263 345 l 279 521 q 290 532 279 529 q 301 521 301 529 l 301 521 m 361 643 q 347 629 347 643 l 334 345 l 347 157 q 361 144 347 146 q 374 157 372 146 l 388 345 l 374 629 q 361 643 372 643 l 361 643 m 429 708 q 415 694 415 708 l 401 342 l 415 157 q 429 144 415 144 q 445 157 442 144 l 458 342 l 445 694 q 429 708 442 708 l 429 708 m 19 448 q 14 439 14 448 l 0 345 l 14 250 q 19 241 14 241 q 27 250 24 241 l 41 345 l 27 439 q 19 448 24 448 l 19 448 m 84 507 q 76 499 79 505 l 60 345 l 76 193 q 84 184 79 184 q 92 190 90 184 l 111 345 l 92 499 q 84 507 90 505 l 84 507 m 152 537 q 144 529 144 537 l 127 345 l 144 165 q 152 157 144 157 q 160 165 160 157 l 179 345 l 160 529 q 152 537 160 537 l 152 537 m 220 543 q 212 534 212 543 l 195 345 l 212 160 q 220 149 212 149 q 231 160 231 149 l 250 345 l 231 534 q 220 543 231 543 l 220 543 m 876 844 q 865 849 871 846 q 849 844 854 846 q 841 825 841 836 l 841 822 l 830 342 l 836 255 l 841 168 q 865 146 844 146 q 887 168 887 146 l 898 342 l 887 825 q 876 844 887 838 l 876 844 m 803 803 q 792 806 798 806 q 779 803 784 806 q 770 784 770 798 l 768 779 l 762 345 q 762 320 762 350 q 770 165 762 293 l 770 165 q 773 152 770 157 q 792 144 781 144 q 806 149 800 144 q 814 165 814 157 l 814 184 l 822 342 l 814 784 q 803 803 811 798 l 803 803 m 502 741 q 486 724 486 741 l 472 345 l 486 160 q 502 146 488 146 q 518 160 515 146 l 532 345 l 518 724 q 502 741 515 741 l 502 741 m 1522 572 q 1440 553 1478 570 q 1318 798 1424 703 q 1066 898 1215 895 q 928 871 990 898 q 906 846 906 865 l 906 171 q 930 144 909 149 l 1522 144 q 1674 206 1614 146 q 1736 358 1733 266 q 1674 507 1733 448 q 1522 572 1614 570 l 1522 572 m 719 735 q 697 713 700 732 l 689 342 l 697 165 q 719 144 700 146 q 738 165 738 146 l 749 342 l 738 713 q 719 735 735 732 l 719 735 m 572 757 q 556 738 556 754 l 545 345 l 556 163 q 572 144 559 146 q 591 163 589 146 l 602 345 l 591 738 q 572 757 589 754 l 572 757 m 646 746 q 627 727 627 746 l 616 345 l 627 163 q 646 144 629 146 q 665 163 662 146 l 675 345 l 665 727 q 646 746 662 746 l 646 746 z "},"":{"ha":1042,"x_min":0,"x_max":1042,"o":"m 1042 524 l 1042 382 q 901 366 966 366 q 716 90 819 206 q 562 -57 613 -27 q 445 -54 507 -92 q 317 62 404 -35 q 141 369 231 160 q 0 936 49 581 l 203 936 q 326 429 241 618 q 513 117 410 239 q 719 407 629 236 q 559 564 616 461 q 502 803 502 670 q 575 1025 502 939 q 779 1115 646 1112 q 990 1020 930 1109 q 1042 814 1047 930 q 1001 624 1036 700 q 930 621 993 618 q 827 678 868 621 q 849 811 846 732 q 773 936 846 936 q 689 800 694 936 q 795 564 694 637 q 1042 524 895 491 l 1042 524 z "},"":{"ha":1389,"x_min":0,"x_max":1389,"o":"m 1362 781 l 727 1204 q 662 1204 694 1226 l 27 781 q 0 732 0 765 l 0 309 q 27 260 0 279 l 662 -163 q 727 -163 694 -184 l 1362 260 q 1389 309 1389 279 l 1389 732 q 1362 781 1389 765 l 1362 781 m 754 1044 l 1221 732 l 1012 594 l 754 765 l 754 1044 l 754 1044 m 635 1044 l 635 765 l 377 594 l 168 732 l 635 1044 l 635 1044 m 119 621 l 269 521 l 119 420 l 119 621 l 119 621 m 635 -3 l 168 309 l 377 448 l 635 277 l 635 -3 l 635 -3 m 694 380 l 483 521 l 694 662 l 906 521 l 694 380 l 694 380 m 754 -3 l 754 277 l 1012 448 l 1221 309 l 754 -3 l 754 -3 m 1270 420 l 1120 521 l 1270 621 l 1270 420 l 1270 420 z "},"":{"ha":1563,"x_min":14,"x_max":1546,"o":"m 1386 572 q 1367 600 1367 581 q 1364 629 1367 616 q 1343 732 1359 684 q 1183 949 1291 871 q 939 1042 1072 1028 q 673 982 803 1053 q 496 808 562 920 q 488 814 491 811 q 475 819 480 817 q 244 795 350 871 q 155 586 138 716 q 141 562 155 572 q 30 410 60 499 q 30 222 0 320 q 138 68 60 127 q 315 3 214 8 q 502 0 410 0 q 562 0 532 0 q 746 0 654 0 q 1245 3 996 0 q 1435 71 1354 5 q 1538 239 1514 133 q 1522 429 1563 339 q 1386 572 1478 518 l 1386 572 m 1443 146 q 1248 49 1367 52 q 920 49 1085 46 q 787 49 852 49 q 673 46 779 46 q 458 49 564 46 q 342 49 350 49 q 84 212 160 49 q 73 385 46 298 q 176 526 98 472 q 203 589 214 545 q 277 760 184 697 q 472 768 369 822 q 483 760 477 765 q 507 751 496 751 q 532 773 518 751 q 697 941 589 882 q 974 987 833 1012 q 1215 857 1115 963 q 1321 581 1313 751 q 1348 537 1318 551 q 1492 363 1465 477 q 1443 146 1522 250 l 1443 146 m 1204 363 q 1139 258 1191 298 l 1139 258 q 1023 214 1090 217 q 903 263 955 217 q 803 363 860 304 q 716 450 760 410 q 643 515 675 491 q 480 505 559 575 q 437 372 415 442 q 524 271 456 301 q 662 296 589 239 q 675 312 670 304 q 697 331 686 323 q 730 334 716 342 q 732 301 746 326 q 637 228 694 247 q 518 222 581 206 q 423 293 458 241 q 385 412 388 342 q 483 564 391 507 q 665 559 578 618 q 833 396 768 475 q 955 285 895 326 q 1058 266 1006 252 q 1142 331 1109 279 q 1147 461 1177 401 q 1055 537 1118 521 q 928 502 990 556 q 917 491 922 496 q 898 472 909 480 q 865 472 873 458 q 863 499 854 486 q 1088 575 949 621 q 1185 494 1153 551 q 1204 363 1215 434 l 1204 363 z "},"":{"ha":1389,"x_min":33,"x_max":1354,"o":"m 697 -152 q 355 -57 505 -149 l 355 -57 q 117 193 203 38 l 117 193 q 35 537 33 347 q 122 841 41 700 q 353 1080 203 982 q 353 1082 353 1082 q 355 1080 355 1082 q 279 971 339 1069 q 206 738 220 873 q 317 464 193 600 q 439 404 385 401 q 526 429 494 404 q 562 458 559 453 q 562 458 562 458 q 608 608 610 529 q 583 741 602 686 q 559 800 562 798 q 488 879 534 852 q 434 909 439 909 q 434 909 434 909 l 513 996 q 597 930 564 968 q 629 890 629 892 q 629 890 629 890 q 602 1004 629 952 q 572 1055 575 1053 l 692 1194 l 811 1058 q 762 944 773 996 q 754 887 751 892 q 754 887 754 887 q 825 966 784 936 q 871 996 868 993 q 871 996 871 996 l 949 909 q 860 846 892 884 q 825 800 825 806 q 825 800 825 800 q 781 637 789 738 q 827 456 773 537 q 928 404 873 399 q 1023 434 982 407 q 1063 461 1063 458 q 1063 461 1063 461 q 1177 662 1166 559 q 1156 860 1191 768 q 1080 1012 1120 955 q 1036 1072 1039 1072 q 1031 1082 1025 1082 q 1039 1080 1036 1082 q 1245 887 1147 1012 q 1354 524 1343 765 q 1172 38 1351 222 q 697 -152 990 -146 l 697 -152 z "},"":{"ha":1345,"x_min":0,"x_max":1345,"o":"m 781 1069 q 689 1077 735 1077 l 689 1128 q 979 1044 849 1120 q 1191 838 1109 968 l 1147 814 q 1093 887 1123 852 l 1044 844 q 768 1004 936 968 l 781 1069 l 781 1069 m 144 342 l 206 361 q 179 521 182 437 q 206 681 179 605 l 144 700 q 182 784 160 746 l 138 811 q 65 521 68 678 q 138 231 68 363 l 182 255 q 144 342 160 296 l 144 342 m 578 38 q 301 198 410 73 l 252 155 q 198 228 222 190 l 155 203 q 366 -3 236 76 q 656 -87 496 -79 l 656 -35 q 564 -27 610 -35 l 578 38 l 578 38 m 252 887 l 301 846 q 578 1004 410 968 l 567 1069 q 656 1077 610 1077 l 656 1128 q 366 1044 496 1120 q 155 838 236 968 l 198 814 q 252 887 222 854 l 252 887 m 1093 155 l 1044 198 q 768 38 936 73 l 781 -27 q 689 -35 735 -35 l 689 -87 q 979 -3 849 -79 q 1191 203 1109 76 l 1147 228 q 1093 155 1123 190 l 1093 155 m 1345 521 q 1253 182 1343 334 l 1253 182 q 1012 -60 1164 30 l 1012 -60 q 673 -152 860 -149 q 334 -60 486 -149 q 92 182 182 30 q 0 521 3 334 q 92 860 3 708 q 334 1101 182 1012 q 673 1194 486 1191 q 1012 1101 860 1191 q 1253 860 1164 1012 q 1345 521 1343 708 l 1345 521 m 1313 521 q 1226 844 1310 700 l 1226 844 q 996 1074 1139 987 l 996 1074 q 673 1161 852 1158 q 350 1074 494 1158 q 119 844 206 987 q 33 521 35 700 q 119 198 35 342 q 350 -33 206 54 q 673 -119 494 -117 q 996 -33 852 -117 q 1226 198 1139 54 q 1313 521 1310 342 l 1313 521 m 1207 811 l 1164 784 q 1202 700 1185 746 l 1139 681 q 1166 521 1166 605 q 1139 361 1164 437 l 1202 342 q 1164 258 1185 298 l 1207 233 q 1280 521 1278 361 q 1207 811 1278 678 l 1207 811 m 711 328 q 822 391 779 342 l 960 271 q 1034 396 1009 326 l 860 458 q 871 521 868 488 q 860 586 868 553 l 1034 646 q 960 770 1009 716 l 822 651 q 711 713 779 700 l 746 895 q 673 903 711 903 q 600 895 635 903 l 635 713 q 526 651 567 700 l 385 770 q 312 646 336 716 l 486 586 q 477 521 477 553 q 486 458 477 488 l 312 396 q 385 271 336 326 l 526 391 q 635 328 567 342 l 600 146 q 673 138 635 141 q 746 146 711 141 l 711 328 l 711 328 z "},"":{"ha":1215,"x_min":0,"x_max":1215,"o":"m 274 309 q 328 304 304 307 l 328 304 q 412 298 391 301 l 412 298 q 434 277 434 293 q 388 239 429 250 q 301 239 345 231 q 255 271 258 247 q 274 309 258 293 l 274 309 m 350 624 q 282 564 282 618 l 282 564 q 347 505 279 513 q 412 564 412 513 q 350 624 412 618 l 350 624 m 1215 998 l 1215 43 q 1177 -49 1213 -11 q 1085 -87 1139 -84 l 130 -87 q 38 -49 76 -84 q 0 43 3 -11 l 0 998 q 38 1090 3 1053 q 130 1128 76 1126 l 1085 1128 q 1177 1090 1139 1126 q 1215 998 1213 1053 l 1215 998 m 600 811 q 662 749 602 749 q 724 811 722 749 q 662 871 722 871 q 600 811 602 871 l 600 811 m 540 686 l 407 686 q 269 681 347 703 q 184 559 193 662 q 244 456 190 483 q 244 456 244 456 q 182 372 182 404 q 212 328 179 345 q 174 258 174 298 q 347 171 165 174 q 534 296 532 174 q 483 380 537 361 q 317 399 431 396 q 279 401 298 401 l 301 439 q 374 434 326 431 q 461 461 420 437 q 502 553 499 488 q 477 624 499 600 l 540 627 l 540 686 m 770 388 l 735 393 q 722 407 722 393 l 722 692 l 581 692 l 572 637 q 591 632 583 632 q 618 610 624 624 l 618 407 q 591 391 624 391 q 572 388 583 391 l 572 334 l 768 334 l 770 388 m 1042 361 l 1023 420 q 933 420 947 396 q 920 464 917 448 q 920 467 920 467 l 920 632 l 1023 632 l 1023 700 l 925 700 q 925 700 925 700 q 920 713 920 697 q 920 806 920 730 l 854 806 q 762 692 849 697 l 762 632 q 789 632 779 632 q 817 624 825 635 l 817 445 q 930 334 811 331 q 1042 361 993 336 l 1042 361 z "},"":{"ha":1389,"x_min":0,"x_max":1389,"o":"m 586 787 l 372 787 q 231 795 315 800 q 84 741 149 789 q 19 583 22 692 q 114 418 24 458 q 111 418 111 418 q 38 342 62 372 q 14 285 11 315 q 60 212 8 236 q 0 98 0 165 q 62 -3 -3 33 q 277 -38 127 -38 q 578 160 572 -35 q 496 293 581 266 q 231 326 412 320 q 168 331 201 328 l 203 388 q 320 380 244 377 q 458 426 396 385 q 526 572 521 469 q 486 684 521 648 l 586 692 l 586 787 m 415 130 q 342 71 410 87 l 342 71 q 203 71 271 57 l 203 71 q 130 122 136 81 q 160 182 133 155 q 247 176 209 179 q 382 163 347 171 q 415 130 418 155 l 415 130 m 277 494 q 182 545 206 499 l 182 545 q 184 637 160 591 l 184 637 q 279 686 209 684 q 372 637 347 684 q 369 545 393 591 q 277 494 347 499 l 277 494 m 637 222 l 637 309 q 667 312 656 312 q 705 320 700 315 q 713 339 713 326 l 713 662 q 705 681 713 675 q 670 697 697 686 q 637 708 656 700 l 651 798 l 879 798 l 879 339 q 898 317 876 317 l 952 309 l 952 222 l 637 222 m 781 884 q 681 985 684 887 q 781 1080 684 1080 q 882 985 879 1080 q 781 884 879 887 l 781 884 m 1389 266 q 1210 220 1310 225 q 1069 263 1112 220 q 1028 399 1028 304 l 1028 686 q 1028 689 1028 689 q 1017 697 1031 697 q 941 697 1004 700 l 941 795 q 1047 846 1015 803 q 1090 977 1082 887 l 1194 977 q 1194 882 1194 914 q 1196 814 1194 825 q 1204 808 1196 806 l 1359 808 l 1359 697 l 1194 697 l 1194 434 q 1194 431 1194 434 q 1199 388 1194 415 q 1242 345 1207 358 q 1359 361 1278 334 l 1389 266 z "},"":{"ha":1215,"x_min":0,"x_max":1215,"o":"m 0 1128 l 0 -87 l 1215 -87 l 1215 1128 l 0 1128 l 0 1128 m 57 594 l 57 594 q 57 594 57 594 q 57 594 57 594 q 57 594 57 594 l 57 594 m 648 448 l 648 174 l 564 174 l 564 453 l 347 868 l 448 868 q 559 654 529 716 q 594 564 586 591 q 610 526 602 548 q 629 575 621 553 q 665 659 637 600 q 773 868 694 719 l 868 868 l 648 448 l 648 448 z "},"":{"ha":1042,"x_min":68,"x_max":974,"o":"m 195 -130 q 160 -174 195 -171 l 160 -174 q 117 -138 125 -176 q 171 345 95 127 q 391 711 244 562 q 401 852 361 787 q 529 922 442 917 q 635 876 591 920 q 678 770 675 836 q 597 640 673 678 q 442 648 524 600 q 241 307 307 505 q 195 -130 176 111 l 195 -130 m 521 1215 q 231 1109 347 1210 l 231 1109 q 79 857 114 1009 l 79 857 q 119 559 46 708 q 171 540 141 524 q 190 594 203 556 q 160 846 130 722 q 285 1050 190 968 q 521 1134 382 1131 q 784 1025 678 1131 q 892 762 887 920 q 822 548 890 637 q 654 415 757 456 q 437 401 548 374 q 391 372 396 407 q 420 323 382 336 q 697 347 572 293 q 895 513 822 401 q 974 762 971 621 q 841 1082 968 955 q 521 1215 713 1210 l 521 1215 z "},"":{"ha":1215,"x_min":22,"x_max":1191,"o":"m 1177 76 q 1131 111 1158 76 l 1131 111 q 1080 179 1104 144 l 1080 179 q 1055 217 1055 214 l 1055 217 q 1055 217 1055 217 q 1020 79 1055 152 q 917 -57 987 3 q 1004 -95 958 -71 q 1042 -152 1053 -119 q 941 -171 1025 -168 q 757 -171 854 -176 q 608 -163 659 -168 q 458 -171 556 -168 q 274 -171 361 -176 q 174 -152 190 -168 q 212 -95 163 -119 q 298 -57 258 -71 q 195 79 228 3 q 160 217 160 152 q 136 179 160 214 q 84 111 111 144 q 38 76 57 76 q 24 138 24 76 q 65 345 22 203 q 100 453 81 399 q 149 572 122 507 q 174 632 160 600 q 271 1042 165 876 q 608 1215 374 1210 q 944 1044 838 1210 q 1042 632 1050 879 q 1066 572 1055 600 q 1115 453 1093 507 q 1150 345 1134 399 q 1191 138 1194 203 q 1177 76 1191 76 l 1177 76 z "},"":{"ha":1563,"x_min":35,"x_max":1527,"o":"m 1044 760 q 1096 757 1072 760 q 909 1023 1058 920 q 564 1128 762 1126 q 190 998 339 1123 q 35 681 41 873 q 247 323 41 461 l 195 163 l 380 255 q 410 250 393 252 q 564 231 486 233 q 613 233 589 231 q 597 342 597 285 q 727 637 602 521 q 1044 760 852 757 l 1044 760 m 762 903 q 827 838 825 901 q 762 773 825 776 q 708 789 730 773 q 681 838 684 808 q 708 887 684 868 q 762 903 730 903 l 762 903 m 391 773 q 336 789 361 773 l 336 789 q 312 838 312 808 q 336 887 312 868 q 391 903 361 903 q 458 838 456 901 q 391 773 456 776 l 391 773 m 1527 350 q 1392 618 1522 513 l 1392 618 q 1080 732 1261 727 q 760 618 884 727 q 629 350 635 513 q 760 79 635 187 q 1080 -35 884 -30 q 1229 -11 1153 -33 q 1237 -8 1232 -8 l 1383 -87 l 1343 43 q 1476 182 1424 106 q 1527 350 1525 260 l 1527 350 m 933 415 q 898 431 911 415 l 898 431 q 882 469 882 448 q 898 505 882 488 q 933 521 911 521 q 998 469 996 515 q 933 415 996 420 l 933 415 m 1223 415 q 1188 431 1202 415 l 1188 431 q 1172 469 1172 448 q 1188 505 1172 488 q 1223 521 1202 521 q 1289 469 1286 515 q 1223 415 1286 420 l 1223 415 z "},"":{"ha":1389,"x_min":11,"x_max":1375,"o":"m 510 798 q 391 751 439 798 l 391 751 q 342 643 345 708 q 391 532 345 575 q 510 486 439 488 q 627 532 581 488 q 675 643 675 575 q 627 751 675 708 q 510 798 581 798 l 510 798 m 898 798 q 779 751 827 798 l 779 751 q 730 643 732 708 q 779 532 732 575 q 898 486 827 488 q 1017 532 968 488 q 1066 643 1063 575 q 1017 751 1063 708 q 898 798 968 798 l 898 798 m 1324 553 l 1308 543 l 1308 1080 q 1270 1175 1305 1137 q 1183 1215 1234 1213 l 209 1215 q 119 1175 155 1213 q 84 1080 84 1137 l 84 543 q 73 548 79 545 q 65 553 71 551 q 19 556 35 572 q 22 507 5 537 q 312 312 95 407 q 304 3 258 117 q 439 -152 350 -114 q 600 -157 526 -193 q 675 -27 673 -125 q 675 -19 675 -24 q 675 84 675 8 q 675 236 675 160 q 692 233 684 233 q 713 228 703 231 q 713 79 713 152 q 713 -19 713 5 q 713 -27 713 -24 q 789 -160 716 -125 q 949 -152 863 -193 q 1085 0 1039 -114 q 1080 309 1131 117 q 1367 505 1294 407 q 1370 556 1383 537 q 1324 553 1356 572 l 1324 553 m 1240 502 q 1001 423 1109 434 l 1001 423 q 825 420 895 415 l 825 420 q 806 420 814 420 q 713 353 713 420 q 659 401 667 391 q 583 420 637 423 q 562 420 572 420 q 388 423 494 415 q 157 496 285 434 l 157 1020 q 182 1118 157 1088 q 269 1142 203 1145 l 1128 1142 q 1240 1020 1248 1147 l 1240 502 l 1240 502 z "},"":{"ha":1389,"x_min":65,"x_max":1324,"o":"m 1061 936 l 958 936 l 958 637 l 1061 637 l 1061 936 m 773 936 l 667 936 l 667 637 l 773 637 l 773 936 m 328 1215 l 65 968 l 65 73 l 380 73 l 380 -174 l 643 73 l 852 73 l 1324 521 l 1324 1215 l 328 1215 m 1218 570 l 1009 372 l 800 372 l 616 198 l 616 372 l 380 372 l 380 1115 l 1218 1115 l 1218 570 z "},"":{"ha":1042,"x_min":0,"x_max":1036,"o":"m 117 564 l 388 431 q 420 369 426 410 q 374 315 418 331 l 84 244 q 33 252 54 236 q 5 296 11 269 q 30 526 -8 415 q 65 564 41 553 q 117 564 90 575 l 117 564 m 236 -87 q 450 -174 334 -152 q 502 -160 480 -176 q 524 -114 521 -144 l 534 187 q 496 247 532 231 q 426 231 458 260 l 225 8 q 209 -41 206 -16 q 236 -87 212 -68 l 236 -87 m 629 212 l 789 -43 q 833 -71 806 -68 q 882 -57 860 -76 q 1025 125 974 19 q 1025 176 1036 152 q 987 212 1015 201 l 703 304 q 635 285 659 315 q 629 212 610 252 l 629 212 m 1034 572 q 895 760 985 681 q 846 773 873 779 q 803 746 819 770 l 635 499 q 637 426 613 458 q 703 404 659 393 l 993 486 q 1031 521 1020 496 q 1034 572 1044 545 l 1034 572 m 168 1134 q 141 1047 117 1101 l 423 556 q 494 529 453 518 q 540 589 534 540 l 540 1153 q 521 1199 540 1180 q 472 1215 502 1215 q 168 1134 315 1202 l 168 1134 z "},"":{"ha":1042,"x_min":0,"x_max":1039,"o":"m 301 412 q 285 309 296 382 l 285 309 q 260 157 274 233 l 260 157 q 244 49 250 87 q 236 43 244 43 l 33 43 q 0 79 0 46 l 160 1088 q 214 1134 171 1131 q 412 1137 331 1134 q 643 1131 578 1137 q 768 1104 711 1128 q 909 952 887 1055 q 887 724 933 849 q 743 537 841 597 q 507 477 646 480 q 445 477 475 477 q 347 472 385 483 q 301 412 312 461 l 301 412 m 968 803 q 960 800 963 811 q 936 708 952 754 q 792 507 884 567 q 597 434 697 448 q 415 426 494 423 q 382 426 396 426 q 353 401 355 426 q 293 27 307 122 q 279 -60 277 -65 q 307 -95 277 -92 l 480 -95 q 526 -54 518 -92 q 526 -52 526 -52 q 532 -14 526 -52 q 567 193 540 22 q 591 241 575 233 q 635 247 610 250 q 646 247 640 247 q 895 315 792 244 q 1034 551 998 385 q 1036 692 1047 624 q 968 803 1025 760 l 968 803 z "},"":{"ha":1215,"x_min":22,"x_max":1194,"o":"m 426 871 q 654 431 575 629 q 570 163 621 293 q 510 372 543 271 q 418 567 475 472 q 426 773 431 667 q 426 871 426 822 l 426 871 m 296 673 l 43 673 q 27 637 14 667 q 274 130 195 415 l 556 130 q 472 401 524 271 q 331 654 420 534 q 296 673 317 673 l 296 673 m 426 911 q 675 439 570 692 l 675 439 q 800 -87 781 184 l 1109 -87 q 979 448 1082 195 q 722 911 876 700 l 426 911 l 426 911 m 1109 1096 q 1069 1128 1099 1126 l 827 1128 q 808 1101 806 1126 q 879 705 863 911 q 1126 -30 1077 350 q 1175 236 1158 95 q 1194 521 1194 377 q 1109 1099 1191 822 l 1109 1096 z "},"":{"ha":1563,"x_min":0,"x_max":1563,"o":"m 1275 589 q 1286 534 1278 583 l 1286 534 q 1299 467 1297 488 l 1210 467 q 1234 534 1218 488 q 1253 583 1251 578 q 1259 597 1253 583 q 1267 624 1264 610 l 1275 589 l 1275 589 m 1563 998 l 1563 43 q 1525 -49 1560 -11 q 1432 -87 1487 -84 l 130 -87 q 38 -49 76 -84 q 0 43 3 -11 l 0 998 q 38 1090 3 1053 q 130 1128 76 1126 l 1432 1128 q 1525 1090 1487 1126 q 1563 998 1560 1053 l 1563 998 m 415 317 l 586 738 l 469 738 l 363 450 l 353 507 l 315 703 q 263 738 301 741 l 90 738 l 87 730 q 201 684 152 713 l 298 317 l 415 317 l 415 317 m 670 317 l 738 738 l 629 738 l 562 317 l 670 317 l 670 317 m 1050 453 q 958 570 1050 524 q 895 621 898 594 q 958 656 895 654 q 1039 640 1012 656 l 1050 637 l 1063 727 q 966 746 1031 743 q 836 708 884 746 q 784 605 784 670 q 814 534 784 562 q 879 491 846 507 q 936 439 939 464 q 914 407 933 418 q 871 399 895 399 q 768 420 814 399 l 754 429 l 738 334 q 860 309 781 312 q 998 350 947 312 q 1050 453 1047 388 l 1050 453 m 1432 317 l 1345 738 l 1261 738 q 1204 703 1221 741 l 1042 317 l 1156 317 q 1166 345 1156 320 q 1177 380 1175 369 l 1318 380 q 1326 342 1321 366 q 1332 317 1332 320 q 1332 317 1332 317 l 1432 317 l 1432 317 z "},"":{"ha":1563,"x_min":0,"x_max":1563,"o":"m 1310 103 q 1280 71 1308 73 q 1248 103 1251 73 q 1280 133 1251 130 q 1310 103 1308 130 l 1310 103 m 467 133 q 437 103 437 130 q 467 71 437 73 q 496 103 494 73 q 467 133 494 130 l 467 133 m 787 136 q 760 111 762 133 l 811 111 q 787 136 808 136 l 787 136 m 1077 133 q 1050 103 1050 130 q 1077 71 1050 73 q 1109 103 1107 73 q 1077 133 1107 130 l 1077 133 m 1364 62 q 1364 62 1364 62 l 1364 62 q 1367 60 1367 62 q 1364 60 1367 60 q 1364 57 1364 60 q 1364 57 1364 57 q 1364 54 1364 54 q 1362 54 1362 54 q 1359 54 1359 52 q 1359 54 1359 54 q 1356 54 1356 52 q 1354 54 1354 54 q 1354 54 1354 54 q 1351 57 1351 57 q 1351 60 1351 60 q 1351 62 1351 62 q 1354 65 1351 65 q 1354 65 1354 65 q 1354 68 1354 68 q 1356 68 1354 68 q 1359 68 1356 68 q 1362 68 1359 68 q 1362 68 1362 68 q 1364 65 1364 68 q 1364 65 1364 65 q 1364 62 1364 65 l 1364 62 m 1359 60 q 1362 60 1359 60 l 1362 60 q 1362 60 1362 60 q 1362 62 1362 62 q 1362 65 1362 62 q 1362 65 1362 65 q 1359 65 1359 65 l 1354 65 l 1354 57 l 1356 57 l 1356 60 l 1356 60 l 1359 57 l 1362 57 l 1359 60 l 1359 60 m 1563 996 l 1563 41 q 1525 -52 1560 -14 q 1432 -90 1487 -87 l 130 -90 q 38 -52 76 -87 q 0 41 3 -14 l 0 996 q 38 1088 3 1050 q 130 1126 76 1123 l 1432 1126 q 1525 1088 1487 1123 q 1563 996 1560 1050 l 1563 996 m 174 616 q 285 350 176 458 l 285 350 q 551 241 391 244 q 757 304 662 241 q 610 616 608 434 q 757 928 610 800 q 551 993 662 990 q 285 882 391 987 q 174 616 176 776 l 174 616 m 781 323 q 925 616 925 442 l 925 616 q 781 911 925 789 q 637 616 637 789 q 781 323 637 442 l 781 323 m 396 114 q 355 155 393 152 q 320 136 336 157 q 288 155 312 155 q 258 141 271 155 l 258 152 l 236 152 l 236 52 l 258 52 q 258 76 258 65 q 282 133 250 133 q 307 76 312 133 q 307 52 307 65 l 328 52 q 326 76 326 65 q 353 133 317 133 q 374 76 380 136 q 374 52 374 65 l 396 52 l 396 114 l 396 114 m 518 152 l 496 152 l 496 141 q 464 155 486 155 q 415 103 418 152 q 464 49 418 54 q 496 65 486 49 l 496 52 l 518 52 l 518 152 l 518 152 m 627 81 q 586 114 621 114 l 586 114 q 564 125 567 114 q 583 136 567 136 q 616 127 600 136 l 624 144 q 572 155 602 157 q 543 122 545 149 q 581 92 548 92 q 605 81 602 92 q 583 68 602 68 q 548 79 564 68 l 540 62 q 594 52 564 46 q 627 81 624 54 l 627 81 m 724 57 l 716 76 q 697 71 708 71 q 684 87 686 71 l 684 133 l 719 133 l 719 152 l 684 152 l 684 182 l 662 182 l 662 152 l 640 152 l 640 133 l 662 133 l 662 87 q 686 52 665 52 q 722 57 711 49 l 724 57 m 760 92 l 833 92 q 787 155 830 157 q 738 103 741 152 q 770 52 741 62 q 827 65 803 43 l 819 81 q 784 71 800 68 q 760 92 765 73 l 760 92 m 920 152 q 879 141 898 163 l 879 152 l 854 152 l 854 52 l 879 52 l 879 109 q 892 133 879 130 q 911 130 906 136 l 920 152 l 920 152 m 949 103 q 966 133 949 125 l 966 133 q 1004 125 985 138 l 1015 144 q 958 152 987 160 q 925 103 928 141 q 960 52 928 62 q 1015 62 990 43 l 1004 79 q 966 73 985 65 q 949 103 949 79 l 949 103 m 1128 152 l 1107 152 l 1107 141 q 1058 152 1088 163 q 1025 103 1028 141 q 1058 52 1028 62 q 1107 65 1088 43 l 1107 52 l 1128 52 l 1128 152 l 1128 152 m 1221 152 q 1202 155 1215 155 l 1202 155 q 1180 141 1188 155 l 1180 152 l 1158 152 l 1158 52 l 1180 52 l 1180 109 q 1194 133 1180 130 q 1215 130 1204 136 l 1221 152 l 1221 152 m 1329 193 l 1308 193 l 1308 141 q 1259 152 1289 163 q 1226 103 1232 141 q 1261 52 1232 62 q 1308 65 1291 43 l 1308 52 l 1329 52 l 1329 193 l 1329 193 m 1351 396 l 1351 382 l 1354 382 l 1354 396 l 1359 396 l 1359 399 l 1345 399 l 1345 396 l 1351 396 l 1351 396 m 1367 60 q 1367 65 1367 62 q 1364 68 1367 65 q 1364 68 1364 68 q 1362 71 1362 68 q 1359 71 1362 71 q 1359 71 1359 71 q 1356 71 1356 71 q 1354 71 1356 71 q 1351 68 1354 68 q 1348 65 1348 65 q 1348 60 1348 62 q 1348 60 1348 60 q 1348 57 1348 60 q 1351 54 1348 54 q 1354 52 1351 52 q 1359 52 1356 52 q 1362 52 1359 52 q 1364 52 1362 52 q 1364 54 1364 52 q 1367 54 1367 54 q 1367 57 1367 57 q 1367 60 1367 60 l 1367 60 m 1378 399 l 1373 399 l 1370 388 l 1364 399 l 1362 399 l 1362 385 l 1362 385 l 1362 396 l 1367 385 l 1370 385 l 1375 396 l 1375 385 l 1378 385 l 1378 399 l 1378 399 m 1389 616 q 1278 882 1386 776 l 1278 882 q 1015 993 1172 987 q 806 930 901 990 q 936 732 903 846 q 939 502 971 616 q 806 304 906 388 q 1015 241 901 241 q 1278 350 1172 244 q 1389 616 1386 458 l 1389 616 z "},"":{"ha":1563,"x_min":0,"x_max":1563,"o":"m 1411 684 q 1370 716 1411 716 l 1356 716 l 1356 648 l 1370 648 q 1411 684 1411 648 l 1411 684 m 1432 1128 l 130 1128 q 38 1090 76 1126 q 0 998 3 1053 l 0 43 q 38 -49 3 -11 q 130 -87 76 -84 l 1432 -87 q 1525 -49 1487 -84 q 1563 43 1560 -11 l 1563 998 q 1525 1090 1560 1053 q 1432 1128 1487 1126 l 1432 1128 m 1313 751 q 1335 751 1324 751 l 1335 751 q 1416 746 1378 754 l 1416 746 q 1457 686 1454 735 q 1405 624 1457 635 l 1476 529 l 1421 529 l 1362 618 l 1356 618 l 1356 529 l 1313 529 l 1313 751 m 1161 751 l 1283 751 l 1283 713 l 1204 713 l 1204 665 l 1280 665 l 1280 627 l 1204 627 l 1204 567 l 1283 567 l 1283 529 l 1161 529 l 1161 751 m 974 751 l 1034 602 l 1093 751 l 1142 751 l 1044 524 l 1023 524 l 928 751 l 974 751 m 822 760 q 909 724 873 760 l 909 724 q 944 637 944 689 q 909 553 944 586 q 822 518 873 518 q 738 553 770 518 q 703 637 703 586 q 738 724 703 689 q 822 760 770 760 l 822 760 m 689 743 l 689 692 q 605 711 646 730 q 562 640 564 692 q 605 570 564 586 q 689 589 648 551 l 689 537 q 572 540 627 510 q 518 640 521 572 q 572 738 521 705 q 689 743 624 770 l 689 743 m 426 564 q 458 586 453 564 l 458 586 q 418 629 467 610 q 361 692 358 648 q 410 751 366 738 q 496 730 453 765 l 475 700 q 429 719 450 722 q 407 694 407 713 q 439 665 404 678 q 505 597 510 643 q 445 524 499 534 q 350 564 391 513 l 377 591 q 426 564 393 564 l 426 564 m 149 529 l 87 529 l 87 751 l 149 751 q 236 719 203 751 q 271 640 269 689 q 241 567 271 600 q 149 529 212 532 l 149 529 m 334 529 l 290 529 l 290 751 l 334 751 l 334 529 m 1476 41 q 1435 0 1473 3 l 347 0 q 849 144 608 52 q 1256 317 1088 233 q 1476 434 1427 401 l 1476 41 m 201 694 q 141 713 182 713 l 130 713 l 130 567 l 141 567 q 201 583 182 567 q 225 640 225 608 q 201 694 225 673 l 201 694 z "},"":{"ha":1563,"x_min":0,"x_max":1563,"o":"m 130 -87 q 38 -49 76 -84 l 38 -49 q 0 43 3 -11 l 0 998 q 38 1090 3 1053 q 130 1128 76 1126 l 1432 1128 q 1525 1090 1487 1126 q 1563 998 1560 1053 l 1563 993 l 1359 993 l 1313 863 l 1267 993 l 1001 993 l 1001 819 l 925 993 l 713 993 l 491 491 l 670 491 l 670 46 l 1223 46 l 1308 141 l 1394 46 l 1563 46 l 1563 43 q 1525 -49 1560 -11 q 1432 -87 1487 -84 l 130 -87 l 130 -87 m 1310 228 l 1194 103 l 1061 103 l 1242 296 l 1061 494 l 1199 494 l 1310 366 l 1424 494 l 1563 494 l 1378 298 l 1563 103 l 1424 103 l 1310 228 l 1310 228 m 1563 410 l 1563 184 l 1457 298 l 1563 410 l 1563 410 m 836 193 l 1061 193 l 1061 103 l 730 103 l 730 491 l 1061 491 l 1061 401 l 836 401 l 836 339 l 1055 339 l 1055 252 l 836 252 l 836 193 l 836 193 l 836 193 m 1457 819 l 1356 548 l 1264 548 l 1164 819 l 1164 548 l 1061 548 l 1061 936 l 1226 936 l 1313 694 l 1400 936 l 1563 936 l 1563 548 l 1457 548 l 1457 819 l 1457 819 m 909 624 l 730 624 l 697 548 l 581 548 l 749 936 l 887 936 l 1061 548 l 941 548 l 909 624 l 909 624 m 819 838 l 765 713 l 871 713 l 819 838 l 819 838 z "},"":{"ha":1563,"x_min":0,"x_max":1563,"o":"m 505 515 q 445 456 502 461 q 401 496 404 456 q 461 556 407 551 q 505 515 502 556 l 505 515 m 220 646 l 206 646 q 198 640 198 646 l 184 567 l 209 567 q 266 605 255 562 q 255 640 269 632 q 220 646 241 648 l 220 646 m 990 646 l 977 646 q 968 640 968 646 l 958 567 l 979 567 q 1039 616 1034 562 q 1023 643 1036 637 q 987 646 1006 648 l 990 646 m 1563 998 l 1563 43 q 1525 -49 1560 -11 q 1432 -87 1487 -84 l 130 -87 q 38 -49 76 -84 q 0 43 3 -11 l 0 998 q 38 1090 3 1053 q 130 1128 76 1126 l 1432 1128 q 1525 1090 1487 1126 q 1563 998 1560 1053 l 1563 998 m 347 632 q 320 689 347 673 l 320 689 q 255 708 293 708 l 146 708 q 130 694 133 705 l 87 418 q 95 407 87 407 l 146 407 q 163 420 160 410 l 174 494 q 214 507 184 513 q 222 507 220 507 q 347 632 345 510 l 347 632 m 578 608 l 526 608 q 513 586 513 602 q 513 586 513 586 q 450 613 488 616 q 366 575 399 610 q 331 488 334 540 q 418 401 336 407 q 491 434 458 404 q 488 418 488 426 q 496 407 488 407 l 543 407 q 559 423 553 410 l 586 597 q 578 608 586 605 l 578 608 m 686 342 l 860 591 q 860 597 860 594 q 852 608 860 605 l 800 608 q 787 600 792 608 l 716 494 l 686 597 q 670 608 681 605 l 621 608 q 610 597 613 605 q 624 559 613 594 q 648 486 637 524 q 670 429 665 439 q 667 426 667 429 q 637 382 656 412 q 613 342 616 353 q 621 334 613 336 l 673 334 q 686 342 681 336 l 686 342 m 1118 632 q 1090 689 1118 673 l 1090 689 q 1025 708 1063 708 l 917 708 q 901 694 903 705 l 857 418 q 865 407 857 407 l 922 407 q 933 415 930 407 l 944 494 q 985 507 955 513 q 993 507 990 507 q 1118 632 1115 510 l 1118 632 m 1348 608 l 1297 608 q 1283 586 1283 602 q 1283 586 1283 586 q 1221 613 1261 616 q 1137 575 1169 610 q 1101 488 1104 540 q 1188 401 1107 407 q 1261 434 1232 404 q 1259 431 1259 434 q 1259 418 1259 423 q 1267 407 1256 407 l 1313 407 q 1329 423 1324 410 l 1356 597 q 1348 608 1356 605 l 1348 608 m 1476 697 q 1468 708 1476 705 l 1416 708 q 1408 700 1411 705 l 1364 418 l 1364 415 q 1373 407 1364 407 l 1419 407 q 1432 423 1430 410 l 1476 697 l 1476 697 l 1476 697 m 1232 556 q 1172 496 1177 553 q 1218 456 1175 458 q 1275 515 1270 461 q 1232 556 1272 556 l 1232 556 z "},"":{"ha":1563,"x_min":0,"x_max":1563,"o":"m 1335 616 q 1286 553 1291 618 l 1383 553 q 1335 616 1378 618 l 1335 616 m 1017 610 q 971 591 985 608 l 971 448 q 1017 429 985 431 q 1077 518 1074 434 q 1017 610 1074 602 l 1017 610 m 1432 1128 l 130 1128 q 38 1090 76 1126 q 0 998 3 1053 l 0 43 q 38 -49 3 -11 q 130 -87 76 -84 l 1432 -87 q 1525 -49 1487 -84 q 1563 43 1560 -11 l 1563 998 q 1525 1090 1560 1053 q 1432 1128 1487 1126 l 1432 1128 m 331 453 q 195 345 323 347 q 90 366 146 342 l 90 458 q 195 426 144 429 q 233 450 231 426 q 182 486 228 475 q 119 518 149 496 q 87 586 90 540 q 217 694 92 692 q 312 678 266 694 l 312 586 q 217 610 266 610 q 184 591 184 613 q 233 559 187 567 q 298 526 266 548 q 331 453 328 505 l 331 453 m 518 605 l 445 605 l 445 469 q 477 429 448 429 q 518 434 505 429 l 518 355 q 450 345 499 345 q 380 372 407 345 q 350 442 353 399 l 350 751 l 445 773 l 445 689 l 518 689 l 518 605 m 719 600 q 686 602 708 605 l 686 602 q 646 581 665 602 l 646 350 l 548 350 l 548 689 l 632 689 l 637 659 q 681 692 656 689 q 719 689 708 694 l 719 689 l 719 600 m 838 350 l 741 350 l 741 689 l 838 689 l 838 350 m 838 738 l 741 719 l 741 795 l 838 817 l 838 738 m 1039 345 q 971 369 990 347 l 971 258 l 876 239 l 876 689 l 960 689 l 966 665 q 1039 694 985 689 q 1131 651 1093 694 q 1172 521 1169 605 q 1131 388 1169 431 q 1039 345 1093 345 l 1039 345 m 1476 483 l 1286 483 q 1362 426 1299 420 q 1457 448 1416 426 l 1457 369 q 1348 345 1416 345 q 1234 388 1278 345 q 1188 518 1191 431 q 1229 643 1191 594 q 1337 694 1267 694 q 1440 643 1405 694 q 1476 518 1476 594 q 1476 483 1476 499 l 1476 483 z "},"":{"ha":1389,"x_min":0,"x_max":1389,"o":"m 613 220 l 562 358 q 505 312 562 353 q 355 266 450 271 q 220 334 271 266 q 168 513 168 399 q 228 719 171 659 q 363 779 288 781 q 529 700 477 779 q 616 483 578 621 q 637 412 624 450 q 762 217 670 296 q 1058 136 857 138 q 1297 184 1207 133 q 1389 355 1386 236 q 1299 534 1383 488 q 1107 597 1213 581 q 1077 605 1093 602 q 987 697 979 627 q 1099 781 990 781 q 1223 686 1213 784 l 1383 705 q 1109 906 1356 914 q 914 857 996 909 q 825 678 830 808 q 1009 469 819 518 q 1053 461 1034 467 q 1177 423 1131 445 q 1226 347 1223 401 q 1061 263 1223 260 q 882 320 941 266 q 795 464 822 374 q 776 524 784 494 q 648 800 730 697 q 358 906 570 903 q 92 800 182 906 q 0 507 0 697 q 347 136 5 141 q 548 176 480 141 q 613 220 613 214 q 613 220 613 220 l 613 220 z "},"":{"ha":1215,"x_min":0,"x_max":1215,"o":"m 1085 1128 l 130 1128 q 38 1090 76 1126 q 0 998 3 1053 l 0 43 q 38 -49 3 -11 q 130 -87 76 -84 l 1085 -87 q 1177 -49 1139 -84 q 1215 43 1213 -11 l 1215 998 q 1177 1090 1213 1053 q 1085 1128 1139 1126 l 1085 1128 m 836 279 q 651 331 708 282 l 651 331 q 572 453 594 380 q 559 496 564 475 q 505 632 534 583 q 401 684 472 681 q 317 646 353 684 q 279 515 279 608 q 312 404 279 445 q 396 361 345 361 q 488 391 456 363 q 524 418 524 415 l 556 331 q 515 307 556 328 q 391 279 475 282 q 174 513 179 282 q 399 762 176 754 q 581 697 532 760 q 659 521 629 632 q 670 486 665 505 q 724 396 689 431 q 838 361 762 361 q 941 412 939 358 q 909 461 939 448 q 833 483 879 475 q 806 491 819 486 q 689 621 686 518 q 746 732 692 700 q 868 762 798 762 q 1039 635 1023 765 l 939 624 q 860 684 933 686 q 789 632 792 684 q 846 572 787 586 q 865 570 854 570 q 985 529 930 559 q 1042 418 1039 499 q 985 312 1039 342 q 836 279 928 279 l 836 279 z "},"":{"ha":1736,"x_min":0,"x_max":1736,"o":"m 1671 781 l 1489 781 q 1245 1077 1408 966 q 868 1194 1080 1191 q 529 1101 681 1191 q 288 860 377 1012 q 195 521 198 708 q 209 391 195 453 l 65 391 q 0 326 5 385 q 65 260 5 266 l 247 260 q 491 -35 328 76 q 868 -152 656 -149 q 1207 -60 1055 -149 q 1449 182 1359 30 q 1541 521 1538 334 q 1527 651 1541 589 l 1671 651 q 1736 716 1731 656 q 1671 781 1731 776 l 1671 781 m 1411 521 q 1251 138 1405 290 l 1251 138 q 868 -22 1099 -16 q 589 57 713 -19 q 393 260 464 133 l 1150 260 q 1215 326 1210 266 q 1150 391 1210 385 l 342 391 q 326 521 326 453 q 486 903 331 751 q 868 1063 637 1058 q 1147 985 1023 1061 q 1345 781 1272 909 l 586 781 q 521 716 526 776 q 586 651 526 656 l 1394 651 q 1411 521 1411 589 l 1411 521 m 586 586 l 1150 586 q 1215 521 1210 581 q 1150 456 1210 461 l 586 456 q 521 521 526 461 q 586 586 526 581 l 586 586 z "},"":{"ha":1215,"x_min":122,"x_max":1090,"o":"m 941 632 q 987 762 958 678 l 987 762 q 1039 930 1017 846 l 1039 930 q 1066 1058 1063 1012 q 1034 1150 1063 1112 q 947 1191 1004 1188 q 846 1118 895 1185 q 762 958 800 1047 q 703 798 724 865 q 684 746 689 765 q 675 765 681 754 q 618 930 659 825 q 526 1123 578 1036 q 426 1215 477 1210 q 331 1175 361 1213 q 301 1074 301 1134 q 342 882 304 1004 q 415 670 382 762 q 429 635 423 651 q 374 648 401 646 q 285 600 323 646 q 241 505 244 556 q 263 429 247 467 q 263 423 263 426 q 125 231 119 382 q 250 -46 127 76 q 572 -174 372 -165 q 952 -14 814 -168 q 1090 377 1088 138 q 1066 537 1093 467 q 941 632 1036 605 l 941 632 m 846 922 q 884 1023 854 955 l 884 1023 q 947 1096 911 1088 q 977 1053 979 1090 q 949 947 974 1025 q 895 784 925 865 q 852 659 865 700 q 849 651 849 654 l 757 667 l 846 922 l 846 922 m 385 1085 q 399 1120 385 1104 l 399 1120 q 439 1109 412 1139 l 439 1109 q 513 958 469 1080 l 605 684 q 591 686 600 686 q 510 681 537 694 q 507 684 510 684 q 461 808 491 730 q 410 966 434 887 q 385 1085 388 1042 l 385 1085 m 380 553 q 461 486 420 548 l 461 486 q 532 353 505 423 l 532 353 q 562 263 562 285 q 534 231 559 236 q 453 288 502 233 q 366 401 404 339 q 326 496 326 464 q 345 532 326 513 q 380 553 363 551 l 380 553 m 879 49 q 583 -84 760 -84 q 369 -22 461 -84 q 233 155 279 41 q 225 293 201 244 q 288 342 250 339 q 339 298 307 339 q 404 209 374 255 q 437 144 434 163 q 404 119 429 122 q 361 138 380 119 q 315 198 342 157 q 266 260 293 222 q 247 163 228 217 q 320 68 269 109 q 423 24 369 27 q 507 62 477 27 q 526 138 537 98 q 532 138 529 138 q 559 138 545 138 q 583 30 559 81 q 670 -27 608 -19 q 675 -14 673 -24 q 675 -8 675 -8 q 662 60 675 27 q 648 127 651 92 q 684 239 651 187 q 768 323 719 290 q 841 358 800 347 q 914 401 882 372 q 868 458 911 453 q 852 458 860 458 q 730 461 803 456 q 602 488 659 464 q 543 564 545 510 q 548 589 540 581 q 589 600 556 600 q 711 594 635 602 q 857 567 787 586 q 963 521 928 551 q 998 418 990 496 q 979 236 1004 336 q 879 49 952 136 l 879 49 m 613 391 q 667 377 637 382 l 667 377 q 692 374 678 377 q 637 323 662 350 q 618 374 629 347 q 613 391 616 382 l 613 391 z "},"":{"ha":1215,"x_min":0,"x_max":1215,"o":"m 608 806 l 724 372 l 491 372 l 608 806 l 608 806 m 1215 998 l 1215 43 q 1177 -49 1213 -11 q 1085 -87 1139 -84 l 130 -87 q 38 -49 76 -84 q 0 43 3 -11 l 0 998 q 38 1090 3 1053 q 130 1128 76 1126 l 1085 1128 q 1177 1090 1139 1126 q 1215 998 1213 1053 l 1215 998 m 1039 117 l 781 925 l 434 925 l 176 117 l 423 117 l 727 363 l 792 117 l 1039 117 l 1039 117 z "},"":{"ha":1563,"x_min":38,"x_max":1525,"o":"m 1495 562 l 1356 798 q 1362 817 1362 806 q 1324 857 1359 852 l 1172 1118 q 1175 1131 1175 1123 q 1134 1172 1172 1169 q 1101 1156 1115 1172 l 814 1156 q 781 1172 800 1172 q 749 1156 762 1172 l 461 1156 q 431 1172 450 1172 q 388 1131 393 1169 q 391 1118 388 1123 l 239 854 q 214 817 217 844 q 214 814 214 817 q 217 811 217 814 l 71 562 q 38 521 41 553 q 71 480 41 491 l 220 222 q 217 209 217 217 q 250 168 220 176 l 391 -73 q 388 -90 388 -81 q 429 -130 391 -127 q 461 -117 448 -130 l 749 -117 q 781 -130 762 -130 q 814 -117 800 -130 l 1104 -117 q 1134 -127 1115 -127 q 1175 -87 1172 -125 q 1172 -76 1175 -81 l 1313 168 q 1345 209 1343 176 q 1343 222 1345 214 l 1492 480 q 1525 521 1522 488 q 1495 562 1522 553 l 1495 562 m 418 -8 l 298 198 l 418 198 l 418 -8 l 418 -8 m 418 220 l 298 220 q 296 228 296 225 q 296 228 296 228 l 418 358 l 418 220 l 418 220 m 418 391 l 279 244 q 277 247 279 244 q 269 250 274 247 l 117 510 q 119 521 119 515 q 119 521 119 521 q 119 532 119 526 l 260 776 q 279 781 271 776 l 418 640 l 418 391 l 418 391 m 418 667 l 293 795 q 298 817 298 806 q 298 819 298 817 q 298 819 298 819 l 418 863 l 418 667 l 418 667 m 418 884 l 298 844 l 418 1047 l 418 884 l 418 884 m 1302 779 l 1305 776 l 1210 323 l 1036 505 l 1302 781 l 1302 779 l 1302 779 m 792 252 l 822 220 l 762 220 l 792 252 l 792 252 m 789 282 l 564 515 l 781 743 l 1006 505 l 789 282 l 789 282 m 806 266 l 1020 488 l 1204 296 l 1188 220 l 852 220 l 806 266 l 806 266 m 1112 1096 q 1123 1090 1118 1093 l 1280 819 l 1280 817 q 1286 795 1280 806 l 1020 521 l 795 760 l 1112 1096 l 1112 1096 m 1088 1101 l 781 773 l 627 939 l 1077 1101 l 1088 1101 l 1088 1101 m 754 1101 q 781 1088 765 1090 q 808 1101 798 1090 l 1012 1101 l 610 955 l 472 1101 l 754 1101 l 754 1101 m 439 1085 l 442 1090 q 448 1093 445 1093 l 586 947 l 439 892 l 439 1085 l 439 1085 m 439 871 l 602 930 l 765 760 l 551 529 l 439 646 l 439 871 l 439 871 m 439 618 l 537 515 l 439 412 l 439 618 l 439 618 m 439 380 l 553 502 l 776 269 l 730 220 l 439 220 l 439 380 l 439 380 m 458 -60 q 442 -49 450 -52 l 439 -46 l 439 198 l 708 198 l 461 -60 l 458 -60 l 458 -60 m 808 -60 q 781 -46 798 -49 q 754 -60 765 -49 l 491 -60 l 741 198 l 844 198 l 1093 -60 l 808 -60 l 808 -60 m 1134 -27 l 1123 -46 q 1115 -52 1118 -49 l 871 198 l 1183 198 l 1134 -27 l 1134 -27 m 1169 33 l 1204 198 l 1264 198 l 1169 33 l 1169 33 m 1264 220 l 1210 220 l 1221 277 l 1267 228 q 1264 220 1267 225 l 1264 220 m 1443 513 l 1294 250 q 1283 244 1289 247 l 1226 304 l 1321 749 l 1446 534 q 1443 529 1443 532 q 1443 521 1443 526 q 1443 513 1443 518 q 1443 513 1443 513 l 1443 513 z "},"":{"ha":1215,"x_min":52,"x_max":1164,"o":"m 887 933 l 298 933 q 125 857 193 930 q 52 678 54 784 l 52 57 q 125 -109 54 -46 q 298 -174 193 -171 l 917 -174 q 1090 -109 1023 -171 q 1164 57 1161 -46 l 1164 1215 l 887 933 l 887 933 m 418 84 q 355 111 380 87 l 355 111 q 328 174 331 138 l 328 562 q 355 624 331 600 q 418 651 380 648 l 800 651 q 860 624 836 648 q 887 562 884 600 l 887 228 l 1025 84 l 418 84 l 418 84 z "},"":{"ha":1215,"x_min":0,"x_max":1215,"o":"m 16 374 q 0 515 0 445 q 81 819 3 684 q 298 1039 163 958 q 605 1120 437 1118 q 738 1104 673 1120 q 298 819 486 1006 q 16 374 111 629 l 16 374 m 1082 887 q 952 1012 1025 960 q 423 694 643 917 q 111 165 203 475 q 233 33 163 90 q 548 570 326 345 q 1082 887 770 795 l 1082 887 m 1123 203 q 1204 429 1188 307 q 911 206 1042 339 q 694 -90 784 73 q 925 -3 819 -71 q 1215 -95 1069 -57 q 1123 203 1177 57 l 1123 203 m 1204 597 q 1161 751 1194 678 q 673 445 879 656 q 372 -49 467 236 q 526 -90 445 -79 q 798 323 621 144 q 1204 597 971 502 l 1204 597 z "},"":{"ha":1563,"x_min":19,"x_max":1544,"o":"m 1050 914 l 1090 239 l 1061 239 q 781 163 909 241 q 502 239 654 239 q 331 217 412 239 q 168 163 250 198 l 252 863 q 502 914 374 911 q 781 798 667 914 q 1050 914 890 911 l 1050 914 m 1544 0 q 1354 43 1443 0 q 1061 111 1213 109 q 781 0 898 111 q 502 111 665 111 q 209 43 350 109 q 22 0 122 0 l 19 0 l 133 947 q 494 1042 301 1039 q 781 963 648 1047 q 1069 1042 914 1047 q 1430 947 1261 1039 l 1544 0 l 1544 0 m 1427 122 l 1335 882 q 1061 939 1202 939 q 781 836 901 941 q 502 939 662 941 q 228 882 361 939 l 136 122 q 315 187 231 163 q 502 212 399 212 q 781 133 654 212 q 1061 212 909 212 q 1248 187 1164 212 q 1427 122 1332 163 l 1427 122 z "},"":{"ha":1736,"x_min":16,"x_max":1720,"o":"m 1465 572 q 1476 673 1476 621 q 1343 996 1470 865 q 1020 1128 1213 1123 q 741 1031 860 1126 q 578 781 618 936 q 429 838 513 836 q 269 770 331 836 q 201 610 203 705 q 209 548 201 581 q 71 426 119 507 q 16 247 19 345 q 114 11 22 106 q 350 -87 209 -84 l 1386 -87 q 1622 11 1527 -84 q 1720 247 1714 106 q 1647 453 1717 363 q 1465 572 1579 543 l 1465 572 m 543 125 q 502 84 537 90 l 418 84 q 374 125 380 90 l 374 426 q 418 469 380 464 l 502 469 q 543 426 537 464 l 543 125 l 543 125 m 784 125 q 743 84 781 90 l 659 84 q 618 125 621 90 l 618 483 q 659 524 621 521 l 743 524 q 784 483 781 521 l 784 125 l 784 125 m 1028 125 q 987 84 1023 90 l 903 84 q 860 125 865 90 l 860 567 q 903 608 865 605 l 987 608 q 1028 567 1023 605 l 1028 125 l 1028 125 m 1264 125 q 1223 84 1259 90 l 1145 84 q 1104 125 1107 90 l 1104 735 q 1145 779 1107 773 l 1223 779 q 1264 735 1259 773 l 1264 125 l 1264 125 z "},"":{"ha":1215,"x_min":0,"x_max":1215,"o":"m 271 103 l 355 65 l 366 92 l 282 130 l 271 103 m 377 54 l 461 19 l 472 46 l 391 81 l 377 54 m 846 92 l 857 65 l 941 103 l 928 130 l 846 92 m 486 8 l 567 -30 l 581 -3 l 499 35 l 486 8 m 163 149 l 247 114 l 258 138 l 176 176 l 163 149 m 738 46 l 749 19 l 833 54 l 819 81 l 738 46 m 629 -3 l 643 -30 l 724 8 l 713 35 l 629 -3 m 952 138 l 963 114 l 1047 149 l 1036 176 l 952 138 m 461 1088 l 372 1088 l 372 1061 l 461 1061 l 461 1088 m 334 1088 l 241 1088 l 241 1061 l 334 1061 l 334 1088 m 206 1088 l 114 1088 l 114 1061 l 206 1061 l 206 1088 m 589 1088 l 499 1088 l 499 1061 l 589 1061 l 589 1088 m 846 1088 l 754 1088 l 754 1061 l 846 1061 l 846 1088 m 974 1088 l 882 1088 l 882 1061 l 974 1061 l 974 1088 m 716 1088 l 627 1088 l 627 1061 l 716 1061 l 716 1088 m 1101 1088 l 1009 1088 l 1009 1061 l 1101 1061 l 1101 1088 m 144 263 l 114 263 l 114 171 l 144 171 l 144 263 m 334 849 l 241 849 l 241 819 l 334 819 l 334 849 m 144 819 l 206 819 l 206 849 l 114 849 l 114 757 l 144 757 l 144 819 m 602 201 q 776 271 708 203 l 776 271 q 849 448 846 342 q 776 621 846 553 q 602 694 708 692 q 426 621 496 692 q 353 448 355 553 q 426 271 355 342 q 602 201 496 203 l 602 201 m 472 502 q 518 570 475 551 l 518 570 q 605 586 562 589 q 713 559 665 583 q 724 553 719 556 l 703 510 l 700 510 q 656 537 684 529 q 602 545 627 545 q 553 537 581 545 q 521 505 524 529 q 545 483 524 488 q 597 480 564 480 q 689 469 646 483 q 735 401 732 458 q 686 334 730 350 q 597 317 640 315 q 469 350 526 315 l 494 399 l 494 399 q 537 366 510 374 q 591 358 567 358 q 646 366 613 358 q 681 399 678 372 q 656 426 681 420 q 597 431 632 431 q 513 439 551 429 q 472 502 472 453 l 472 502 m 144 732 l 114 732 l 114 640 l 144 640 l 144 732 m 1072 171 l 1101 171 l 1101 263 l 1072 263 l 1072 171 m 144 380 l 114 380 l 114 290 l 144 290 l 144 380 m 0 1204 l 0 103 l 602 -163 l 1215 103 l 1215 1204 l 0 1204 m 1137 155 l 602 -79 l 79 155 l 79 887 l 1137 887 l 1137 155 l 1137 155 m 1137 966 l 79 966 l 79 1126 l 1137 1126 l 1137 966 l 1137 966 m 144 613 l 114 613 l 114 524 l 144 524 l 144 613 m 144 496 l 114 496 l 114 407 l 144 407 l 144 496 m 461 849 l 372 849 l 372 819 l 461 819 l 461 849 m 1072 407 l 1101 407 l 1101 496 l 1072 496 l 1072 407 m 1072 524 l 1101 524 l 1101 613 l 1072 613 l 1072 524 m 589 849 l 499 849 l 499 819 l 589 819 l 589 849 m 1072 640 l 1101 640 l 1101 730 l 1072 730 l 1072 640 m 1072 288 l 1101 288 l 1101 380 l 1072 380 l 1072 288 m 716 849 l 627 849 l 627 819 l 716 819 l 716 849 m 846 849 l 754 849 l 754 819 l 846 819 l 846 849 m 1072 757 l 1101 757 l 1101 849 l 1012 849 l 1012 819 l 1072 819 l 1072 757 m 974 849 l 882 849 l 882 819 l 974 819 l 974 849 z "},"":{"ha":1389,"x_min":11,"x_max":1378,"o":"m 1305 1042 l 1017 1042 q 966 1020 987 1042 q 947 971 947 1001 l 947 863 l 442 863 l 442 971 q 420 1020 442 1001 q 372 1042 401 1042 l 84 1042 q 11 971 19 1036 l 11 71 q 84 0 16 5 l 1305 0 q 1378 71 1373 5 l 1378 971 q 1305 1042 1370 1036 l 1305 1042 m 407 250 q 279 304 331 252 l 279 304 q 225 431 228 353 q 279 559 228 507 q 407 610 331 608 q 534 559 483 608 q 586 431 586 507 q 534 304 586 353 q 407 250 483 252 l 407 250 m 982 250 q 854 304 906 252 l 854 304 q 803 431 803 353 q 854 559 803 507 q 982 610 906 608 q 1109 559 1058 608 q 1164 431 1161 507 q 1109 304 1161 353 q 982 250 1058 252 l 982 250 z "},"":{"ha":1736,"x_min":0,"x_max":1736,"o":"m 1736 323 q 1644 100 1733 184 l 1644 100 q 1419 11 1554 14 q 1137 119 1251 16 q 925 353 1023 220 q 716 583 830 483 q 442 689 605 684 q 217 600 293 684 q 144 401 144 513 q 222 203 146 288 q 456 114 301 117 q 635 146 545 114 q 798 228 724 176 q 814 241 803 233 q 860 274 838 269 q 887 244 884 271 q 871 209 887 228 q 838 179 854 193 q 838 179 838 179 q 640 60 751 103 q 418 11 532 14 q 125 122 244 14 q 0 404 5 228 q 119 694 5 583 q 415 808 236 806 q 746 692 613 803 q 982 439 876 581 q 1169 233 1072 320 q 1397 141 1267 146 q 1573 241 1530 149 q 1573 423 1617 331 q 1405 521 1530 515 q 1329 505 1364 518 q 1278 491 1299 491 q 1234 532 1240 494 q 1242 581 1237 556 q 1251 632 1248 605 q 1158 854 1245 768 q 933 941 1069 939 q 806 914 854 939 q 724 863 754 887 q 692 841 703 844 q 662 873 665 844 q 681 911 665 895 q 808 1001 735 971 q 960 1031 882 1031 q 1232 922 1126 1025 q 1337 656 1335 822 q 1335 600 1337 629 q 1432 613 1383 613 q 1647 532 1560 610 q 1736 323 1733 450 l 1736 323 z "},"":{"ha":1042,"x_min":0,"x_max":1042,"o":"m 553 1196 q 174 1066 336 1196 l 174 1066 q 0 711 8 939 q 62 491 5 567 q 174 412 119 412 q 203 453 193 415 q 214 507 214 488 q 198 543 214 521 q 168 602 182 567 q 149 692 152 640 q 260 960 155 860 q 532 1066 366 1063 q 762 987 673 1063 q 852 768 849 911 q 830 597 854 692 q 754 429 808 499 q 608 353 700 355 q 521 385 556 353 q 483 472 483 418 q 518 624 488 548 q 553 779 551 700 q 488 890 551 868 q 366 863 426 909 q 298 708 304 819 q 326 572 298 637 q 293 442 312 513 q 239 217 263 331 q 212 5 214 100 q 220 -109 212 -52 q 222 -149 222 -127 q 228 -152 225 -152 q 241 -152 231 -160 q 358 35 328 -38 q 415 231 388 109 q 437 317 423 269 q 518 244 464 269 q 624 220 570 220 q 860 301 768 222 q 998 502 952 380 q 1042 751 1042 624 q 892 1077 1036 958 q 553 1196 751 1196 l 553 1196 z "},"":{"ha":1215,"x_min":0,"x_max":1215,"o":"m 1034 952 q 608 1128 854 1126 q 304 1047 439 1126 q 87 830 168 966 q 5 526 8 694 q 84 225 5 363 l 0 -87 l 320 -3 q 608 -76 453 -76 l 608 -76 q 911 5 776 -73 q 1131 222 1050 87 q 1215 526 1213 358 q 1166 757 1215 648 q 1034 952 1120 865 l 1034 952 m 608 24 q 353 95 469 27 l 334 106 l 144 57 l 195 241 l 184 260 q 106 526 109 382 q 255 879 111 738 q 608 1025 396 1023 q 960 879 814 1025 q 1115 526 1109 732 q 963 171 1107 315 q 608 24 819 30 l 608 24 m 882 399 q 830 426 868 407 l 830 426 q 779 448 792 442 q 746 442 760 461 q 722 410 735 429 q 697 382 705 391 q 665 380 686 366 q 551 448 600 410 q 461 559 502 486 q 469 591 450 575 q 505 640 483 602 q 502 667 510 654 q 491 694 499 670 q 472 743 483 716 q 456 779 461 765 q 426 803 439 811 q 423 803 423 803 q 393 803 410 803 q 353 787 377 806 q 350 781 353 784 q 320 741 336 770 q 301 659 304 711 q 328 559 304 605 q 361 505 353 515 q 363 505 361 505 q 366 499 363 502 q 448 401 380 475 q 618 277 513 328 q 727 239 689 247 q 800 239 768 233 q 857 263 825 244 q 901 309 890 282 q 911 382 920 369 q 890 396 906 391 q 882 399 884 399 l 882 399 z "},"":{"ha":1042,"x_min":0,"x_max":1042,"o":"m 1042 1128 l 868 1128 l 648 608 l 393 608 l 174 1128 l 0 1128 l 130 825 l 0 825 l 0 694 l 187 694 l 222 608 l 0 608 l 0 477 l 279 477 l 521 -87 l 762 477 l 1042 477 l 1042 608 l 819 608 l 857 694 l 1042 694 l 1042 825 l 911 825 l 1042 1128 l 1042 1128 m 521 304 l 448 477 l 594 477 l 521 304 l 521 304 z "},"":{"ha":1736,"x_min":0,"x_max":1736,"o":"m 491 1015 q 144 871 282 1009 l 144 871 q 0 521 5 730 q 144 171 5 312 q 491 27 282 33 q 836 171 697 33 q 979 521 974 312 q 836 871 974 730 q 491 1015 697 1009 l 491 1015 m 1272 985 q 1099 849 1166 979 l 1099 849 q 1028 521 1028 719 q 1099 193 1028 323 q 1272 57 1166 62 q 1446 193 1375 62 q 1516 521 1514 323 l 1516 521 q 1446 849 1514 719 q 1272 985 1375 979 l 1272 985 m 1649 936 q 1590 814 1614 933 l 1590 814 q 1565 521 1565 697 q 1590 228 1565 345 q 1649 106 1614 109 q 1712 228 1687 109 q 1736 521 1736 345 q 1712 814 1736 697 q 1649 936 1687 933 l 1649 936 z "},"":{"ha":1215,"x_min":0,"x_max":1215,"o":"m 1215 1128 l 1215 -87 l 0 -87 l 0 1128 l 1215 1128 l 1215 1128 m 640 434 l 852 830 l 762 830 l 637 583 q 602 510 618 545 l 570 583 l 448 830 l 353 830 l 562 439 l 562 184 l 640 184 l 640 434 l 640 434 z "},"":{"ha":1563,"x_min":0,"x_max":1563,"o":"m 1554 73 q 1538 103 1579 114 q 1508 141 1525 125 q 1478 165 1519 184 q 1435 190 1459 179 q 1419 220 1435 220 q 1389 206 1402 220 q 1316 190 1348 214 q 1316 244 1316 217 q 1386 269 1345 244 q 1440 342 1427 293 q 1440 401 1449 369 q 1373 472 1421 456 q 1332 515 1364 502 q 1294 488 1302 515 q 1237 464 1251 488 q 1215 467 1226 464 q 1191 469 1202 469 q 1213 483 1202 477 q 1283 513 1237 515 l 1283 521 q 1364 534 1324 521 q 1430 570 1405 545 q 1462 640 1454 600 q 1462 719 1468 681 q 1443 792 1457 757 q 1397 849 1427 827 q 1359 854 1378 863 q 1335 825 1337 846 q 1332 808 1335 817 q 1316 762 1332 776 q 1229 757 1299 749 q 1115 920 1188 854 q 789 1047 968 1036 q 450 1020 610 1058 q 480 1015 467 1017 q 613 977 551 1001 q 407 914 505 963 q 317 857 347 882 q 263 808 285 830 q 252 798 258 803 q 271 800 263 800 q 372 808 323 811 q 301 754 334 787 q 244 765 255 751 q 231 811 231 776 q 228 825 231 817 q 206 854 225 846 q 168 852 184 863 q 100 713 109 803 q 133 570 92 624 q 198 534 157 545 q 282 521 241 524 q 282 515 282 518 q 350 483 328 515 q 372 469 361 477 q 350 467 361 469 q 326 464 336 467 q 269 488 307 491 q 231 515 263 515 q 190 472 198 502 q 122 342 100 431 q 176 269 136 293 q 247 244 217 244 l 247 190 q 174 206 222 212 q 144 220 160 220 q 127 190 127 222 q 84 165 103 179 q 54 141 43 187 q 24 103 38 125 q 8 73 -16 114 q 3 43 5 60 q 73 -76 8 -24 q 203 -133 138 -127 q 320 -71 279 -133 q 1242 -71 781 -87 q 1359 -133 1283 -133 q 1489 -76 1424 -127 q 1557 43 1554 -24 q 1554 73 1557 57 l 1554 73 m 1354 762 q 1359 800 1359 776 q 1397 803 1364 827 q 1430 732 1421 776 q 1435 665 1438 689 q 1354 762 1421 727 l 1354 762 m 1340 743 q 1400 692 1381 730 l 1400 692 q 1421 610 1419 654 q 1408 589 1416 600 q 1337 556 1383 567 q 1337 648 1345 602 q 1302 727 1329 694 q 1340 743 1324 730 l 1340 743 m 1275 724 q 1316 651 1305 700 l 1316 651 q 1313 553 1324 602 q 1283 551 1297 551 q 1242 724 1275 640 q 1275 724 1259 724 q 1275 724 1275 724 l 1275 724 m 130 665 q 136 732 127 689 l 136 732 q 165 803 144 776 q 203 800 201 830 q 212 762 206 776 q 130 665 144 727 l 130 665 m 155 589 q 141 610 146 600 q 163 692 144 654 q 222 743 184 730 q 260 727 239 730 q 225 648 233 694 q 225 556 217 602 q 155 589 179 564 l 155 589 m 285 551 q 250 553 269 551 q 266 697 233 632 l 266 694 l 298 708 q 301 711 298 711 q 339 722 320 719 q 285 551 296 640 l 285 551 m 784 990 q 930 930 871 990 l 930 930 q 990 787 987 873 q 930 640 987 697 q 784 578 871 581 q 637 640 697 581 q 578 787 581 697 q 637 930 581 873 q 784 990 697 990 l 784 990 m 1099 518 q 1082 431 1099 480 l 1082 431 q 1036 363 1069 382 q 1006 407 1009 345 q 990 521 1004 445 q 1020 521 1006 521 q 1099 518 1061 521 l 1099 518 m 952 524 q 955 464 955 507 l 955 464 q 947 410 958 418 q 876 401 920 401 q 808 412 833 401 q 798 467 800 423 q 798 524 795 507 l 798 524 q 952 524 873 524 l 952 524 m 754 377 q 681 369 727 369 l 681 369 q 608 382 635 369 q 597 445 594 393 q 602 521 597 496 q 700 524 651 524 q 760 524 730 524 l 760 524 q 762 445 762 499 q 754 377 765 388 l 754 377 m 467 515 q 567 521 515 518 q 559 442 562 486 q 553 377 556 399 q 526 366 548 353 q 469 431 483 388 q 467 515 456 475 l 467 515 m 369 431 q 431 437 401 434 l 431 437 q 434 439 434 437 q 453 391 439 412 q 524 334 477 353 q 575 372 567 317 q 640 339 591 342 q 724 342 692 336 q 730 342 727 342 q 798 380 787 339 q 917 372 854 366 q 925 374 920 374 q 982 396 966 372 q 985 388 985 393 q 996 353 987 369 q 1061 339 1020 309 q 1123 437 1101 366 q 1156 434 1139 437 q 1194 429 1175 431 q 1194 429 1194 429 q 1194 415 1191 423 q 1213 399 1194 407 q 1012 225 1118 301 q 770 109 906 149 q 540 225 643 152 q 347 396 437 301 q 369 431 382 412 l 369 431 m 312 -38 q 271 -95 301 -73 l 271 -95 q 203 -117 241 -117 q 117 -84 163 -114 q 43 -16 71 -57 q 109 95 43 49 q 222 133 171 141 q 277 79 252 119 q 315 -14 301 35 q 312 -38 315 -27 l 312 -38 m 288 141 q 288 252 285 198 l 288 252 q 309 269 298 258 q 350 296 339 277 q 342 315 355 309 q 336 328 334 320 q 339 328 336 328 q 355 336 350 334 q 621 127 469 214 q 334 0 469 81 q 288 141 326 76 l 288 141 m 1204 -33 q 363 -33 784 -49 q 363 -35 363 -35 l 363 -33 l 363 -33 q 670 103 507 57 q 765 68 716 84 q 776 68 770 65 q 890 111 833 84 q 1204 -33 1055 57 l 1204 -33 m 1232 0 q 928 130 1088 81 q 1210 336 1082 214 q 1229 328 1218 331 q 1232 323 1232 326 q 1215 296 1210 312 q 1256 271 1226 277 q 1278 252 1267 258 q 1275 141 1278 195 l 1278 141 q 1232 0 1237 68 l 1232 0 m 1519 -16 q 1446 -84 1492 -57 l 1446 -84 q 1359 -117 1400 -114 q 1283 -90 1318 -117 q 1248 -16 1251 -65 q 1286 76 1261 35 q 1340 130 1310 119 q 1457 95 1392 141 q 1519 -16 1519 49 l 1519 -16 m 1012 1012 q 933 1147 1001 1109 l 933 1147 q 787 1169 865 1188 l 787 1169 q 670 1074 708 1150 q 1012 1012 860 1172 l 1012 1012 m 203 111 q 119 68 165 106 l 119 68 q 68 -5 73 33 q 95 -43 71 -30 q 157 -46 122 -54 q 212 -16 182 -38 q 252 27 241 5 q 250 84 266 54 q 203 111 233 111 l 203 111 m 789 589 q 887 627 849 591 l 887 627 q 930 719 928 665 q 863 830 925 795 q 732 841 803 865 q 779 781 776 825 q 730 722 773 732 q 651 751 684 711 q 681 635 640 681 q 789 589 724 591 l 789 589 m 184 -71 q 203 -92 187 -84 l 203 -92 q 244 -98 222 -103 q 290 -52 274 -81 q 288 -19 296 -38 q 263 -3 282 0 q 214 -30 241 -8 q 184 -71 187 -52 l 184 -71 m 1359 111 q 1313 84 1329 111 l 1313 84 q 1308 27 1297 54 q 1351 -16 1321 5 q 1408 -46 1381 -38 q 1468 -43 1440 -54 q 1495 -5 1492 -30 q 1443 68 1489 33 q 1359 111 1397 106 l 1359 111 m 1299 -3 q 1275 -19 1280 0 l 1275 -19 q 1272 -52 1267 -35 q 1321 -98 1286 -81 q 1359 -92 1340 -103 q 1378 -71 1375 -84 q 1348 -30 1378 -52 q 1299 -3 1321 -8 l 1299 -3 z "},"":{"ha":1736,"x_min":0,"x_max":1733,"o":"m 1147 19 q 1112 -68 1147 -33 l 1112 -68 q 1025 -103 1077 -103 q 936 -68 971 -103 q 901 19 901 -33 q 936 109 901 73 q 1025 144 971 144 q 1112 109 1077 144 q 1147 19 1147 73 l 1147 19 m 458 144 q 372 109 407 144 l 372 109 q 336 19 336 73 q 372 -68 336 -33 q 458 -103 407 -103 q 548 -68 513 -103 q 583 19 583 -33 q 548 109 583 73 q 458 144 513 144 l 458 144 m 1251 876 q 610 895 846 876 l 610 895 q 241 971 377 914 l 241 971 q 0 1145 106 1031 q 30 1099 14 1123 q 149 941 65 1023 q 431 806 231 860 q 1012 754 629 751 q 1443 722 1340 760 q 1508 610 1546 681 q 1375 448 1470 540 q 1204 241 1275 353 q 1419 429 1318 345 q 1695 686 1611 586 q 1687 830 1780 784 q 1251 876 1592 876 l 1251 876 z "},"":{"ha":1345,"x_min":0,"x_max":1345,"o":"m 673 1099 q 266 928 429 1090 l 266 928 q 95 521 103 765 q 266 114 103 277 q 673 -57 429 -49 q 1080 114 917 -49 q 1251 521 1242 277 q 1080 928 1242 765 q 673 1099 917 1090 l 673 1099 m 410 738 q 486 925 412 849 l 486 925 q 673 1001 562 998 q 860 925 784 998 q 936 738 933 849 l 936 665 q 914 640 936 643 l 865 640 q 841 665 844 643 l 841 738 q 754 884 836 849 q 591 884 673 922 q 505 738 510 849 l 505 665 q 480 640 502 643 l 431 640 q 407 665 410 643 l 407 738 l 410 738 m 1058 184 q 1009 136 1053 141 l 336 136 q 288 184 293 141 l 288 570 q 336 616 293 613 l 1009 616 q 1058 570 1053 613 l 1058 184 l 1058 184 m 385 556 l 385 195 q 372 184 382 184 l 347 184 q 336 195 336 184 l 336 556 q 347 570 336 567 l 372 570 q 385 556 382 567 l 385 556 m 768 426 q 722 342 765 369 l 722 258 q 697 233 719 233 l 648 233 q 624 258 627 233 l 624 342 q 578 426 578 369 q 605 494 578 467 q 673 521 632 521 q 741 494 713 521 q 768 426 768 467 l 768 426 m 673 1194 q 334 1101 486 1191 l 334 1101 q 92 860 182 1012 l 92 860 q 0 521 3 708 q 92 182 3 334 q 334 -60 182 30 q 673 -152 486 -149 q 1012 -60 860 -149 q 1253 182 1164 30 q 1345 521 1343 334 q 1253 860 1343 708 q 1012 1101 1164 1012 q 673 1194 860 1191 l 673 1194 m 673 -103 q 358 -19 499 -103 l 358 -19 q 133 206 217 65 l 133 206 q 49 521 49 347 q 133 836 49 694 q 358 1061 217 977 q 673 1145 499 1145 q 987 1061 846 1145 q 1213 836 1128 977 q 1297 521 1297 694 q 1213 206 1297 347 q 987 -19 1128 65 q 673 -103 846 -103 l 673 -103 z "},"":{"ha":1563,"x_min":0,"x_max":1563,"o":"m 1172 553 l 1172 640 q 1264 640 1251 640 q 1275 640 1278 640 q 1275 640 1275 640 q 1310 597 1308 632 q 1275 553 1308 559 q 1264 553 1275 553 q 1218 553 1253 553 q 1172 553 1199 553 l 1172 553 m 1286 496 q 1275 499 1283 499 l 1275 499 q 1226 499 1264 499 l 1226 499 q 1172 499 1204 499 l 1172 404 q 1226 404 1207 404 q 1275 404 1264 404 q 1286 404 1283 404 q 1324 450 1321 412 q 1286 496 1321 488 l 1286 496 m 1563 998 l 1563 43 q 1525 -49 1560 -11 q 1432 -87 1487 -84 l 130 -87 q 38 -49 76 -84 q 0 43 3 -11 l 0 998 q 38 1090 3 1053 q 130 1128 76 1126 l 1432 1128 q 1525 1090 1487 1126 q 1563 998 1560 1053 l 1563 998 m 494 694 l 339 694 q 342 608 339 648 q 331 453 347 507 q 241 396 317 396 q 87 437 163 399 l 87 361 q 209 342 152 345 q 271 336 269 336 q 271 336 271 336 q 472 410 437 339 q 496 610 505 477 q 494 694 494 648 l 494 694 m 979 681 q 787 703 890 705 l 787 703 q 608 662 684 703 l 608 662 q 532 521 534 618 q 613 377 534 418 q 792 339 689 336 q 979 361 898 339 l 979 437 q 784 399 876 385 q 686 521 692 415 q 784 643 692 627 q 979 605 873 656 l 979 681 l 979 681 m 1476 437 q 1373 524 1468 515 l 1373 526 q 1454 608 1454 543 q 1354 692 1449 686 q 1345 694 1359 694 q 1264 694 1335 694 q 1028 694 1196 694 l 1028 347 l 1362 347 q 1443 372 1411 347 q 1476 437 1476 396 l 1476 437 z "},"":{"ha":1563,"x_min":0,"x_max":1563,"o":"m 651 998 q 312 860 448 993 l 312 860 q 174 521 179 724 q 312 184 179 320 q 651 43 448 49 q 987 184 852 49 q 1128 521 1123 320 q 987 860 1123 724 q 651 998 852 993 l 651 998 m 543 239 q 401 350 456 274 l 401 350 q 347 521 350 423 q 401 694 350 618 q 543 803 456 770 l 543 239 l 543 239 m 760 239 l 760 803 q 898 694 844 770 q 952 521 949 618 q 898 350 949 423 q 760 239 844 274 l 760 239 m 1432 1128 l 130 1128 q 38 1090 76 1126 q 0 998 3 1053 l 0 43 q 38 -49 3 -11 q 130 -87 76 -84 l 1432 -87 q 1525 -49 1487 -84 q 1563 43 1560 -11 l 1563 998 q 1525 1090 1560 1053 q 1432 1128 1487 1126 l 1432 1128 m 895 0 l 648 0 q 279 152 429 5 q 125 515 130 298 q 279 895 130 754 q 648 1042 429 1039 l 895 1042 q 1272 895 1115 1039 q 1438 515 1432 754 q 1362 255 1438 372 q 1161 71 1286 138 q 895 0 1039 3 l 895 0 z "},"":{"ha":1345,"x_min":0,"x_max":1345,"o":"m 667 632 l 578 586 q 532 632 556 624 q 502 640 507 640 q 412 521 412 640 q 434 437 412 472 q 502 401 453 404 q 586 458 562 401 l 667 418 q 613 353 656 391 q 491 312 572 315 q 369 347 439 307 q 290 521 298 388 q 358 684 296 637 q 488 730 423 732 q 667 632 613 730 l 667 632 m 1055 632 l 966 586 q 920 632 944 624 q 890 640 895 640 q 800 521 800 640 q 822 437 800 472 q 890 401 841 404 q 974 458 949 401 l 1058 418 q 1058 418 1058 418 q 1012 361 1053 404 q 882 312 968 317 q 757 347 827 307 q 681 521 686 388 q 749 684 684 637 q 876 730 811 732 q 1055 632 1001 730 l 1055 632 m 673 1194 q 326 1099 477 1191 l 326 1099 q 87 854 174 1006 l 87 854 q 0 521 3 703 q 92 179 3 331 q 336 -62 184 27 q 673 -152 488 -149 q 1004 -65 852 -152 q 1248 168 1156 19 q 1345 521 1343 320 q 1256 863 1343 711 q 1017 1101 1169 1012 q 673 1194 865 1191 l 673 1194 m 673 -30 q 282 133 439 -22 l 282 133 q 122 521 127 290 q 277 903 125 743 q 673 1072 429 1063 q 1063 911 909 1066 q 1223 521 1218 757 q 1055 122 1215 269 q 673 -30 892 -27 l 673 -30 z "},"":{"ha":1389,"x_min":0,"x_max":1389,"o":"m 486 591 l 765 312 l 486 35 l 0 521 l 486 1006 l 608 884 l 537 817 l 486 868 l 138 521 l 486 174 l 627 312 l 418 521 l 486 591 l 486 591 m 903 1006 l 624 730 l 903 450 l 971 521 l 762 727 l 903 868 l 1251 521 l 903 174 l 852 225 l 781 157 l 903 35 l 1389 521 l 903 1006 l 903 1006 z "},"":{"ha":1389,"x_min":24,"x_max":1370,"o":"m 697 1194 q 358 1101 510 1191 l 358 1101 q 117 860 206 1012 l 117 860 q 24 521 27 708 q 117 182 27 334 q 358 -60 206 30 q 697 -152 510 -149 q 1036 -60 884 -149 q 1278 182 1188 30 q 1370 521 1367 334 q 1278 860 1367 708 q 1036 1101 1188 1012 q 697 1194 884 1191 l 697 1194 m 564 176 l 222 518 l 564 860 l 659 762 l 594 697 l 562 727 l 353 518 l 562 309 l 635 380 l 491 524 l 556 591 l 768 380 l 564 176 l 564 176 m 833 182 l 735 279 l 800 345 l 833 315 l 1042 524 l 833 732 l 760 662 l 903 518 l 838 453 l 629 662 l 833 865 l 1172 524 l 833 182 l 833 182 z "},"":{"ha":868,"x_min":16,"x_max":852,"o":"m 746 309 q 621 258 689 274 l 621 258 q 502 236 553 241 l 559 179 l 765 -27 q 784 -109 800 -68 q 724 -168 768 -152 q 643 -152 684 -184 q 434 57 559 -68 q 434 57 434 57 l 228 -149 q 144 -168 187 -184 q 87 -109 103 -152 q 106 -27 68 -68 q 157 27 130 -3 q 312 182 228 98 l 369 236 q 247 258 315 241 q 122 309 179 274 q 30 385 54 350 q 30 469 3 420 q 84 513 43 502 q 176 486 122 526 q 247 445 179 480 q 434 407 315 412 q 624 445 553 412 q 692 486 692 480 q 787 513 746 526 q 841 469 825 502 q 838 385 865 420 q 746 309 814 350 l 746 309 m 81 863 q 184 1112 87 1012 l 184 1112 q 434 1215 285 1213 q 684 1112 583 1213 q 787 863 781 1012 q 684 616 781 713 q 434 513 583 515 q 184 616 285 515 q 81 863 87 713 l 81 863 m 260 863 q 312 741 263 789 l 312 741 q 434 692 361 692 q 556 741 507 692 q 608 863 605 789 q 556 987 605 939 q 434 1036 507 1036 q 312 987 361 1036 q 260 863 263 939 l 260 863 z "},"":{"ha":1215,"x_min":0,"x_max":1215,"o":"m 499 735 q 532 811 502 781 l 532 811 q 608 844 562 841 q 684 811 654 841 q 716 735 713 781 q 684 659 713 689 q 608 627 654 629 q 532 659 562 629 q 499 735 502 689 l 499 735 m 1215 998 l 1215 43 q 1177 -49 1213 -11 q 1085 -87 1139 -84 l 130 -87 q 38 -49 76 -84 q 0 43 3 -11 l 0 998 q 38 1090 3 1053 q 130 1128 76 1126 l 1085 1128 q 1177 1090 1139 1126 q 1215 998 1213 1053 l 1215 998 m 388 735 q 453 581 391 643 l 453 581 q 608 515 515 518 q 762 581 700 518 q 827 735 825 643 q 762 890 825 827 q 608 955 700 952 q 453 890 515 952 q 388 735 391 827 l 388 735 m 860 488 q 827 515 852 510 l 827 515 q 768 499 803 524 q 724 475 768 496 q 608 450 684 453 q 491 475 532 453 q 448 499 448 496 q 448 499 448 499 q 388 515 412 524 q 355 488 363 510 q 355 437 339 458 q 412 388 372 415 q 491 355 448 366 q 567 342 534 345 l 532 309 q 434 212 477 255 q 401 179 418 193 q 404 103 372 138 q 477 100 437 71 l 608 231 q 608 231 608 231 q 738 100 686 155 q 811 103 779 71 q 814 179 846 138 l 686 309 l 651 342 q 724 355 684 345 q 803 388 768 366 q 860 437 844 415 q 860 488 876 458 l 860 488 z "},"":{"ha":1215,"x_min":0,"x_max":1215,"o":"m 1107 1042 l 111 1042 q 33 1009 65 1042 q 0 930 0 977 l 0 564 q 81 258 3 393 q 301 38 163 119 q 608 -43 437 -41 q 914 38 779 -41 q 1134 258 1053 119 q 1215 564 1213 393 l 1215 930 q 1183 1009 1215 979 q 1107 1042 1153 1042 l 1107 1042 m 667 312 q 608 290 640 290 l 608 290 q 551 312 575 290 q 393 464 453 407 q 260 594 285 567 q 239 648 236 624 q 263 705 241 684 q 323 730 288 730 q 372 713 345 735 q 480 613 399 694 q 608 488 529 564 q 732 608 684 562 q 846 713 819 694 q 895 730 871 735 q 952 705 930 730 q 977 648 977 684 q 958 594 982 624 q 825 464 930 564 q 667 312 762 407 l 667 312 z "},"":{"ha":1736,"x_min":0,"x_max":1736,"o":"m 1736 1077 l 1736 1044 q 1584 933 1625 1036 q 1516 779 1560 879 q 1345 380 1443 605 q 1164 -38 1248 155 l 1126 -38 l 903 486 q 803 293 854 391 q 635 -38 716 125 q 613 -38 632 -41 q 594 -38 597 -38 q 401 404 499 184 q 206 854 301 629 q 119 977 179 914 q 0 1042 57 1039 q 0 1058 0 1050 q 0 1080 0 1072 l 439 1080 l 439 1044 q 350 1017 396 1042 q 320 949 307 993 q 372 838 339 911 q 442 675 401 765 q 570 377 507 524 q 662 168 632 233 q 716 269 681 206 q 784 401 749 331 q 865 556 836 496 q 787 732 841 610 q 719 884 751 811 q 670 990 686 955 q 602 1034 648 1023 q 518 1042 559 1044 l 518 1080 l 903 1080 l 903 1044 q 836 1025 863 1042 q 825 974 808 1009 q 890 833 860 895 q 955 689 920 765 q 1012 806 968 716 q 1085 963 1055 892 q 979 1042 1120 1042 q 982 1061 982 1050 q 982 1080 982 1072 q 1158 1080 1066 1080 q 1259 1080 1215 1080 q 1316 1080 1299 1080 l 1316 1044 q 1158 958 1215 1039 l 998 624 q 1044 515 1006 600 q 1123 342 1082 431 q 1164 250 1145 290 q 1185 201 1180 212 l 1516 966 q 1454 1028 1497 1012 q 1389 1042 1413 1044 l 1389 1080 l 1736 1077 l 1736 1077 l 1736 1077 z "},"":{"ha":1389,"x_min":22,"x_max":1367,"o":"m 746 469 l 643 572 l 450 277 l 746 469 m 694 1194 q 355 1101 507 1191 l 355 1101 q 114 860 203 1012 l 114 860 q 22 521 24 708 q 114 182 24 334 q 355 -60 203 30 q 694 -152 507 -149 q 1034 -60 882 -149 q 1275 182 1185 30 q 1367 521 1364 334 q 1275 860 1364 708 q 1034 1101 1185 1012 q 694 1194 882 1191 l 694 1194 m 1118 719 l 1158 735 q 1185 724 1177 741 l 1185 724 q 1175 697 1191 705 l 1134 678 q 1107 692 1115 673 l 1107 692 q 1118 719 1099 711 l 1118 719 m 852 960 l 871 1001 q 898 1012 879 1017 l 898 1012 q 909 985 914 1004 l 892 944 q 865 933 884 925 l 865 933 q 852 960 846 941 l 852 960 m 694 1053 l 694 1053 q 716 1031 713 1050 l 716 987 q 694 966 713 968 l 694 966 q 673 987 675 968 l 673 1031 q 694 1053 675 1050 l 694 1053 m 491 1012 q 518 1001 510 1017 l 537 960 q 513 930 543 933 q 496 944 502 933 l 480 985 q 491 1012 475 1004 l 491 1012 m 317 898 l 317 898 q 350 898 334 909 l 380 865 q 380 836 393 852 l 380 836 q 350 836 363 822 l 317 865 q 317 898 307 882 l 317 898 m 163 521 l 163 521 q 184 543 165 540 l 228 543 q 250 521 247 540 l 250 521 q 228 499 247 502 l 184 499 q 163 521 165 502 l 163 521 m 271 323 l 231 307 q 203 317 212 301 l 203 317 q 214 345 198 336 l 255 363 q 282 350 274 369 l 282 350 q 271 323 290 331 l 271 323 m 282 692 l 282 692 q 255 678 274 673 l 214 697 q 203 724 198 705 l 203 724 q 231 735 212 741 l 271 719 q 282 692 290 711 l 282 692 m 537 81 l 518 41 q 483 35 505 16 q 480 57 475 46 l 496 98 q 532 103 510 122 q 537 81 540 92 l 537 81 m 716 11 q 694 -11 713 -8 l 694 -11 q 673 11 675 -8 l 673 54 q 694 76 675 73 l 694 76 q 716 54 713 73 l 716 11 m 898 30 l 898 30 q 871 41 879 24 l 852 81 q 865 109 846 100 l 865 109 q 892 98 884 117 l 909 57 q 898 30 914 38 l 898 30 m 1072 144 l 1072 144 q 1039 144 1055 133 l 1009 176 q 1009 206 996 190 l 1009 206 q 1039 206 1025 220 l 1072 176 q 1072 144 1082 160 l 1072 144 m 776 439 l 298 125 l 613 602 l 1090 917 l 776 439 m 1185 317 l 1185 317 q 1158 307 1177 301 l 1118 323 q 1107 350 1099 331 l 1107 350 q 1134 363 1115 369 l 1175 345 q 1185 317 1191 336 l 1185 317 m 1204 499 l 1161 499 q 1139 521 1142 502 l 1139 521 q 1161 543 1142 540 l 1204 543 q 1226 521 1223 540 l 1226 521 q 1204 499 1223 502 l 1204 499 z "},"":{"ha":1389,"x_min":0,"x_max":1389,"o":"m 0 521 q 92 871 3 713 l 391 353 q 515 222 437 271 q 694 174 594 174 q 806 193 751 174 l 600 -168 q 174 62 339 -127 q 0 521 5 252 l 0 521 m 990 342 q 1042 521 1042 423 q 925 781 1036 681 l 1337 781 q 1389 521 1389 659 q 1294 171 1386 328 q 1044 -79 1202 14 q 694 -174 890 -171 l 990 342 l 990 342 m 1297 868 l 694 868 q 472 789 564 865 q 355 589 380 711 l 146 949 q 385 1142 244 1072 q 694 1215 526 1213 q 1047 1120 890 1213 q 1297 868 1204 1025 l 1297 868 l 1297 868 m 456 521 q 526 689 458 621 l 526 689 q 694 760 594 757 q 863 689 795 757 q 933 521 930 621 q 863 353 930 420 q 694 282 795 285 q 526 353 594 285 q 456 521 458 420 l 456 521 z "},"":{"ha":1389,"x_min":22,"x_max":1367,"o":"m 1367 562 q 1364 572 1364 567 l 1364 572 l 1364 586 l 1364 586 q 1345 697 1359 643 q 1343 700 1345 697 l 1340 711 q 1340 711 1340 711 q 1340 711 1340 711 q 1340 716 1340 713 q 1337 722 1337 719 q 1337 722 1337 722 q 1337 724 1337 722 q 1335 732 1335 730 q 1335 735 1335 732 q 1332 735 1335 735 q 1329 746 1332 741 l 1329 749 q 1326 751 1329 751 q 1326 757 1326 754 q 1324 760 1324 760 q 1324 765 1324 762 q 1321 768 1321 768 q 1321 770 1321 770 q 1321 770 1321 770 q 1318 776 1318 773 q 1316 781 1318 779 q 1316 781 1316 781 q 1316 781 1316 781 q 1302 814 1310 798 l 1302 814 q 1299 817 1302 817 q 1297 822 1299 819 q 1297 825 1297 822 q 1297 825 1297 825 q 1294 830 1294 827 q 1291 833 1294 830 q 1291 836 1291 833 q 1289 838 1291 836 q 1286 844 1289 841 q 1286 846 1286 844 q 1283 849 1283 846 q 1280 854 1283 852 q 1278 860 1278 857 q 1275 863 1275 863 q 1275 865 1275 865 q 1272 868 1272 868 q 1270 871 1272 868 q 1270 873 1270 873 q 1267 876 1267 876 q 1267 876 1267 876 q 1264 882 1264 879 q 1261 887 1261 884 l 1256 892 q 1253 898 1256 895 q 1251 901 1253 898 q 1248 903 1251 903 q 1248 906 1248 903 q 1245 909 1248 906 l 1242 914 q 1240 917 1240 914 q 1240 917 1240 917 q 1234 922 1237 920 q 1232 928 1234 925 q 1166 1001 1202 966 q 1118 1047 1145 1025 q 1085 1072 1101 1061 q 1017 1112 1053 1096 q 998 1123 1006 1118 q 998 1123 998 1123 q 846 1177 925 1158 q 838 1177 844 1177 q 833 1180 836 1180 l 833 1180 q 827 1180 830 1180 q 825 1180 825 1180 q 722 1191 773 1191 l 692 1191 q 570 1177 629 1191 q 345 1072 429 1147 q 339 1069 342 1072 q 336 1066 339 1069 l 336 1066 l 336 1066 l 336 1066 l 336 1066 q 336 1066 336 1066 l 336 1066 q 336 1066 336 1066 q 472 1118 404 1104 l 488 1123 q 488 1123 488 1123 q 491 1123 488 1123 q 496 1126 494 1123 q 505 1126 502 1126 q 505 1126 505 1126 q 507 1126 507 1126 q 768 1112 640 1150 q 996 982 895 1077 q 1069 895 1036 944 q 1128 681 1128 792 q 1080 494 1128 572 q 876 358 1004 382 q 648 426 751 334 q 578 586 581 494 q 594 670 578 629 q 616 708 600 681 q 646 738 632 735 q 575 727 616 743 q 496 662 532 711 q 464 551 467 613 q 483 434 464 488 q 450 543 458 486 q 513 838 431 713 q 705 1004 597 966 q 529 1047 646 1053 q 304 963 415 1039 q 136 716 182 871 q 206 944 141 808 q 130 876 168 925 q 71 773 92 827 q 27 437 5 616 q 27 423 27 429 q 30 410 30 415 q 258 11 76 165 q 694 -149 439 -146 q 1034 -60 882 -149 q 1275 184 1185 33 q 1367 524 1364 336 q 1367 524 1367 524 q 1367 562 1367 543 l 1367 562 z "},"":{"ha":1345,"x_min":0,"x_max":1345,"o":"m 852 1126 q 480 955 618 1118 l 480 955 q 326 572 339 792 l 326 572 q 450 163 312 350 q 629 14 526 71 q 852 -41 730 -41 q 1120 41 1001 -41 q 673 -130 936 -125 q 640 -130 656 -130 q 315 -27 461 -119 q 87 212 171 62 q 0 543 3 361 q 92 882 3 730 q 334 1123 182 1034 q 673 1215 486 1213 l 675 1215 q 1120 1044 939 1207 q 852 1126 1001 1126 l 852 1126 m 1128 49 q 949 0 1042 -3 l 949 0 q 770 62 854 3 q 960 239 887 109 q 1034 543 1034 366 q 960 846 1034 719 q 770 1023 887 977 q 949 1085 857 1080 q 1131 1036 1044 1088 q 1321 719 1275 898 q 1321 363 1370 540 q 1128 49 1272 184 l 1128 49 z "},"":{"ha":1389,"x_min":0,"x_max":1389,"o":"m 1310 781 q 1351 898 1335 833 l 1351 898 q 1367 1020 1367 963 q 1215 1207 1367 1172 q 800 1126 1066 1242 q 396 996 575 1134 q 157 618 214 854 q 309 773 220 694 q 488 892 396 852 q 119 423 263 689 q 38 236 76 345 q 0 30 3 127 q 73 -144 3 -100 q 258 -168 146 -187 q 488 -84 369 -146 q 624 -119 553 -114 q 765 -125 692 -127 q 1126 -22 966 -125 q 1354 271 1283 81 l 1025 271 q 825 136 947 152 q 597 193 700 122 q 491 399 496 260 l 1383 399 q 1378 589 1397 488 q 1310 781 1362 689 l 1310 781 m 176 274 q 282 84 212 168 l 282 84 q 448 -60 353 -3 q 225 -125 323 -127 q 103 -24 127 -119 q 176 274 79 71 l 176 274 m 491 570 q 578 754 496 684 l 578 754 q 773 827 659 825 q 966 754 884 825 q 1053 570 1047 684 l 491 570 l 491 570 m 990 1080 q 1085 1118 1034 1101 l 1085 1118 q 1188 1139 1137 1137 q 1294 1099 1253 1137 q 1335 993 1332 1058 q 1321 901 1335 949 q 1294 808 1310 849 q 1164 968 1240 895 q 990 1080 1085 1042 l 990 1080 z "},"":{"ha":1389,"x_min":0,"x_max":1389,"o":"m 122 388 q 127 369 125 377 l 127 369 q 190 119 152 236 l 190 119 q 309 -87 228 5 l 92 -87 q 27 -60 54 -87 q 0 5 0 -33 l 0 1036 q 27 1101 0 1074 q 92 1128 54 1128 l 250 1128 q 149 1009 193 1077 q 71 722 65 873 q 119 410 79 572 q 122 388 122 399 l 122 388 m 1297 1128 l 1053 1128 q 1196 901 1139 1042 l 822 822 q 741 920 795 882 q 600 941 689 958 q 467 846 499 914 q 448 738 448 814 q 491 467 448 665 q 562 198 532 269 q 624 109 594 130 q 781 79 678 60 q 903 155 871 98 q 939 277 936 209 l 1310 358 q 1156 -87 1318 68 l 1297 -87 q 1362 -60 1335 -87 q 1389 5 1389 -35 l 1389 1036 q 1362 1101 1389 1074 q 1297 1128 1335 1128 l 1297 1128 z "},"":{"ha":1215,"x_min":87,"x_max":1126,"o":"m 279 282 q 269 323 266 309 l 269 323 q 301 345 271 336 q 336 347 328 353 q 353 320 345 342 q 418 212 358 285 l 418 212 l 418 464 q 496 640 423 570 q 684 716 572 713 q 871 637 795 713 q 949 453 947 564 q 844 241 944 320 q 600 201 743 163 q 589 247 581 212 q 624 277 600 279 q 798 309 732 274 q 865 453 863 345 q 808 583 863 534 q 678 632 751 632 q 548 572 605 632 q 505 480 510 534 q 499 298 496 426 q 502 146 499 236 q 727 98 608 84 q 936 201 846 114 q 1039 453 1039 307 q 936 705 1039 600 q 681 808 830 808 q 429 705 532 808 q 404 681 426 703 q 372 640 382 656 l 369 637 q 369 637 369 637 q 315 621 363 616 q 277 654 282 629 l 277 1161 q 304 1188 277 1185 l 960 1188 q 979 1172 974 1188 q 982 1147 982 1158 q 982 1147 982 1147 q 979 1123 982 1139 q 960 1107 974 1109 l 353 1107 l 353 746 l 355 746 q 678 890 502 892 q 985 770 854 887 q 1120 450 1115 651 q 1015 160 1118 269 q 768 24 914 52 q 486 60 621 -3 q 279 282 350 122 l 279 282 m 453 987 q 461 952 450 977 l 461 952 q 491 933 472 928 q 746 968 635 985 q 930 909 854 952 q 1036 838 1004 868 q 1061 822 1055 825 q 1093 846 1072 825 q 1099 884 1112 868 q 822 1031 968 1004 q 567 1039 675 1058 q 453 987 461 1017 l 453 987 m 1066 90 q 719 -68 911 -57 l 719 -68 q 372 35 529 -79 l 372 35 q 165 372 217 149 q 125 391 160 396 q 87 363 90 388 q 304 -11 127 125 q 705 -146 477 -149 q 1123 35 930 -146 q 1109 79 1134 54 q 1066 90 1085 103 l 1066 90 m 581 382 q 591 363 583 369 l 591 363 q 594 361 594 361 q 618 347 608 347 q 618 347 618 350 q 632 355 624 347 q 678 401 640 363 q 703 377 692 388 q 727 353 722 358 q 738 347 735 347 q 768 366 751 350 q 768 399 781 380 l 722 445 l 770 494 q 760 529 779 510 q 727 537 741 548 l 678 488 q 651 515 662 505 q 629 537 635 534 q 618 540 624 543 q 591 524 608 540 q 586 494 575 507 l 635 445 q 608 420 618 429 q 581 382 575 388 l 581 382 z "},"":{"ha":1215,"x_min":16,"x_max":1196,"o":"m 697 773 q 521 751 627 773 l 521 751 q 328 659 412 727 l 328 659 q 239 456 241 591 q 339 250 244 307 q 553 217 437 193 q 735 339 667 241 q 795 274 751 315 q 860 212 836 233 l 1012 363 q 968 407 1006 366 q 925 507 930 448 l 925 906 q 863 1042 928 963 q 621 1128 795 1120 q 347 1036 442 1123 q 255 846 255 952 l 456 827 q 545 944 494 922 q 602 960 597 966 q 686 917 673 960 q 697 806 703 876 q 697 773 697 789 l 697 773 m 697 537 q 637 399 694 431 l 637 399 q 529 393 583 366 l 529 393 q 469 491 475 420 q 548 616 475 586 q 697 648 624 648 l 697 537 l 697 537 m 1066 95 q 928 -5 1050 65 l 928 -5 q 594 -87 806 -79 q 336 -33 450 -84 q 141 81 220 16 q 27 187 60 144 q 22 209 14 203 q 41 209 30 214 q 52 203 46 206 q 290 79 152 138 q 618 16 429 19 q 1053 127 806 16 q 1066 95 1090 138 l 1066 95 m 1175 90 q 1118 5 1142 24 q 1099 16 1090 -14 q 1126 87 1109 35 q 1134 165 1145 141 q 1080 179 1118 179 q 1012 174 1042 176 q 1004 174 1006 174 q 987 171 993 171 q 966 174 966 168 q 998 201 963 187 q 1069 222 1034 217 q 1142 222 1101 225 q 1194 206 1180 220 q 1194 157 1199 193 q 1175 90 1188 125 l 1175 90 z "},"":{"ha":1215,"x_min":46,"x_max":1172,"o":"m 749 317 l 464 317 l 464 -87 l 46 -87 l 46 1128 l 345 1128 l 345 844 l 1172 613 l 1172 -87 l 749 -87 l 749 317 z "},"":{"ha":1215,"x_min":0,"x_max":1215,"o":"m 1215 798 q 966 312 1207 621 q 548 -11 719 -11 q 366 187 442 -11 q 328 334 347 266 q 239 635 279 529 q 152 743 201 741 q 57 686 138 743 l 0 760 q 79 830 41 795 q 233 963 163 906 q 358 1025 307 1020 q 532 833 499 1039 q 635 393 586 467 q 787 488 684 317 q 868 673 863 608 q 814 773 873 762 q 697 757 757 784 q 1039 1042 787 1050 q 1215 798 1226 1036 l 1215 798 z "},"":{"ha":1215,"x_min":0,"x_max":1215,"o":"m 0 1128 l 0 -87 l 1215 -87 l 1215 1128 l 0 1128 l 0 1128 m 860 247 l 608 5 l 358 247 l 532 746 l 358 979 l 857 979 l 684 746 l 860 247 l 860 247 z "},"":{"ha":1215,"x_min":0,"x_max":1215,"o":"m 0 1128 l 0 -87 l 1215 -87 l 1215 1128 l 0 1128 m 507 746 q 464 727 472 746 l 464 727 q 456 673 453 708 l 456 608 q 453 602 456 605 q 453 597 448 597 l 637 597 l 608 496 l 456 496 l 456 190 q 456 179 456 184 q 464 171 450 171 l 583 157 l 583 90 l 228 90 l 228 160 l 285 165 q 304 187 307 165 l 304 488 q 288 496 301 496 l 228 496 l 228 597 l 304 597 l 304 654 q 513 844 307 849 q 635 817 586 846 q 689 700 686 789 l 551 684 q 507 746 553 754 l 507 746 m 708 90 l 708 157 l 765 165 q 784 184 784 165 l 784 477 q 768 499 784 494 l 700 515 l 719 597 l 936 597 l 936 184 q 936 174 936 179 q 944 165 930 165 l 987 157 l 987 90 l 708 90 m 928 784 l 952 694 l 933 673 l 849 719 l 762 673 l 743 694 l 768 784 l 708 849 l 719 876 l 795 876 l 836 952 l 860 952 l 903 876 l 979 876 l 987 849 l 928 784 z "},"":{"ha":1389,"x_min":52,"x_max":1335,"o":"m 1194 662 q 1090 621 1131 662 q 719 735 941 724 l 795 1074 l 1034 1020 q 1066 944 1036 974 q 1139 914 1096 914 q 1218 944 1185 914 q 1248 1020 1248 977 q 1218 1096 1248 1066 q 1139 1128 1185 1128 q 1044 1069 1074 1126 l 781 1128 q 751 1109 760 1131 l 667 735 q 298 618 448 722 q 195 662 258 662 q 81 608 119 659 q 54 494 43 556 q 133 391 65 429 q 125 326 125 358 q 293 33 130 149 q 694 -87 453 -81 q 1099 33 939 -81 q 1267 326 1261 149 q 1259 393 1267 361 q 1335 494 1326 431 q 1308 608 1345 556 q 1194 665 1270 659 l 1194 662 m 350 377 q 382 453 353 423 l 382 453 q 458 486 412 483 q 534 453 505 483 q 564 377 564 423 q 534 301 564 331 q 458 271 505 271 q 382 301 412 271 q 350 377 353 331 l 350 377 m 933 125 q 787 57 879 73 l 787 57 q 602 57 694 41 l 602 57 q 456 125 510 73 q 456 160 439 141 q 491 160 475 176 q 613 109 532 122 q 773 109 692 95 q 895 160 854 122 q 933 160 914 176 q 933 125 949 141 l 933 125 m 930 271 q 854 301 884 271 l 854 301 q 825 377 825 331 q 854 453 825 423 q 930 486 884 483 q 1006 453 977 483 q 1039 377 1036 423 q 1006 301 1036 331 q 930 271 977 271 l 930 271 z "},"":{"ha":1389,"x_min":0,"x_max":1389,"o":"m 326 1115 q 692 1215 496 1218 q 1074 1118 920 1213 q 1310 890 1232 1025 q 1389 618 1389 754 q 1291 382 1386 483 q 1055 282 1194 288 q 854 317 906 285 q 808 369 806 347 q 822 396 808 382 l 825 399 l 825 401 q 868 515 868 450 q 722 789 863 681 q 369 903 581 898 q 76 830 214 903 q 220 1023 138 947 q 326 1112 301 1096 q 326 1112 326 1112 q 326 1115 328 1115 q 326 1115 326 1115 l 326 1115 l 326 1115 m 369 250 q 412 14 363 127 q 567 -174 469 -95 q 160 68 320 -122 q 0 515 3 263 q 109 694 5 624 q 369 770 214 768 q 646 684 521 773 l 635 681 q 450 515 526 637 q 369 250 372 393 l 369 250 l 369 250 m 1275 130 l 1272 130 q 1158 -5 1223 54 q 863 -141 1031 -119 q 716 -109 787 -141 q 551 35 610 -62 q 499 250 491 136 q 540 410 499 334 q 722 190 597 271 q 998 111 849 109 q 1242 168 1126 111 l 1248 171 q 1278 171 1264 182 q 1275 133 1291 152 q 1275 133 1275 133 q 1275 130 1275 130 q 1275 130 1275 130 l 1275 130 l 1275 130 z "},"":{"ha":1280,"x_min":0,"x_max":1280,"o":"m 1147 665 q 1204 627 1188 662 l 1204 627 q 1204 559 1218 594 l 1204 559 q 1145 521 1191 524 l 1115 521 l 1115 401 l 1044 401 l 1044 665 l 1147 665 l 1147 665 m 1280 258 q 1039 -41 1194 71 l 1039 -41 q 673 -152 882 -149 q 334 -60 486 -149 q 92 182 182 30 q 0 521 3 334 q 92 860 3 708 q 334 1101 182 1012 q 673 1194 486 1191 q 1023 1093 871 1191 q 1264 819 1172 993 l 760 524 l 1280 258 l 1280 258 m 1177 225 l 1012 309 q 681 114 898 122 q 393 233 507 119 q 277 518 279 347 q 393 806 279 692 q 681 922 507 920 q 998 751 882 920 l 1158 844 q 949 1044 1074 974 q 673 1115 825 1115 q 372 1036 507 1115 q 157 822 239 955 q 79 521 79 686 q 157 220 79 355 q 372 5 239 87 q 673 -76 507 -73 q 966 5 836 -73 q 1177 225 1096 84 l 1177 225 z "},"":{"ha":1215,"x_min":22,"x_max":1194,"o":"m 966 559 l 1066 494 l 1066 -87 l 705 141 l 966 559 l 966 559 m 1194 1012 l 613 1012 l 551 909 l 968 648 l 1194 1012 l 1194 1012 m 952 624 l 149 1128 l 149 545 l 274 467 l 952 624 l 952 624 m 263 418 l 22 30 l 602 30 l 941 572 l 263 418 l 263 418 z "}}}
